<?xml version="1.0" encoding="utf-8"?>
<!-- Generator: Adobe Illustrator 23.0.1, SVG Export Plug-In . SVG Version: 6.00 Build 0)  -->
<svg version="1.1" id="Layer_1" xmlns="http://www.w3.org/2000/svg" xmlns:xlink="http://www.w3.org/1999/xlink" x="0px" y="0px"
	 viewBox="0 0 512 512" style="enable-background:new 0 0 512 512;" xml:space="preserve">
<style type="text/css">
	.st0{fill:#ACCE2D;}
</style>
<g id="Planting-5">
	<g id="Outline">
		<path class="st0" d="M372.5,286.2l-33.9-33.9c-3.1-3.1-8.2-3.1-11.3,0c0,0,0,0,0,0c-77.4,77.6-74.7,74.2-79.4,80.1
			c-6.6,8.3,6,18.1,12.5,10c3.8-4.8,1.8-2.2,72.6-73.1l28.3,28.3l-16.7,16.7c-3.1,3.1-3.1,8.2,0,11.3c1.5,1.5,3.5,2.3,5.6,2.3
			c6,0,3-0.9,62-58.7l22.6,22.6L338.6,388c-6.3,6.3-16.4,6.3-22.6,0c-5.3-5.3-6.2-13.7-2.1-20c2.4-3.7,1.4-8.7-2.3-11.1
			c-3.7-2.4-8.7-1.4-11.1,2.3c0,0,0,0,0,0.1c-13.7,21,1.2,49.4,26.8,49.4c8.5,0,16.6-3.3,22.6-9.4l56.6-56.6l28.3,28.3L366.9,439
			c-9.8,9.8-22.4,16.2-36,18.3c-4.4,0.8-7.3,4.9-6.5,9.3c0.8,4.3,4.8,7.2,9.1,6.5c16.9-2.7,32.6-10.6,44.7-22.8l73.5-73.5
			c3.1-3.1,3.1-8.2,0-11.3c0,0,0,0,0,0l-33.9-33.9c70.8-70.8,34.5-34.5,84.9-84.9c6-6,9.4-14.1,9.4-22.6c0-28.7-34.7-42.5-54.6-22.6
			C412.1,246.7,450.2,208.6,372.5,286.2z M468.7,212.7c6.2-6.2,16.4-6.2,22.6,0c6.2,6.2,6.2,16.4,0,22.6l-45.3,45.3l-22.6-22.6
			L468.7,212.7z"/>
		<path class="st0" d="M69.4,363.9c4.3-1.5,8.8-2.8,13.5-3.9c19.2,0.5,29.1,16.9,29.1,24c0,4.4,3.6,8,8,8c17.2,0,5.3-39.5-27.5-46.8
			c18.1-46.4,70.8-40.9,71.9-41.2c-2.8,10.4-4.3,21.2-4.4,32c0,7.7,8.7,8.3,8,8c4.4,0,8-3.6,8-8c0-0.2,0.1-22.2,7.1-36.3
			c23.7-42.8,68.7-51.7,105.5-38c4.1,1.5,8.7-0.6,10.3-4.7c1.5-4.1-0.6-8.7-4.7-10.3l0,0c-9.7-3.6-19.8-5.8-30.1-6.5v-68.4
			l37.6-29.6c22.1,21.5,50.6,12.8,74.9-6.2c33.8-26.5,49.4-90.6,50-93.3c1-4.3-1.6-8.6-5.9-9.6c-0.6-0.1-1.2-0.2-1.8-0.2
			c-2.8,0-68.7,0-102.5,26.6c-23.7,18.6-39.1,43.7-24.4,70.2L264,151.5c0.1-18.5-3.4-36.8-10.2-54c16.4-17.7,17.8-42.6-10.1-68.7
			C216.9,4,160.5,0.2,158.1,0c-4.4-0.3-8.2,3.1-8.5,7.5c0,0.5,0,1,0.1,1.5c0.3,2.4,7.9,58.4,34.6,83.4c16.2,15.1,36.4,25,56.2,15.2
			c11.2,31,6.3,52.3,7.5,86.9l-22.9-12.5c3.9-13.3,2.6-35-33.4-54.6c-33.2-18.1-88.9-11.1-91.2-10.8c-4.4,0.6-7.5,4.6-6.9,9
			c0.1,0.8,0.3,1.7,0.7,2.4c1,2.1,25.4,52.7,58.6,70.8c22.8,12.4,48.6,17.6,64.8-2.5l30.3,16.5v27.5c-32.4,2.3-59.3,19-76.6,47.7
			c-8.3,0.9-38.7-4.9-67.7,17c-13.5,10.1-23.3,24.2-28.1,40.3c-3.9,1-7.7,2.2-11.3,3.4c-4.2,1.4-6.4,6-5,10.2
			C60.7,363.1,65.2,365.4,69.4,363.9C69.4,363.9,69.4,363.9,69.4,363.9L69.4,363.9z M326.2,72.1c22-17.3,62.7-21.7,81.9-22.8
			c-5.6,18.4-19.4,56.9-41.5,74.2c-16.4,12.9-36.4,22.3-52.2,8.8l58.6-46c3.5-2.7,4.1-7.8,1.3-11.2s-7.8-4.1-11.2-1.3l0,0
			l-58.4,45.9C296.3,101.3,310.4,84.4,326.2,72.1z M246,81.5c-8.5-15.1-19.6-28.5-32.9-39.6c-3.4-2.8-8.4-2.4-11.3,1
			c-2.8,3.4-2.4,8.4,1,11.3c12.9,10.7,23.5,23.9,31.2,38.8c-13.4,7.1-27.8-1.9-38.9-12.2c-16.4-15.3-24.7-47.3-27.9-63.7
			c16.5,2.2,49,8.2,65.4,23.5C245.1,52.2,254.9,66.9,246,81.5L246,81.5z M210.5,174.1L169.8,152c-3.9-2.1-8.7-0.7-10.9,3.2
			c-2.1,3.9-0.7,8.7,3.2,10.9l41.1,22.4c-8.7,8.3-23.1,7.1-42.7-3.6c-20.3-11.1-37.8-38.2-46.3-53.2c17.2-1,49.5-1.1,69.8,10
			C203,151.8,211.9,162.8,210.5,174.1L210.5,174.1z"/>
		<path class="st0" d="M488.3,374L488.3,374c-3.1-3.1-8.2-3.1-11.3,0.1s-3.1,8.2,0.1,11.3c41,40.9,11.7,110.6-45,110.6H80
			c-41.4,0-73.7-39.2-61.5-84c1.2-4.3-1.3-8.7-5.6-9.8s-8.7,1.3-9.8,5.6c0,0,0,0,0,0C-12,463.1,28.4,512,80,512h352
			c44.2-0.1,79.9-35.8,80-80C512,407.1,502.8,387.2,488.3,374z"/>
		<path class="st0" d="M276,464c-4.4,0-8,3.6-8,8c0,17.6,44,5.8,44-28c0-15.3-9.6-28.9-24-34c2.2-50.8-66.4-69.4-90.3-24.7
			c-19.2-5.3-39,5.9-44.4,25.1c-0.9,3.1-1.3,6.4-1.3,9.6c0,34,44,45.5,44,28c0-4.4-3.6-8-8-8c-11,0-20-8.9-20-20s8.9-20,20-20
			c3.5,0,6.9,0.9,10,2.6c3.8,2.2,8.7,0.9,10.9-2.9c0.3-0.5,0.5-1,0.7-1.5c5.4-16.8,23.4-26.1,40.2-20.7c15.6,5,25,21,21.6,37.1
			c-0.9,4.3,1.9,8.6,6.2,9.5c0.2,0.1,0.5,0.1,0.7,0.1c11,1.3,18.8,11.2,17.6,22.2C294.7,456.4,286.1,464,276,464z"/>
		<circle class="st0" cx="32" cy="376" r="8"/>
		<circle class="st0" cx="328" cy="344" r="8"/>
	</g>
</g>
</svg>
