<svg xmlns="http://www.w3.org/2000/svg" viewBox="0 0 292.44 115.15"><defs><style>.cls-1{fill:#ed2024;}.cls-2{fill:#fff;}</style></defs><title>announcer-logo1_1</title><g id="Layer_2" data-name="Layer 2"><g id="Layer_1-2" data-name="Layer 1"><path class="cls-1" d="M23.46,55.65q0-21.07,0-42.13c0-6.89,5.37-9.95,11.37-6.49q36.46,21,72.93,42.05c2.59,1.49,4.34,3.43,4.38,6.47s-1.72,5.17-4.39,6.7q-36.48,21-72.91,42.08c-2.65,1.53-5.24,2.09-8,.46s-3.44-4-3.43-7C23.49,83.74,23.47,69.69,23.46,55.65Z"/><path class="cls-1" d="M120,52.78c-1.16-5.11-4.61-7.07-8.33-9.11C99.65,37.12,87.81,30.32,76,23.53c-11.18-6.4-22.3-12.91-33.45-19.38-1-.59-2-1.2-3.46-2.06a51.61,51.61,0,0,1,22-1.52c21.32,3.36,36.19,15.07,44.63,35a6.41,6.41,0,0,0,2.11,2.52c2.46,1.79,5.08,3.37,7.57,5.14A10.41,10.41,0,0,1,120,52.78Z"/><path class="cls-1" d="M20.42,1.19C16.55,4.73,16.56,8.7,16.63,13c.23,13.64.17,27.29.13,40.93,0,12.89-.19,25.78-.29,38.67,0,1.17,0,2.35-.08,4A51.65,51.65,0,0,1,4.19,78.21q-11.44-30.27,8.3-56.08a6.4,6.4,0,0,0,1.14-3.07c.34-3,.42-6.09.72-9.13A10.44,10.44,0,0,1,20.42,1.19Z"/><path class="cls-1" d="M26,113.8c4.24.85,7.59-.94,11.14-3,22.92-13.51,46-26.85,68.94-40.23.32-.19.67-.34,1.32-.68-.15.82-.21,1.38-.36,1.9a55.07,55.07,0,0,1-58.82,39c-4.5-.52-7.77,1.2-11.33,2.94a11.77,11.77,0,0,1-10.56.36A1.7,1.7,0,0,1,26,113.8Z"/><path class="cls-2" d="M126.77,43.69a21,21,0,0,1,1.34-7.32,19.69,19.69,0,0,1,10.18-11.09,19.32,19.32,0,0,1,8.43-1.77A18.45,18.45,0,0,1,156.39,26a15.76,15.76,0,0,1,6.07,6.39l-6,4.16a10.54,10.54,0,0,0-1.94-2.88A9.59,9.59,0,0,0,152,31.78a11,11,0,0,0-2.74-1,12.89,12.89,0,0,0-2.79-.31,10.69,10.69,0,0,0-5.16,1.19,11.36,11.36,0,0,0-3.65,3.11,13.94,13.94,0,0,0-2.2,4.33,16.61,16.61,0,0,0-.74,4.82,15.69,15.69,0,0,0,.86,5.16A13.61,13.61,0,0,0,138,53.44a12,12,0,0,0,3.76,3,10.2,10.2,0,0,0,4.82,1.14,12.58,12.58,0,0,0,2.85-.34,11,11,0,0,0,2.82-1.08,10.42,10.42,0,0,0,2.48-1.91,8.92,8.92,0,0,0,1.83-2.82l6.44,3.7a12.21,12.21,0,0,1-2.77,4,17.66,17.66,0,0,1-4,2.94,20.4,20.4,0,0,1-4.82,1.82,21,21,0,0,1-5,.63,17.28,17.28,0,0,1-7.92-1.82A20.77,20.77,0,0,1,132.27,58a22.17,22.17,0,0,1-4.05-6.68A20.73,20.73,0,0,1,126.77,43.69Z"/><path class="cls-2" d="M181.44,64.22V23.74h7.87V64.22Z"/><path class="cls-2" d="M241.13,30.64H228.19V64.22h-7.81V30.64H207.44v-6.9h33.69Z"/><path class="cls-2" d="M263.82,23.74l10,19.5L284,23.74h8.49L277.73,50.08V64.22h-7.81V50L255.27,23.74Z"/><path class="cls-2" d="M171.6,73.93h4.34q3,0,4.89,3.14a5.64,5.64,0,0,1,.62,2.55v.21a5.63,5.63,0,0,1-2.87,4.84l-.14.06q4.58,7.9,4.58,8.19v.26q0,1.11-1.38,1.35h-.08c-.67,0-1.32-.67-1.93-2l-4.15-7.08h-2.31v7.73q0,1.11-1.38,1.35h-.08c-.77,0-1.23-.47-1.41-1.42V75.48C170.41,74.45,170.84,73.93,171.6,73.93Zm1.57,2.81V82.6h2.55a2.8,2.8,0,0,0,2.83-2.33l0-.37v-.39a2.83,2.83,0,0,0-1.93-2.59,6.2,6.2,0,0,0-1.78-.18Z"/><path class="cls-2" d="M190.6,79.58a7.41,7.41,0,0,1,6.69,4.09,7.58,7.58,0,0,1,.83,3.49v.3c-.17.94-.63,1.41-1.39,1.41H186.41a4.13,4.13,0,0,0,2.24,2.35,5.72,5.72,0,0,0,2,.42,6.21,6.21,0,0,0,2.65-.77h.44q1.29.24,1.29,1.35v.15q0,1.62-4.09,2.16h-.38a7.36,7.36,0,0,1-6.45-3.76,7.66,7.66,0,0,1-1-3.72A7.4,7.4,0,0,1,187,80.52,8,8,0,0,1,190.6,79.58ZM186.16,86h9A5.11,5.11,0,0,0,194,84a4.48,4.48,0,0,0-3-1.46h-.56A4.83,4.83,0,0,0,186.16,86Z"/><path class="cls-2" d="M206.25,79.57a7.64,7.64,0,0,1,5.29,2.2,1.75,1.75,0,0,1,.23.79v.09c-.16.9-.63,1.35-1.39,1.35h0a4.31,4.31,0,0,1-1.88-1,4.42,4.42,0,0,0-2-.52h-.3a4.47,4.47,0,0,0-4.16,2.89,5.61,5.61,0,0,0-.34,1.76,4.59,4.59,0,0,0,2.91,4.26,5.11,5.11,0,0,0,1.85.33,5.19,5.19,0,0,0,3.31-1.42l.56-.12h.21c.73,0,1.18.45,1.33,1.35v.08q0,1.35-3.61,2.73a10.26,10.26,0,0,1-1.76.22H206a7.56,7.56,0,0,1-5.62-2.84,7.85,7.85,0,0,1-1.6-4.64A7.45,7.45,0,0,1,202,80.93,7.59,7.59,0,0,1,206.25,79.57Z"/><path class="cls-2" d="M220,79.68a7.48,7.48,0,0,1,7.42,7.42,7.43,7.43,0,0,1-7.27,7.43h-.41a7.52,7.52,0,0,1-5.58-2.81,7.87,7.87,0,0,1-1.59-4.62,7.38,7.38,0,0,1,3.2-6.06A7.5,7.5,0,0,1,220,79.68ZM215.45,87v.25a4.4,4.4,0,0,0,2.5,4,4.09,4.09,0,0,0,1.9.45h.3a4.43,4.43,0,0,0,4.08-2.77,4.83,4.83,0,0,0,.31-1.68V87a4.38,4.38,0,0,0-2-3.61,4.6,4.6,0,0,0-6.9,2.28A4.73,4.73,0,0,0,215.45,87Z"/><path class="cls-2" d="M230.74,79.5c.9.23,1.36.66,1.36,1.29V81a6.44,6.44,0,0,1,4.45-1.51,8.19,8.19,0,0,1,3.19.74,1.73,1.73,0,0,1,.59,1.17v.1c-.15.9-.62,1.35-1.39,1.35h-.12a7.89,7.89,0,0,0-2.07-.45h-.3a4.27,4.27,0,0,0-4.08,2.89,5.21,5.21,0,0,0-.27,1.76v6.12q0,1.11-1.38,1.35h-.09c-.75,0-1.21-.47-1.39-1.4v-12C229.35,80,229.85,79.5,230.74,79.5Z"/><path class="cls-2" d="M254.1,74h.25c.87.19,1.3.61,1.3,1.26v10.3l.06,1.77A7.67,7.67,0,0,1,254,91.83a7.52,7.52,0,0,1-5.62,2.7h-.42a7.64,7.64,0,0,1-5.67-2.85,8,8,0,0,1-1.62-4.7,7.53,7.53,0,0,1,3.25-6.16,7.66,7.66,0,0,1,4.3-1.38,6.8,6.8,0,0,1,4.69,1.63V76.12l-.06-.89C253.07,74.39,253.5,74,254.1,74ZM243.48,86.83v.26a4.61,4.61,0,0,0,3.07,4.35,5.1,5.1,0,0,0,1.46.24h.32q2.83,0,4.29-3.06a6.17,6.17,0,0,0,.24-1.42v-.32c0-1.93-1-3.39-3.12-4.35a6.3,6.3,0,0,0-1.47-.23h-.21q-2.84,0-4.3,3A4.78,4.78,0,0,0,243.48,86.83Z"/></g></g></svg>