<?xml version="1.0" encoding="utf-8"?>
<!-- Generator: Adobe Illustrator 23.0.1, SVG Export Plug-In . SVG Version: 6.00 Build 0)  -->
<svg version="1.1" id="Capa_1" xmlns="http://www.w3.org/2000/svg" xmlns:xlink="http://www.w3.org/1999/xlink" x="0px" y="0px"
	 viewBox="0 0 512 512" style="enable-background:new 0 0 512 512;" xml:space="preserve">
<style type="text/css">
	.st0{fill:#ACCE2D;}
	.st1{fill:#ACCE2D;stroke:#000000;stroke-width:15;stroke-linecap:round;stroke-linejoin:round;stroke-miterlimit:10;}
</style>
<g>
	<g>
		<path class="st0" d="M208.8,412.8c-75.2-20-127.7-88.3-127.7-166.2c0-29.7,7.7-58.9,22.3-84.7c8.2-2.4,30.1-10.3,41.1-29.1
			c13.4-22.9,4.8-52.1,4.5-53.3c-1.1-3.7-5-6-8.8-5.1c-1.3,0.3-30.9,7-44.3,30c-10.9,18.6-7.3,41.4-5.3,49.9
			c-7.5,13.2-13.4,27.3-17.5,41.9c-3.3-6.2-7.7-12.4-13.8-17.3c0,0,0,0,0,0C38.7,162,8.6,166,7.3,166.1c-3.9,0.5-6.7,4-6.4,7.9
			c0.1,1.3,2.2,31.6,22.8,48.4c13.8,11.2,31.8,13.2,42.6,13.2c0.1,0,0.2,0,0.3,0c-0.2,3.7-0.3,7.3-0.3,11c0,16.9,2.3,33.5,6.6,49.3
			c-5.3-3.2-11.3-5.9-17.9-7.2c-26.1-5.1-50.7,12.7-51.8,13.4c-3.2,2.3-4,6.7-1.9,10c0.3,0.4,6.3,10,16.6,18.7
			c3.2,2.6,7.9,2.2,10.5-0.9c2.6-3.2,2.2-7.9-0.9-10.5c-3.7-3.1-6.7-6.3-9-9c7.6-4,20.7-9.4,33.6-6.9c12.9,2.5,23,12.4,28.5,19
			c-6.9,3.7-18.3,8.4-30,7.4c-4.1-0.3-7.7,2.7-8.1,6.8c-0.4,4.1,2.7,7.7,6.8,8.1c1.5,0.1,3,0.2,4.5,0.2c14.2,0,27.1-5.6,34.7-9.8
			c8.8,16.4,20.1,31.5,33.4,44.6c-7-0.1-14.6,0.8-21.8,3.7c-24.7,9.9-35.8,38.2-36.2,39.4c-1.4,3.6,0.2,7.8,3.8,9.4
			c0.8,0.4,15.5,7.2,32.9,7.2c6.6,0,13.7-1,20.5-3.7c16.6-6.6,27.1-21.6,32.3-31.1c15.7,10,33.1,17.7,51.8,22.6
			c4,1.1,8.3-1.5,9.2-5.6C215.1,417.8,212.7,413.8,208.8,412.8z M33.1,210.8C23,202.5,18.7,189,17,180.5c8.6,0,22.7,1.5,32.9,9.8
			l0,0c10.1,8.3,14.4,21.8,16.2,30.2C57.4,220.6,43.3,219.1,33.1,210.8z M108.8,111.9c6.6-11.3,19.3-17.6,27.4-20.6
			c1.3,8.5,2,22.7-4.6,34c-6.6,11.3-19.3,17.6-27.4,20.6C102.9,137.4,102.2,123.2,108.8,111.9z M115.4,421.8
			c-12.2,4.9-26.1,2-34.3-0.5c4.2-7.5,12.3-19.1,24.5-24c12.2-4.9,26.1-2,34.3,0.5C135.7,405.3,127.6,416.9,115.4,421.8z"/>
		<path class="st0" d="M508.9,302.1c-1-0.8-25.7-18.5-51.8-13.4c-6.7,1.3-12.7,3.9-17.9,7.2c4.3-15.8,6.6-32.3,6.6-49.3
			c0-3.7-0.1-7.4-0.3-11c0.1,0,0.2,0,0.3,0c6.6,0,15.9-0.7,25.3-3.8c3.9-1.3,6-5.5,4.7-9.5c-1.3-3.9-5.5-6-9.5-4.7
			c-7.4,2.5-14.9,3.1-20.3,3.1c1.7-8.4,6-22,16.2-30.2c10.1-8.3,24.3-9.8,32.9-9.8c-1.2,5.9-3.7,14.3-8.6,21.7
			c-2.3,3.4-1.3,8.1,2.1,10.4c3.4,2.3,8.1,1.3,10.4-2.1c10.8-16.3,12.1-35.7,12.2-36.5c0.2-3.9-2.6-7.3-6.4-7.9
			c-1.3-0.2-31.4-4.2-52,12.6c-6.1,5-10.5,11.1-13.8,17.3c-4.1-14.6-9.9-28.6-17.5-41.9c1.9-8.5,5.6-31.3-5.3-49.9
			c-13.4-22.9-43-29.7-44.3-30c-3.8-0.8-7.6,1.4-8.8,5.1c-0.4,1.2-9,30.4,4.5,53.3c11,18.8,32.9,26.7,41.1,29.1
			c14.6,25.7,22.3,54.9,22.3,84.7c0,77.9-52.5,146.2-127.7,166.2c-3.8,1-6.3,5-5.4,8.9c0.9,4.1,5.2,6.7,9.2,5.6
			c18.7-5,36.1-12.7,51.8-22.6c5.2,9.5,15.6,24.4,32.3,31.1c6.8,2.7,13.8,3.7,20.5,3.7c17.4,0,32.1-6.8,32.9-7.2
			c3.5-1.7,5.2-5.8,3.8-9.4c-0.5-1.2-11.5-29.5-36.2-39.4c-7.3-2.9-14.8-3.8-21.8-3.7c13.3-13.1,24.5-28.1,33.4-44.6
			c7.7,4.2,20.5,9.8,34.7,9.8c3.2,0,6.4-0.3,9.7-0.9c26.1-5.1,42.3-30.8,42.9-31.9C512.9,308.8,512.1,304.4,508.9,302.1z
			 M406.4,397.3c12.2,4.9,20.3,16.5,24.5,24c-8.2,2.6-22.1,5.4-34.3,0.5c-12.2-4.9-20.3-16.5-24.5-24
			C380.3,395.2,394.2,392.4,406.4,397.3z M380.4,125.3c-6.6-11.3-5.9-25.5-4.6-34c8,3,20.8,9.3,27.4,20.6c6.6,11.3,5.9,25.5,4.6,34
			C399.7,142.9,387,136.6,380.4,125.3z M465.1,329.3c-12.9,2.5-26-2.9-33.6-6.9c5.5-6.6,15.6-16.5,28.6-19c12.9-2.5,26,2.9,33.6,6.9
			C488.2,316.9,478,326.8,465.1,329.3z"/>
		<path class="st0" d="M327.6,318.3c0-17.6-14.3-31.9-31.9-31.9h-0.2v-101c0-4.1-3.3-7.5-7.5-7.5c-4.1,0-7.5,3.3-7.5,7.5v108.5
			c0,4.1,3.3,7.5,7.5,7.5h7.6c9.3,0,16.9,7.6,16.9,16.9c0,9.3-7.6,16.9-16.9,16.9h-68.9c-9.3,0-16.9-7.6-16.9-16.9
			c0-9.3,7.6-16.9,16.9-16.9h12.5c4.1,0,7.5-3.3,7.5-7.5V163.2c0-3-1.8-5.8-4.6-6.9c-2.8-1.2-6-0.5-8.1,1.6l-6,5.9
			c-6.6,6.6-17.3,6.6-23.9,0c-6.6-6.6-6.6-17.3,0-23.9l47.5-47.5c4.9-4.8,12.1-6.3,18.4-3.6c6.3,2.6,10.4,8.8,10.4,15.6v51
			c0,4.1,3.3,7.5,7.5,7.5c4.1,0,7.5-3.3,7.5-7.5v-51c0-12.9-7.7-24.5-19.7-29.4c-11.9-4.9-25.6-2.2-34.7,6.9l-47.5,47.5
			c-12.4,12.4-12.5,32.6,0,45c10.3,10.4,26.1,12.1,38.2,5.2v106.8h-5c-17.6,0-31.9,14.3-31.9,31.9c0,17.6,14.3,31.9,31.9,31.9h68.9
			C313.3,350.2,327.6,335.9,327.6,318.3z"/>
	</g>
	<path class="st1" d="M49.8,337.4"/>
	<path class="st1" d="M22.5,325"/>
</g>
</svg>
