<?xml version="1.0" encoding="utf-8"?>
<!-- Generator: Adobe Illustrator 23.0.1, SVG Export Plug-In . SVG Version: 6.00 Build 0)  -->
<svg version="1.1" id="Layer_1" xmlns="http://www.w3.org/2000/svg" xmlns:xlink="http://www.w3.org/1999/xlink" x="0px" y="0px"
	 viewBox="0 0 512 512" style="enable-background:new 0 0 512 512;" xml:space="preserve">
<style type="text/css">
	.st0{fill:#ACCE2D;}
</style>
<g id="Page-1">
	<g transform="translate(-1)">
		<path id="Shape" class="st0" d="M133.3,264.5c44.8,0.1,81,36.3,81.1,81.1c0,4.7,3.8,8.5,8.5,8.5c4.7,0,8.5-3.8,8.5-8.5
			c0-39.7-23.9-75.5-60.6-90.7c-36.7-15.2-78.9-6.8-106.9,21.3s-36.5,70.3-21.3,106.9s51,60.6,90.7,60.6c35.3,0,64-28.7,64-64
			s-28.7-64-64-64c-25.9,0-46.9,21-46.9,46.9s21,46.9,46.9,46.9c4.7,0,8.5-3.8,8.5-8.5s-3.8-8.5-8.5-8.5
			c-16.5,0-29.9-13.4-29.9-29.9c0-16.5,13.4-29.9,29.9-29.9c25.9,0,46.9,21,46.9,46.9c0,25.9-21,46.9-46.9,46.9
			c-44.8,0-81.1-36.3-81.1-81.1S88.5,264.5,133.3,264.5L133.3,264.5z"/>
		<path class="st0" d="M380.7,247.5c-54.2,0-98.1,43.9-98.1,98.1s43.9,98.1,98.1,98.1c35.3,0,64-28.7,64-64s-28.7-64-64-64
			c-25.9,0-46.9,21-46.9,46.9s21,46.9,46.9,46.9c4.7,0,8.5-3.8,8.5-8.5s-3.8-8.5-8.5-8.5c-16.5,0-29.9-13.4-29.9-29.9
			s13.4-29.9,29.9-29.9c25.9,0,46.9,21,46.9,46.9c0,25.9-21,46.9-46.9,46.9c-44.8,0-81.1-36.3-81.1-81.1s36.3-81.1,81.1-81.1
			s81.1,36.3,81.1,81.1c0,4.7,3.8,8.5,8.5,8.5c4.7,0,8.5-3.8,8.5-8.5C478.8,291.4,434.9,247.5,380.7,247.5z"/>
		<path class="st0" d="M513,345.6c0-22.8-5.9-45.2-17.2-65l8.5-5.7c2.5-1.7,4-4.6,3.8-7.6c-0.2-3-2-5.8-4.7-7.1s-6-1.1-8.5,0.5
			l-8.5,5.7c-11.7-15.6-26.7-28.5-44-37.6l1.5-3c1.4-2.7,1.2-6-0.5-8.6s-4.6-4-7.7-3.8c-3.1,0.2-5.8,2-7.1,4.8l-1.8,3.7
			c-14.7-5.5-30.3-8.4-46-8.4c-3.8,0-7.7,0.3-11.4,0.6c6.7-9.7,12.1-20.2,16.1-31.3l5.4,1.8c0.9,0.3,1.8,0.4,2.7,0.4
			c4.2,0,7.7-3,8.4-7.2s-1.7-8.1-5.7-9.5l-6.1-2c11.8-52-8-106.1-50.6-138.2l4.2-6.3c2.6-3.9,1.6-9.2-2.4-11.8s-9.2-1.6-11.8,2.4
			l-4.1,6.2c-40.8-23.8-91.1-24.8-132.8-2.4S123.7,80.8,120.9,128h-9c-4.7,0-8.5,3.8-8.5,8.5s3.8,8.5,8.5,8.5h8.9
			c1.5,24.7,9.7,48.5,23.8,68.8c-3.7-0.3-7.6-0.6-11.4-0.6c-15.7,0-31.3,2.9-46,8.4l-1.8-3.7c-1.3-2.8-4.1-4.6-7.1-4.8
			c-3.1-0.2-6,1.3-7.7,3.8s-1.9,5.8-0.5,8.6l1.5,3c-17.3,9.2-32.3,22-44,37.7l-8.5-5.7c-3.9-2.6-9.2-1.5-11.8,2.4s-1.5,9.2,2.4,11.8
			l8.5,5.7C0.8,311.1-3.6,347.3,5.8,381.2s32,62.5,62.7,79.6H18.1c-9.4,0-17.1,7.6-17.1,17.1v17.1c0,9.4,7.6,17.1,17.1,17.1h477.9
			c9.4,0,17.1-7.6,17.1-17.1v-17.1c0-9.4-7.6-17.1-17.1-17.1h-50.4C487.2,437.4,513,393.4,513,345.6L513,345.6z M137.5,136.5
			c0-66,53.5-119.5,119.5-119.5s119.5,53.5,119.5,119.5c0.1,30.7-11.8,60.2-33.1,82.3c-21.1,6.2-40.3,17.6-55.9,33.2
			c-19.9,5.3-40.9,5.3-60.8,0c-15.6-15.5-34.8-26.9-55.9-33.2C149.3,196.7,137.5,167.2,137.5,136.5L137.5,136.5z M270.7,272.3
			c-5.6,8.4-10.2,17.5-13.7,27c-3.5-9.5-8.1-18.5-13.7-27C252.4,273.3,261.6,273.3,270.7,272.3z M18.1,345.6
			c0-63.6,51.6-115.2,115.2-115.2S248.5,282,248.5,345.6s-51.6,115.2-115.2,115.2C69.7,460.7,18.1,409.2,18.1,345.6z M267.4,440.5
			c2.9,3.7,8.3,4.3,11.9,1.4l6-4.8c9,9.4,19.3,17.4,30.6,23.7H198c27.1-15.3,48-39.7,59-68.9c4.3,11.4,10.2,22.2,17.4,32.1l-5.7,4.5
			C265.1,431.5,264.5,436.8,267.4,440.5z M495.9,477.9v17.1H18.1v-17.1H495.9z M380.7,460.8c-63.6,0-115.2-51.6-115.2-115.2
			s51.6-115.2,115.2-115.2S495.9,282,495.9,345.6C495.9,409.2,444.3,460.7,380.7,460.8z"/>
		<path class="st0" d="M257,51.2c47.1,0.1,85.3,38.2,85.3,85.3c0,4.7,3.8,8.5,8.5,8.5c4.7,0,8.5-3.8,8.5-8.5
			c0-45.2-29.5-85-72.8-98.1s-89.9,3.7-114.9,41.3s-22.4,87.1,6.3,121.9c3,3.6,8.4,4.1,12,1.1c3.6-3,4.1-8.4,1.1-12
			c-21.1-25.5-25.5-60.8-11.4-90.7C193.9,70.2,224,51.2,257,51.2z"/>
		<path class="st0" d="M257,196.3c4.7,0,8.5-3.8,8.5-8.5c0-4.7-3.8-8.5-8.5-8.5c-18.9,0-34.1-15.3-34.1-34.1s15.3-34.1,34.1-34.1
			c28.3,0,51.2,22.9,51.2,51.2s-22.9,51.2-51.2,51.2c-5.2,0-10.4-0.5-15.5-1.4c-4.6-0.9-9.1,2.2-9.9,6.8c-0.9,4.6,2.2,9.1,6.8,9.9
			c6.1,1.1,12.4,1.7,18.6,1.7c37.7,0,68.3-30.6,68.3-68.3S294.7,93.9,257,93.9c-28.3,0-51.2,22.9-51.2,51.2S228.7,196.3,257,196.3z"
			/>
	</g>
</g>
</svg>
