<?xml version="1.0" encoding="utf-8"?>
<!-- Generator: Adobe Illustrator 23.0.1, SVG Export Plug-In . SVG Version: 6.00 Build 0)  -->
<svg version="1.1" id="Layer_1" xmlns="http://www.w3.org/2000/svg" xmlns:xlink="http://www.w3.org/1999/xlink" x="0px" y="0px"
	 viewBox="0 0 512 512" style="enable-background:new 0 0 512 512;" xml:space="preserve">
<style type="text/css">
	.st0{fill:#ACCE2D;}
</style>
<g>
	<path id="Shape" class="st0" d="M465.2,74.3c-10.3-21.4-32.8-34.3-56.5-32.5c-23.7,1.8-43.9,18-50.9,40.8
		c-20.5,0.5-36.8,17.5-36.3,38s17.5,36.8,38,36.3h102.9c22.8,0.8,41.9-17.1,42.7-39.9C505.9,94.2,488,75.1,465.2,74.3z M462.5,140.4
		H359.2c-7.4-0.6-13.9-5.2-17-11.9c-3.1-6.7-2.5-14.6,1.8-20.6c4.2-6.1,11.4-9.4,18.8-8.8c4.5,0.7,8.7-2.4,9.4-6.9
		c2.7-16.9,15.7-30.4,32.5-33.9c16.8-3.4,34,3.9,43.2,18.4c-8.2,3.1-15.2,8.7-20,16.1c-2.2,3.8-1,8.7,2.7,11
		c3.7,2.4,8.6,1.4,11.2-2.1c4.1-6.2,10.8-10.2,18.2-10.9h1.9c6.7-0.2,13.2,2.4,17.9,7s7.5,11.1,7.5,17.8
		C487.2,129.3,476.1,140.4,462.5,140.4L462.5,140.4z"/>
	<path class="st0" d="M256,123.9c27.3,0,49.5-25.9,49.5-57.8S283.3,8.3,256,8.3s-49.5,25.9-49.5,57.8S228.7,123.9,256,123.9z
		 M256,24.8c18.3,0,33,18.5,33,41.3s-14.8,41.3-33,41.3s-33-18.5-33-41.3S237.7,24.8,256,24.8z"/>
	<path class="st0" d="M183.6,162.8l-16.5,48.7c-2.5,7.2-2.3,15,0.4,22c15.9,41.3,15,40.6,19.2,45.6c-21.6,98.2-17.8,84.2-20.1,89.3
		l-13.3,31.7c-8.3-4.9-14-3.7-29.5-3.7c-13.7,0-24.8,11.1-24.8,24.8c0,64.5-0.5,60.4,1.5,66.1H66.1c-4.6,0-8.3,3.7-8.3,8.3
		c0,4.6,3.7,8.3,8.3,8.3h379.9c4.6,0,8.3-3.7,8.3-8.3c0-4.6-3.7-8.3-8.3-8.3h-34.5c2-5.8,1.5-1.7,1.5-66.1
		c0-13.7-11.1-24.8-24.8-24.8c-15.3,0-21.6-1.1-29.5,3.7c-1.7-4.3-13.6-32.5-14.9-35.5l-18.3-85.5c4.1-5,3-3.5,19.2-45.6
		c2.6-7.1,2.6-14.9,0-22l-16.5-48.7c-4.5-13.3-16.9-22.2-30.9-22.4h-82.6C200.6,140.4,188.1,149.4,183.6,162.8L183.6,162.8z
		 M232.6,272.5h46.7c5.1,12.2,18.3,18.8,31.1,15.8l9.2,42.9c-4.9-0.9-2.7-0.9-55.5-0.9v-16.5c0-4.6-3.7-8.3-8.3-8.3
		c-4.6,0-8.3,3.7-8.3,8.3v16.5c-53.7,0-51,0-55.5,0.9l9.2-43C214.3,291.3,227.5,284.6,232.6,272.5L232.6,272.5z M348.2,487.2H163.7
		c2.1-6.1,1.5-9.4,1.5-24.8h181.7C346.8,479.8,346.3,481.6,348.2,487.2L348.2,487.2z M123.9,487.2c-4.6,0-8.3-3.7-8.3-8.3v-57.8
		c0-4.6,3.7-8.3,8.3-8.3h16.5c4.6,0,8.3,3.7,8.3,8.3V479c0,4.6-3.7,8.3-8.3,8.3H123.9z M371.6,412.9h16.5c4.6,0,8.3,3.7,8.3,8.3V479
		c0,4.6-3.7,8.3-8.3,8.3h-16.5c-4.6,0-8.3-3.7-8.3-8.3v-57.8C363.4,416.6,367.1,412.9,371.6,412.9z M346.8,421.2v24.8H165.2
		c0-38.8-2.7-24.8,14.5-66.1h26.8c4.6,0,8.3-3.7,8.3-8.3c0-4.6-3.7-8.3-8.3-8.3h-19.8l5.6-13.4c1.6-2,4-3.2,6.5-3.1h114.5
		c2.5,0,4.9,1.1,6.5,3.1l5.6,13.4h-85.9c-4.6,0-8.3,3.7-8.3,8.3c0,4.6,3.7,8.3,8.3,8.3h92.8C346.8,413.8,346.8,412.3,346.8,421.2z
		 M214.7,156.9h82.6c7,0,13.3,4.5,15.6,11.1l16.5,48.8c1.2,3.5,1.2,7.3,0,10.7l-14.7,38.2c-1,2.8-3.2,5-5.9,6
		c-3.8,1.6-8.1,0.9-11.2-1.8c-3.1-2.7-4.3-6.9-3.2-10.9l11.1-31.7c2.1-6.1,0.8-7.3-7.5-39.7c-1.4-4-5.7-6.3-9.8-5.2
		c-4.1,1-6.8,5.1-6.1,9.3l7.8,30.4c-13,38.3-10.6,30.6-11.4,33.9H234c-3.1-11.5-6.7-22.8-11-33.9l7.8-30.5c1.1-4.4-1.6-8.9-6-10
		c-4.4-1.1-8.9,1.6-10,6l-8.3,30.4c-1.6,6.3-0.5,6.8,11.2,41.3c1.2,3.9,0,8.2-3.1,11c-3.1,2.7-7.5,3.4-11.2,1.8
		c-2.8-1.1-4.9-3.3-5.9-6l-14.7-38.2c-1.2-3.5-1.2-7.3,0-10.7l16.5-48.8C201.4,161.6,207.6,157,214.7,156.9L214.7,156.9z"/>
	<path class="st0" d="M206.5,412.9h-16.5c-4.6,0-8.3,3.7-8.3,8.3s3.7,8.3,8.3,8.3h16.5c4.6,0,8.3-3.7,8.3-8.3S211,412.9,206.5,412.9
		z"/>
	<path class="st0" d="M256,412.9h-16.5c-4.6,0-8.3,3.7-8.3,8.3s3.7,8.3,8.3,8.3H256c4.6,0,8.3-3.7,8.3-8.3S260.6,412.9,256,412.9z"
		/>
	<path class="st0" d="M74.3,305.5c0,4.6,3.7,8.3,8.3,8.3h41.3c4.6,0,8.3-3.7,8.3-8.3c0-4.6-3.7-8.3-8.3-8.3H82.6
		C78,297.3,74.3,301,74.3,305.5z"/>
	<path class="st0" d="M146.3,266.7l-24.8-24.8c-2.1-2.1-5.1-2.9-8-2.1c-2.9,0.8-5.1,3-5.9,5.9c-0.8,2.9,0.1,5.9,2.1,8l24.8,24.8
		c2.1,2.1,5.1,2.9,8,2.1c2.9-0.8,5.1-3,5.9-5.9S148.3,268.7,146.3,266.7L146.3,266.7z"/>
	<path class="st0" d="M134.5,332.7l-24.8,24.8c-3.2,3.2-3.2,8.5,0,11.7c3.2,3.2,8.5,3.2,11.7,0l24.8-24.8c3.2-3.2,3.2-8.5,0-11.7
		C143,329.5,137.8,329.5,134.5,332.7z"/>
	<path class="st0" d="M379.9,305.5c0,4.6,3.7,8.3,8.3,8.3h41.3c4.6,0,8.3-3.7,8.3-8.3c0-4.6-3.7-8.3-8.3-8.3h-41.3
		C383.6,297.3,379.9,301,379.9,305.5z"/>
	<path class="st0" d="M390.5,241.9l-24.8,24.8c-3.2,3.2-3.2,8.5,0,11.7c3.2,3.2,8.5,3.2,11.7,0l24.8-24.8c2.1-2.1,2.9-5.1,2.1-8
		c-0.8-2.9-3-5.1-5.9-5.9C395.7,239,392.6,239.8,390.5,241.9L390.5,241.9z"/>
	<path class="st0" d="M365.7,344.4l24.8,24.8c1.6,1.5,3.7,2.4,5.9,2.4c3.4,0,6.4-2,7.7-5.1c1.3-3.1,0.6-6.7-1.8-9l-24.8-24.8
		c-3.2-3.2-8.5-3.2-11.7,0C362.5,336,362.5,341.2,365.7,344.4L365.7,344.4z"/>
	<path class="st0" d="M154.5,49.5c-6.9-22.8-27.1-38.9-50.9-40.8S57.5,19.9,47.2,41.3C24.3,42,6.4,61,7.1,83.8
		c0.7,22.8,19.7,40.8,42.5,40.1h103.2c20.5,0.5,37.5-15.8,38-36.3C191.3,67.1,175,50,154.5,49.5z M152.8,107.4H49.5
		c-11.9,0-22.1-8.4-24.3-20s4-23.2,15-27.7s23.6-0.5,30.1,9.4c2.6,3.6,7.5,4.5,11.2,2.1s4.9-7.2,2.7-11c-4.8-7.4-11.8-13-20-16.1
		c9.2-14.5,26.4-21.8,43.2-18.4s29.7,16.9,32.5,33.9c0.9,4.4,5,7.2,9.4,6.5c7.4-0.6,14.5,2.7,18.8,8.8c4.2,6.1,4.9,13.9,1.8,20.6
		S160.1,106.7,152.8,107.4z"/>
	<path class="st0" d="M16.5,503.7H33c4.6,0,8.3-3.7,8.3-8.3c0-4.6-3.7-8.3-8.3-8.3H16.5c-4.6,0-8.3,3.7-8.3,8.3
		C8.3,500,12,503.7,16.5,503.7z"/>
	<path class="st0" d="M495.5,487.2H479c-4.6,0-8.3,3.7-8.3,8.3c0,4.6,3.7,8.3,8.3,8.3h16.5c4.6,0,8.3-3.7,8.3-8.3
		C503.7,490.9,500,487.2,495.5,487.2z"/>
</g>
</svg>
