<svg xmlns="http://www.w3.org/2000/svg" viewBox="0 0 679.29 198.71"><defs><style>.cls-1{fill:#acce2d;}.cls-2{fill:#12bc66;}.cls-3{fill:#333;}.cls-4{fill:#777;}</style></defs><title>lc1-logo2</title><g id="Layer_2" data-name="Layer 2"><g id="Layer_1-2" data-name="Layer 1"><path class="cls-1" d="M14.58,157.86s24.76-24.76,67.35-14.34S189.78,181,222.41,156.71c0,0-18.75,21.52-44.21,21.29,0,0-29.62,24.76-69.43,20.13s-63.64-29.62-72.9-44.66C35.87,153.47,28,152.31,14.58,157.86Z"/><path class="cls-1" d="M178.9,20.73c-58.5,38.48-59.67,112.78-59.34,126.91l4.75,1.34c-1.31-46.77,36.77-68.91,36.77-68.91-24.87,28-22.4,63-21.05,73.09,1.93.48,3.87,1,5.8,1.4,4.92-81.47,52.74-98.06,52.74-98.06C158.7,87.73,165.18,146,167.14,158.63a121.35,121.35,0,0,0,28.21,1.11,98.37,98.37,0,0,0-16.45-139Z"/><path class="cls-2" d="M0,23.17A119,119,0,0,1,30.36,54.68,98.42,98.42,0,0,0,30,141.39c10.92-5.1,27.37-9.37,48.44-5C78.47,136.34,79.15,65.52,0,23.17Z"/><path class="cls-2" d="M201.58,7.28s-14.14.66-33,6.41A98.39,98.39,0,0,0,37.77,42.15c50.72,35.69,62.44,91.41,62.44,91.41l.89-7.15a183.07,183.07,0,0,1,8.22-34.65C120.52,61.8,145.53,23.92,201.58,7.28ZM97.2,118.29C91.42,64.21,60.87,39.14,60.87,39.14c35.87,13,42.89,53.77,42.89,53.77Z"/><path class="cls-3" d="M244.4,109.45V60.67A4.48,4.48,0,0,1,249,56.12h27a4.59,4.59,0,0,1,4.55,4.55A4.66,4.66,0,0,1,276,65.3h-22.4V80.43h19.26a4.59,4.59,0,0,1,0,9.18H253.58v15.21H276a4.59,4.59,0,0,1,0,9.18H249.19c-.16,0-.16-.09-.16-.09L249,114A4.53,4.53,0,0,1,244.4,109.45Z"/><path class="cls-3" d="M290.89,84.24c.08-16.38,13.81-29.69,30.34-29.77a30.93,30.93,0,0,1,19.1,6.45,4.74,4.74,0,0,1-5.78,7.52,20.67,20.67,0,0,0-13.32-4.55,21.89,21.89,0,0,0-14.88,6,20.38,20.38,0,0,0-6,14.39,20.09,20.09,0,0,0,6,14.38,21.88,21.88,0,0,0,14.88,5.95A20.82,20.82,0,0,0,334.55,100a5,5,0,0,1,6.61.91,4.87,4.87,0,0,1-.83,6.61,30.93,30.93,0,0,1-19.1,6.45C304.7,114,291,100.69,290.89,84.24Z"/><path class="cls-3" d="M401.22,63.32a30.37,30.37,0,0,1,0,41.83A27.06,27.06,0,0,1,381.46,114a27.9,27.9,0,0,1-20.26-8.85,30.83,30.83,0,0,1,0-41.83,27.6,27.6,0,0,1,20.26-8.85A26.76,26.76,0,0,1,401.22,63.32Zm-1.07,20.92a21.44,21.44,0,0,0-5.62-14.47,17.82,17.82,0,0,0-26.46,0,21,21,0,0,0-5.62,14.47,20.64,20.64,0,0,0,5.62,14.38,17.68,17.68,0,0,0,26.46,0A21.09,21.09,0,0,0,400.15,84.24Z"/><path class="cls-3" d="M450.71,109.45V60.67a4.54,4.54,0,0,1,4.55-4.55,4.61,4.61,0,0,1,4.63,4.55v44.15H482.3a4.59,4.59,0,0,1,0,9.18h-27A4.54,4.54,0,0,1,450.71,109.45Z"/><path class="cls-3" d="M526.81,100.36h-20.1l-4,10.74a4.62,4.62,0,0,1-4.3,2.9,5,5,0,0,1-1.57-.25,4.68,4.68,0,0,1-2.73-6l18.27-48.7a4.62,4.62,0,0,1,4.38-2.89,4.53,4.53,0,0,1,4.39,2.89l18.27,48.7a4.68,4.68,0,0,1-2.73,6,4.57,4.57,0,0,1-1.57.25,4.46,4.46,0,0,1-4.22-2.9Zm-3.4-9.1-6.7-17.78L510,91.26Z"/><path class="cls-3" d="M620.26,63,600,111.19a2.14,2.14,0,0,1-.42.74l-.08.08a2.05,2.05,0,0,1-.41.5c0,.17-.09.17-.09.25a2.83,2.83,0,0,0-.58.41h-.08c-.25.17-.41.41-.74.5h-.09a.08.08,0,0,0-.08.08,2.59,2.59,0,0,0-.66.16h-.17a2.38,2.38,0,0,1-.83.09,2.12,2.12,0,0,1-.74-.09h-.25a2.09,2.09,0,0,0-.57-.16c-.09-.08-.09-.08-.17-.08a1.67,1.67,0,0,1-.74-.5h-.08c-.25-.16-.42-.33-.58-.41s-.09-.08-.17-.25-.25-.33-.33-.5c-.17,0-.17-.08-.17-.08a2.19,2.19,0,0,1-.33-.74L580.82,85.56,570,111.19a5.94,5.94,0,0,1-.33.74.08.08,0,0,0-.08.08l-.5.5c0,.17-.08.17-.08.25a2.51,2.51,0,0,0-.5.41h-.16c-.25.17-.5.41-.66.5h-.09a.08.08,0,0,0-.08.08,1.29,1.29,0,0,0-.66.16h-.25a2.12,2.12,0,0,1-.74.09,2.61,2.61,0,0,1-.83-.09h-.25a2.14,2.14,0,0,0-.58-.16c-.08-.08-.08-.08-.16-.08a2.46,2.46,0,0,1-.75-.5h-.08c-.25-.16-.33-.33-.57-.41s-.09-.08-.17-.25-.25-.33-.41-.5v-.08a5.41,5.41,0,0,1-.42-.74L541.3,63a4.52,4.52,0,0,1,8.35-3.48l16.21,38.28,10.66-25.38a4.56,4.56,0,0,1,4.3-2.81,4.73,4.73,0,0,1,4.3,2.81l10.66,25.38,16.13-38.28a4.58,4.58,0,0,1,6-2.39A4.46,4.46,0,0,1,620.26,63Z"/><path class="cls-3" d="M644.28,109.45a4.5,4.5,0,1,1-9,0V61.33a4.45,4.45,0,0,1,1.81-3.8,4.55,4.55,0,0,1,6.28,1l26.71,37V61.41A4.5,4.5,0,0,1,674.54,57a4.58,4.58,0,0,1,4.56,4.46v48a4.59,4.59,0,0,1-4.56,4.55,4.46,4.46,0,0,1-3.38-1.65,2.27,2.27,0,0,1-.42-.5L644.28,75.14Z"/><path class="cls-4" d="M244.66,158.26V126.73a2.93,2.93,0,0,1,2.94-2.94,3,3,0,0,1,3,2.94v28.54h14.48a3,3,0,0,1,0,5.93H247.6A2.93,2.93,0,0,1,244.66,158.26Z"/><path class="cls-4" d="M309.89,152.39h-13l-2.62,6.94a3.05,3.05,0,0,1-3.79,1.71,3,3,0,0,1-1.77-3.84l11.81-31.48a3,3,0,0,1,2.83-1.87,2.93,2.93,0,0,1,2.84,1.87L318,157.2a3,3,0,0,1-1.76,3.84,3,3,0,0,1-3.75-1.71Zm-2.19-5.88L303.36,135,299,146.51Z"/><path class="cls-4" d="M347.27,158.26a2.92,2.92,0,1,1-5.83,0v-31.1a2.91,2.91,0,0,1,1.18-2.46,2.94,2.94,0,0,1,4.06.64L364,149.23v-22a2.9,2.9,0,0,1,2.88-2.88,3,3,0,0,1,2.94,2.88v31.05a3,3,0,0,1-2.94,2.94,2.91,2.91,0,0,1-2.19-1.06,1.57,1.57,0,0,1-.27-.33l-17.1-23.72Z"/><path class="cls-4" d="M396,158.26V126.73a2.91,2.91,0,0,1,2.94-2.94h6.31a18.71,18.71,0,0,1,0,37.41h-6.31A2.93,2.93,0,0,1,396,158.26Zm5.94-3h3.31a12.78,12.78,0,0,0,0-25.55h-3.31Z"/><path class="cls-4" d="M448.77,151.91a2.78,2.78,0,0,1,3.9-.38c2.36,1.93,6.42,4.17,10.21,4.12a11.53,11.53,0,0,0,6.68-2,4.8,4.8,0,0,0,2.3-3.85,3.08,3.08,0,0,0-.48-1.71,4.93,4.93,0,0,0-1.6-1.6,21.34,21.34,0,0,0-7.32-2.52h-.11a28.88,28.88,0,0,1-6.9-2.08,11.52,11.52,0,0,1-5-4.17,8.21,8.21,0,0,1-1.23-4.38,9.85,9.85,0,0,1,4.28-7.8,15.78,15.78,0,0,1,9.25-2.84c5.13,0,8.92,2.52,11.65,4.28a2.76,2.76,0,0,1,.74,3.8,2.7,2.7,0,0,1-3.79.8c-2.73-1.82-5.34-3.43-8.6-3.43a10.2,10.2,0,0,0-6,1.82,4.27,4.27,0,0,0-2,3.37,2.59,2.59,0,0,0,.37,1.5,5.48,5.48,0,0,0,1.44,1.39,18.6,18.6,0,0,0,6.68,2.35h.11a31.5,31.5,0,0,1,7.38,2.24,12.48,12.48,0,0,1,5.34,4.44,8.68,8.68,0,0,1,1.28,4.54,10.33,10.33,0,0,1-4.59,8.28,16.67,16.67,0,0,1-9.89,3.05c-5.77-.05-10.63-2.94-13.68-5.34A2.84,2.84,0,0,1,448.77,151.91Z"/><path class="cls-4" d="M500,142a19.63,19.63,0,0,1,19.61-19.24A20,20,0,0,1,532,126.89a3.17,3.17,0,0,1,.54,4.28,3.13,3.13,0,0,1-4.28.59,13.29,13.29,0,0,0-8.61-2.94,14.09,14.09,0,0,0-9.61,3.85,13.14,13.14,0,0,0-3.91,9.29,13,13,0,0,0,3.91,9.3,14.09,14.09,0,0,0,9.61,3.85,13.4,13.4,0,0,0,8.61-2.94,3.25,3.25,0,0,1,4.28.59A3.17,3.17,0,0,1,532,157a20,20,0,0,1-12.35,4.16A19.55,19.55,0,0,1,500,142Z"/><path class="cls-4" d="M577.21,152.39h-13l-2.61,6.94A3,3,0,0,1,556,157.2l11.82-31.48a3,3,0,0,1,2.83-1.87,2.92,2.92,0,0,1,2.83,1.87l11.81,31.48a3,3,0,0,1-1.76,3.84,3,3,0,0,1-3.74-1.71ZM575,146.51,570.69,135l-4.33,11.49Z"/><path class="cls-4" d="M621.22,146.67h-6.58v11.59a3,3,0,0,1-5.92,0V126.73a2.93,2.93,0,0,1,2.93-2.94h9.57a11.44,11.44,0,1,1,0,22.88Zm-6.58-5.94h6.58a5.51,5.51,0,1,0,0-11h-6.58Z"/><path class="cls-4" d="M655.94,158.26V126.73a2.9,2.9,0,0,1,2.93-2.94h17.48a3,3,0,0,1,2.94,2.94,3,3,0,0,1-2.94,3H661.86v9.79h12.46a3,3,0,0,1,0,5.93H661.86v9.83h14.49a3,3,0,0,1,0,5.93H659c-.1,0-.1,0-.1,0l-.06,0A2.92,2.92,0,0,1,655.94,158.26Z"/></g></g></svg>