<?xml version="1.0" encoding="utf-8"?>
<!-- Generator: Adobe Illustrator 23.0.1, SVG Export Plug-In . SVG Version: 6.00 Build 0)  -->
<svg version="1.1" id="Capa_1" xmlns="http://www.w3.org/2000/svg" xmlns:xlink="http://www.w3.org/1999/xlink" x="0px" y="0px"
	 viewBox="0 0 512 512" style="enable-background:new 0 0 512 512;" xml:space="preserve">
<style type="text/css">
	.st0{fill:#ACCE2D;}
	.st1{fill:#ACCE2D;stroke:#000000;stroke-width:15;stroke-linecap:round;stroke-linejoin:round;stroke-miterlimit:10;}
</style>
<path class="st0" d="M208.8,412.8c-75.2-20-127.7-88.3-127.7-166.2c0-29.7,7.7-58.9,22.3-84.7c8.2-2.4,30.1-10.3,41.1-29.1
	c13.4-22.9,4.8-52.1,4.5-53.3c-1.1-3.7-5-6-8.8-5.1c-1.3,0.3-30.9,7-44.3,30c-10.9,18.6-7.3,41.4-5.3,49.9
	c-7.5,13.2-13.4,27.3-17.5,41.9c-3.3-6.2-7.7-12.4-13.8-17.3c0,0,0,0,0,0C38.7,162,8.6,166,7.3,166.1c-3.9,0.5-6.7,4-6.4,7.9
	c0.1,1.3,2.2,31.6,22.8,48.4c13.8,11.2,31.8,13.2,42.6,13.2c0.1,0,0.2,0,0.3,0c-0.2,3.7-0.3,7.3-0.3,11c0,16.9,2.3,33.5,6.6,49.3
	c-5.3-3.2-11.3-5.9-17.9-7.2c-26.1-5.1-50.7,12.7-51.8,13.4c-3.2,2.3-4,6.7-1.9,10c0.3,0.4,6.3,10,16.6,18.7
	c3.2,2.6,7.9,2.2,10.5-0.9c2.6-3.2,2.2-7.9-0.9-10.5c-3.7-3.1-6.7-6.3-9-9c7.6-4,20.7-9.4,33.6-6.9c12.9,2.5,23,12.4,28.5,19
	c-6.9,3.7-18.3,8.4-30,7.4c-4.1-0.3-7.7,2.7-8.1,6.8c-0.4,4.1,2.7,7.7,6.8,8.1c1.5,0.1,3,0.2,4.5,0.2c14.2,0,27.1-5.6,34.7-9.8
	c8.8,16.4,20.1,31.5,33.4,44.6c-7-0.1-14.6,0.8-21.8,3.7c-24.7,9.9-35.8,38.2-36.2,39.4c-1.4,3.6,0.2,7.8,3.8,9.4
	c0.8,0.4,15.5,7.2,32.9,7.2c6.6,0,13.7-1,20.5-3.7c16.6-6.6,27.1-21.6,32.3-31.1c15.7,10,33.1,17.7,51.8,22.6c4,1.1,8.3-1.5,9.2-5.6
	C215.1,417.8,212.7,413.8,208.8,412.8z M33.1,210.8C23,202.5,18.7,189,17,180.5c8.6,0,22.7,1.5,32.9,9.8l0,0
	c10.1,8.3,14.4,21.8,16.2,30.2C57.4,220.6,43.3,219.1,33.1,210.8z M108.8,111.9c6.6-11.3,19.3-17.6,27.4-20.6c1.3,8.5,2,22.7-4.6,34
	c-6.6,11.3-19.3,17.6-27.4,20.6C102.9,137.4,102.2,123.2,108.8,111.9z M115.4,421.8c-12.2,4.9-26.1,2-34.3-0.5
	c4.2-7.5,12.3-19.1,24.5-24c12.2-4.9,26.1-2,34.3,0.5C135.7,405.3,127.6,416.9,115.4,421.8z"/>
<path class="st0" d="M508.9,302.1c-1-0.8-25.7-18.5-51.8-13.4c-6.7,1.3-12.7,3.9-17.9,7.2c4.3-15.8,6.6-32.3,6.6-49.3
	c0-3.7-0.1-7.4-0.3-11c0.1,0,0.2,0,0.3,0c6.6,0,15.9-0.7,25.3-3.8c3.9-1.3,6-5.5,4.7-9.5c-1.3-3.9-5.5-6-9.5-4.7
	c-7.4,2.5-14.9,3.1-20.3,3.1c1.7-8.4,6-22,16.2-30.2c10.1-8.3,24.3-9.8,32.9-9.8c-1.2,5.9-3.7,14.3-8.6,21.7
	c-2.3,3.4-1.3,8.1,2.1,10.4c3.4,2.3,8.1,1.3,10.4-2.1c10.8-16.3,12.1-35.7,12.2-36.5c0.2-3.9-2.6-7.3-6.4-7.9
	c-1.3-0.2-31.4-4.2-52,12.6c-6.1,5-10.5,11.1-13.8,17.3c-4.1-14.6-9.9-28.6-17.5-41.9c1.9-8.5,5.6-31.3-5.3-49.9
	c-13.4-22.9-43-29.7-44.3-30c-3.8-0.8-7.6,1.4-8.8,5.1c-0.4,1.2-9,30.4,4.5,53.3c11,18.8,32.9,26.7,41.1,29.1
	c14.6,25.7,22.3,54.9,22.3,84.7c0,77.9-52.5,146.2-127.7,166.2c-3.8,1-6.3,5-5.4,8.9c0.9,4.1,5.2,6.7,9.2,5.6
	c18.7-5,36.1-12.7,51.8-22.6c5.2,9.5,15.6,24.4,32.3,31.1c6.8,2.7,13.8,3.7,20.5,3.7c17.4,0,32.1-6.8,32.9-7.2
	c3.5-1.7,5.2-5.8,3.8-9.4c-0.5-1.2-11.5-29.5-36.2-39.4c-7.3-2.9-14.8-3.8-21.8-3.7c13.3-13.1,24.5-28.1,33.4-44.6
	c7.7,4.2,20.5,9.8,34.7,9.8c3.2,0,6.4-0.3,9.7-0.9c26.1-5.1,42.3-30.8,42.9-31.9C512.9,308.8,512.1,304.4,508.9,302.1z M406.4,397.3
	c12.2,4.9,20.3,16.5,24.5,24c-8.2,2.6-22.1,5.4-34.3,0.5c-12.2-4.9-20.3-16.5-24.5-24C380.3,395.2,394.2,392.4,406.4,397.3z
	 M380.4,125.3c-6.6-11.3-5.9-25.5-4.6-34c8,3,20.8,9.3,27.4,20.6c6.6,11.3,5.9,25.5,4.6,34C399.7,142.9,387,136.6,380.4,125.3z
	 M465.1,329.3c-12.9,2.5-26-2.9-33.6-6.9c5.5-6.6,15.6-16.5,28.6-19c12.9-2.5,26,2.9,33.6,6.9C488.2,316.9,478,326.8,465.1,329.3z"
	/>
<path class="st1" d="M49.8,337.4"/>
<path class="st1" d="M22.5,325"/>
<path class="st0" d="M219.2,98.8c12.3-8.8,26.7-13.5,41.8-13.5c0.8,0,1.6,0,2.4,0c24.5,0.8,45.9,15.3,55.9,37.9
	c10.2,22.9,6.5,49-9.7,68.1l-31.2,36.9c-2.3,2.7-1.9,6.7,0.7,9c2.4,2,6.5,2.1,9-0.7l31.2-36.9c19.3-22.8,23.8-54,11.6-81.5
	c-12-27-37.7-44.5-67.1-45.5c-1,0-1.9,0-2.9,0c-17.8,0-34.8,5.5-49.2,15.9c-2.9,2.1-3.5,6-1.5,8.9S216.4,100.8,219.2,98.8
	L219.2,98.8z"/>
<path class="st0" d="M189.6,255.3c-15,17.7-23.2,40.2-23.2,63.3c0,14.8,10.3,27.3,24.1,30.7v0.9h12.7h102.6h12.7v-0.3
	c15.2-2.2,26.9-15.4,26.9-31.2c0-17.4-14.2-31.6-31.6-31.6h-68.6l26.4-31.1c2.3-2.7,1.9-6.7-0.7-9c-2.7-2.3-6.7-1.9-9,0.7l-34,40.1
	c-4.3,3.5-3,11.9,3.7,12H314c10.4,0,18.8,8.4,18.8,18.8c0,10.4-8.4,18.8-18.8,18.8H198c-10.4,0-18.8-8.4-18.8-18.8
	c0-20.2,7.2-39.7,20.2-55.1L281,167c10.1-12,5.6-24.8,4-28.5c-4.2-9.4-12.7-15.2-22.7-15.5c-0.4,0-0.8,0-1.2,0
	c-18.8,0-34.1,15.3-34.1,34.1c0,10.4-8.4,18.8-18.8,18.8c-10.4,0-18.8-8.4-18.8-18.8c0-15.1,4.6-29.5,13.4-41.8
	c2-2.9,1.4-6.8-1.5-8.9c-2.9-2-6.8-1.4-8.9,1.5c-10.4,14.4-15.8,31.4-15.8,49.2c0,17.4,14.2,31.6,31.6,31.6
	c17.4,0,31.6-14.2,31.6-31.6c0-11.8,9.6-21.4,21.4-21.4c0.3,0,0.5,0,0.8,0c7.1,0.2,10.3,5.1,11.6,8c1.1,2.5,3.1,9-2.1,15.1
	L189.6,255.3z"/>
</svg>
