<?xml version="1.0" encoding="utf-8"?>
<!-- Generator: Adobe Illustrator 23.0.1, SVG Export Plug-In . SVG Version: 6.00 Build 0)  -->
<svg version="1.1" id="Layer_1" xmlns="http://www.w3.org/2000/svg" xmlns:xlink="http://www.w3.org/1999/xlink" x="0px" y="0px"
	 viewBox="0 0 512 512" style="enable-background:new 0 0 512 512;" xml:space="preserve">
<style type="text/css">
	.st0{fill:#ACCE2D;}
</style>
<g>
	<g>
		<path class="st0" d="M195.8,184.4h10c4.1,0,7.5-3.4,7.5-7.5s-3.4-7.5-7.5-7.5h-10c-4.1,0-7.5,3.4-7.5,7.5S191.7,184.4,195.8,184.4
			z"/>
		<path class="st0" d="M202.4,229.6c1.4,2.4,3.9,3.8,6.5,3.8c1.3,0,2.6-0.3,3.7-1l8.7-5c3.6-2.1,4.8-6.7,2.7-10.2s-6.7-4.8-10.2-2.7
			l-8.7,5C201.6,221.5,200.4,226.1,202.4,229.6L202.4,229.6z"/>
		<path class="st0" d="M241.1,268.3c1.2,0.7,2.5,1,3.7,1c2.6,0,5.1-1.3,6.5-3.8l5-8.7c2.1-3.6,0.8-8.2-2.7-10.2
			c-3.6-2.1-8.2-0.8-10.2,2.7l-5,8.7C236.2,261.6,237.5,266.2,241.1,268.3z"/>
		<path class="st0" d="M489.5,467H320.4c-4.1,0-7.5,3.4-7.5,7.5s3.4,7.5,7.5,7.5h169.1c4.1,0,7.5,3.4,7.5,7.5s-3.4,7.5-7.5,7.5h-467
			c-4.1,0-7.5-3.4-7.5-7.5s3.4-7.5,7.5-7.5H288c4.1,0,7.5-3.4,7.5-7.5s-3.4-7.5-7.5-7.5h-141l-0.1-56.1l23.2-21.2
			c5.7,3.8,12.5,5.7,20,5.7c2.2,0,4.5-0.2,6.8-0.5c11.7-1.7,23.3-7.9,32.6-17.3c19.8-20,23.3-48.8,7.6-64.3s-44.5-11.9-64.3,8
			c-9.3,9.4-15.4,21-17.1,32.7c-1.3,9.2,0.1,17.7,4.1,24.6l-13,11.9l-0.1-76.9c4.5-1.4,8.8-4,12.6-7.7c8.7-8.5,13.7-21.8,13.8-36.4
			c0.2-25.5-14.6-45.6-33.7-45.8c-7.5-0.1-14.6,3-20.5,8.8c-8.7,8.5-13.7,21.8-13.8,36.4c-0.2,22.3,11.1,40.4,26.6,44.8l0.1,77.1
			l-12.3-11.1c10.1-16.3,5.2-41-12.5-58.6c-9.4-9.3-21-15.4-32.7-17.1c-12.5-1.8-23.8,1.6-31.6,9.4c-10.5,10.6-12.7,27.6-5.6,44.3
			c1.6,3.8,6,5.6,9.8,4c3.8-1.6,5.6-6,4-9.8c-4.6-11-3.7-21.7,2.4-27.9c4.4-4.4,11.1-6.3,18.8-5.1c8.6,1.2,17.2,5.8,24.3,12.8
			c11.6,11.5,16,27.2,11.6,37.7l-21.9-19.8c-3.1-2.8-7.8-2.5-10.6,0.6c-2.8,3.1-2.5,7.8,0.6,10.6l20.6,18.5
			c-8.1,2.3-18.7,0.2-28.2-6.3c-3.4-2.3-8.1-1.4-10.4,2s-1.4,8.1,2,10.4c9.7,6.6,20.1,9.9,29.8,9.9c6.9,0,13.4-1.7,19-5l23.1,20.8
			l0.1,55.8H22.5C10.1,467,0,477.1,0,489.5S10.1,512,22.5,512h467c12.4,0,22.5-10.1,22.5-22.5S501.9,467,489.5,467L489.5,467z
			 M170.6,356.3c1.2-8.6,5.8-17.2,12.8-24.3c13.8-13.8,33.5-17.5,43.1-8c9.6,9.5,6.1,29.3-7.7,43.1c-7.1,7.1-15.7,11.7-24.2,13
			c-4.7,0.7-9.1,0.3-12.8-1.1l20.3-18.5c3.1-2.8,3.3-7.5,0.5-10.6s-7.5-3.3-10.6-0.5l-20.5,18.7C170.3,364.7,170,360.6,170.6,356.3
			L170.6,356.3z M120.1,269.2c0.1-10.5,3.6-20.1,9.3-25.8c2.1-2.1,5.5-4.5,9.8-4.5h0.1c10.3,0.1,18.9,14.1,18.8,30.7
			c-0.1,10.5-3.6,20.1-9.3,25.8c-2.1,2.1-5.5,4.5-9.8,4.5h-0.1C128.6,299.8,120,285.8,120.1,269.2L120.1,269.2z"/>
		<path class="st0" d="M260.2,212.5c2.2,1.5,4.7,2.3,7.3,2.3c1.5,0,3-0.3,4.4-0.8l19.3-7.2l96.6,16.3c5.6,6,13.3,9.8,21.5,10.3
			c0.8,0.1,1.5,0.1,2.3,0.1c8.6,0,16.8-3.4,22.9-9.5l68-68c6.6-6.6,10.1-15.8,9.4-25.2c-0.7-9.4-5.4-18-12.9-23.6l-18.9-14.2
			c15-23.7,11.7-55.1-8.5-75.3C460.3,6.3,445,0,428.8,0C415,0,402,4.6,391.3,13c-0.6-0.9-1.4-1.7-2.2-2.5c-4.3-4.3-9.9-6.6-15.9-6.6
			c-6,0-11.7,2.3-15.9,6.6l-7.2,7.2c-2.9,2.9-2.9,7.7,0,10.6c2.9,2.9,7.7,2.9,10.6,0l7.2-7.2c1.4-1.4,3.3-2.2,5.3-2.2
			c2,0,3.9,0.8,5.3,2.2c2.2,2.2,2.7,5.4,1.6,8.1c-0.1,0.1-0.1,0.2-0.2,0.4c-0.4,0.8-0.9,1.5-1.5,2.1l-67.9,67.9
			c-2.9,2.9-7.7,2.9-10.6,0c-2.9-2.9-2.9-7.7,0-10.6l38.1-38.1c2.9-2.9,2.9-7.7,0-10.6c-2.9-2.9-7.7-2.9-10.6,0l-38.1,38.1
			c-8.8,8.8-8.8,23,0,31.8c4.4,4.4,10.1,6.6,15.9,6.6c0.7,0,1.4,0,2.1-0.1l42.2,56.1l-57.8-0.8l-19-7.4c-3.8-1.7-8.2-1.4-11.8,0.9
			c-3.6,2.3-5.8,6.2-5.9,10.5l-0.4,26.1C254.8,206.2,256.8,210.1,260.2,212.5L260.2,212.5z M428.8,15c12.2,0,23.7,4.8,32.3,13.4
			c14.9,14.9,17.5,37.9,7,55.6l-72.6-54.6c0.3-0.3,0.6-0.7,1-1C405.1,19.8,416.6,15,428.8,15z M388.5,42.9L490,119.2
			c4,3,6.6,7.7,6.9,12.7c0.4,5-1.5,10-5.1,13.5l-68,68c-3.6,3.6-8.5,5.4-13.5,5.1c-5-0.4-9.5-2.8-12.6-6.8c-0.1-0.1-0.1-0.1-0.2-0.2
			l-76.3-101.4L388.5,42.9z M374.4,205.7l-76.5-12.9l0-5.7l63.2,0.9L374.4,205.7z M270.2,179.6l12.7,5l0,1.8l0,7.5l-13,4.9
			L270.2,179.6z"/>
	</g>
</g>
</svg>
