<?xml version="1.0" encoding="utf-8"?>
<!-- Generator: Adobe Illustrator 23.0.1, SVG Export Plug-In . SVG Version: 6.00 Build 0)  -->
<svg version="1.1" id="Layer_1" xmlns="http://www.w3.org/2000/svg" xmlns:xlink="http://www.w3.org/1999/xlink" x="0px" y="0px"
	 viewBox="0 0 512 512" style="enable-background:new 0 0 512 512;" xml:space="preserve">
<style type="text/css">
	.st0{fill:#ACCE2D;}
</style>
<path class="st0" d="M66.1,252.6c32.9,18.6,61.5,22.1,78.5,22.1c2.3,0,4.3-0.1,6.1-0.2c7.4-0.4,13.4-6,14.4-13.4l12.7-99.6l5.9-7.4
	l43.5,35c29.4,23.6,50.7,35.4,71.2,46.8c18.4,10.2,35.7,19.8,59.9,39.2l92.8,74.6c3.3,2.7,7.4,4.1,11.6,4.1c0.7,0,1.4,0,2-0.1
	c4.9-0.5,9.4-3,12.5-6.8l30.5-37.9c6.4-8,5.2-19.7-2.8-26.2l-32.3-25.9c-3.3-2.6-8-2.1-10.6,1.2s-2.1,8,1.2,10.6l32.3,25.9
	c1.5,1.2,1.8,3.4,0.5,5l-30.5,37.9c-0.8,1-1.8,1.2-2.4,1.3c-0.5,0.1-1.6,0-2.6-0.8l-92.8-74.6c-25.2-20.3-43.1-30.2-62.1-40.7
	c-20-11.1-40.7-22.5-69.1-45.3l-43.5-35L228.1,99l43.5,35c24.7,19.8,42.4,29.6,61.1,40c20.2,11.2,41.1,22.7,70,46l36,28.9
	c1.4,1.1,3.1,1.7,4.7,1.7c2.2,0,4.4-1,5.9-2.8c2.6-3.2,2.1-8-1.2-10.6l-36-28.9c-29.9-24.1-51.4-35.9-72.2-47.4
	c-18.2-10.1-35.3-19.6-59-38.6l-43.5-35l1.7-2.1c6.5-8.1,5.2-20-2.9-26.5l-57.8-46.5c-8.1-6.5-20-5.2-26.5,2.9l-1.7,2.1l-3.3-2.6
	c-3.9-3.1-8.7-4.5-13.7-4c-4.9,0.5-9.4,3-12.5,6.8L90.5,55.3c-6.4,8-5.2,19.7,2.8,26.2l3.3,2.6l-7,8.7L7,173.8c-4.8,4.7-6,12-2.9,18
	C9.7,202.7,27,230.6,66.1,252.6z M102.7,69.7c-1.5-1.2-1.8-3.4-0.5-5l30.5-37.9c0.8-1,1.8-1.2,2.4-1.3c0.5-0.1,1.6,0,2.6,0.8
	l3.3,2.6L106,72.3L102.7,69.7z M17.5,184.5l14.7-14.5c9.2,13,25.9,31.6,53.7,47.2c4.2,2.3,8.4,4.5,12.7,6.5c1,0.5,2.1,0.7,3.2,0.7
	c2.8,0,5.6-1.6,6.8-4.4c1.8-3.8,0.1-8.3-3.6-10c-3.9-1.8-7.8-3.8-11.6-6c-26.9-15.1-42.2-33-50.2-44.8l57.3-56.2
	c0.2-0.2,0.4-0.4,0.6-0.7l62.8-78.1c0.7-0.9,1.8-1.4,2.9-1.4c0.8,0,1.7,0.3,2.4,0.8l57.8,46.5c1.6,1.3,1.9,3.7,0.6,5.3l-62.8,78.1
	c-0.9,1.1-1.4,2.4-1.6,3.8l-8.5,66.3c-7.2-0.6-14.5-1.9-21.9-3.7c-4-1-8.1,1.4-9.2,5.5c-1,4,1.4,8.1,5.5,9.2c8,2,15.9,3.4,23.7,4.1
	l-2.6,20.4c0,0.1-0.1,0.2-0.2,0.2c-11.2,0.6-41.2-0.1-76.4-20c-35.5-20-51-44.8-56-54.6C17.4,184.8,17.4,184.6,17.5,184.5z"/>
<path class="st0" d="M499.2,464.1h-100c-14.6-19.8-22.8-43.9-22.8-69.2v-56.7c0-0.4,0.1-0.7,0.1-1.1c0-10.2-13.2-13.8-34.6-16.3
	c-18.8-2.2-45.4-3.4-77-3.4s-58.3,1.2-77,3.4c-21.3,2.5-34.6,6.1-34.6,16.3c0,0.4,0,0.7,0.1,1.1v43.5h-45.7
	c-1.1-2.2-2.7-4.2-4.7-5.8c-11-8.7-28.2-19-48.2-19s-37.3,10.4-48.2,19c-4.1,3.2-6.4,8.1-6.4,13.3s2.3,10.1,6.4,13.3
	c11,8.7,28.2,19,48.2,19s37.3-10.4,48.2-19c0.1-0.1,0.3-0.2,0.4-0.3c-2.8,5.8-4.8,12.6-4.8,20c0,13.6,7,25.3,12.8,32.6
	c2.6,3.3,6.5,5.2,10.7,5.2h0c4.2,0,8.1-1.9,10.7-5.2c5.8-7.4,12.8-19,12.8-32.6c0-9.8-3.6-18.5-7.8-25.4h15.7
	c-0.6,37-18.8,71.4-49,92.9H15.1v-10.6h79.9c4.2,0,7.5-3.4,7.5-7.5s-3.4-7.5-7.5-7.5H12.8c-7.1,0-12.8,5.8-12.8,12.8V492
	c0,7.1,5.8,12.8,12.8,12.8h486.4c7.1,0,12.8-5.8,12.8-12.8v-15.1C512,469.9,506.3,464.1,499.2,464.1z M264.8,332.5
	c43.3,0,69.4,2.1,83.8,4.4c-13,1.9-37.7,3.8-83.8,3.8c-46.1,0-70.7-1.9-83.8-3.8C195.4,334.6,221.5,332.5,264.8,332.5z M15.8,390.8
	c-0.6-0.5-0.7-1.1-0.7-1.5c0-0.4,0.1-1,0.7-1.5c7.4-5.9,22.4-15.8,38.9-15.8c11.5,0,22.3,4.8,30.2,9.7H62.6c-4.2,0-7.5,3.4-7.5,7.5
	s3.4,7.5,7.5,7.5h22.3c-8,4.9-18.7,9.7-30.2,9.7C38.2,406.6,23.2,396.7,15.8,390.8z M121.9,444c-3.6-4.8-8.4-13-8.4-21.7
	c0-8.8,4.8-16.9,8.4-21.7c3.6,4.8,8.4,13,8.4,21.7S125.5,439.1,121.9,444z M127.9,489.7c25.2-24.1,39.9-57.5,40.4-92.9h17.9
	c4.2,0,7.5-3.4,7.5-7.5c0-4.2-3.4-7.5-7.5-7.5h-17.9v-31.9c5.3,1.3,11.8,2.2,19.5,3c18.3,1.9,44.2,2.9,76.9,2.9s58.6-1,76.9-2.9
	c7.7-0.8,14.3-1.7,19.5-3v45c0,36.1,14.8,70.2,40.5,94.8H127.9z M496.9,489.7h-71.5c-4.6-3.2-8.8-6.8-12.8-10.6h84.4V489.7z"/>
</svg>
