<svg xmlns="http://www.w3.org/2000/svg" viewBox="0 0 77.78 84.9"><defs><style>.cls-1{fill:#c68c06;}.cls-2{fill:#3d4c54;}.cls-3{fill:#3c4c53;}.cls-4{fill:#3b4b52;}.cls-5{fill:#3c4b53;}.cls-6{fill:#3f4f56;}.cls-7{fill:#3c4c54;}.cls-8{fill:#44525a;}.cls-9{fill:#3e4d55;}.cls-10{fill:#384850;}.cls-11{fill:#3b4b53;}.cls-12{fill:#38474f;}.cls-13{fill:#394950;}.cls-14{fill:#394850;}.cls-15{fill:#fefefe;}.cls-16{fill:#ebeff2;}.cls-17{fill:#384951;}</style></defs><title>diy</title><g id="Layer_2" data-name="Layer 2"><g id="Layer_1-2" data-name="Layer 1"><circle class="cls-1" cx="39.48" cy="30.6" r="30.6"></circle></g><g id="Layer_2-2" data-name="Layer 2"><path class="cls-2" d="M48,37.19c0,2.76,0,5.52,0,8.29a.65.65,0,0,0,.32.62l7,5.09a1,1,0,0,1,.45.88c0,3.48,0,7,0,10.45a.93.93,0,0,1-.26.64c-.24.22-.5,0-.72-.14l-6.87-5a1.41,1.41,0,0,0-.73-.24H30.65a1.39,1.39,0,0,0-.76.26c-2.26,1.62-4.5,3.26-6.75,4.89l-.27.2A.51.51,0,0,1,22,62.7c0-.19,0-.39,0-.59,0-3.37,0-6.74,0-10.11a.85.85,0,0,1,.39-.78l7-5a.91.91,0,0,0,.43-.83c0-5.22,0-10.44,0-15.66a8.09,8.09,0,0,1,1-3.92,27.07,27.07,0,0,1,4.64-6.16c1-1,2-2,3-2.92.35-.34.58-.35.92,0a38.47,38.47,0,0,1,7.07,8,9.94,9.94,0,0,1,1.52,3.68,5.61,5.61,0,0,1,.06.92Zm-9.16-19.6c-1,1-2,2-2.93,3A27.37,27.37,0,0,0,31.81,26a7.49,7.49,0,0,0-1,3.88c.06,1.79,0,3.58,0,5.37q0,10.52,0,21v.45H47V29.12a3.79,3.79,0,0,0-.05-.58,9.57,9.57,0,0,0-1.6-3.65,36.41,36.41,0,0,0-4.84-5.75C40,18.63,39.42,18.15,38.82,17.59ZM54.74,61.72c0-3.15,0-6.21,0-9.27a.69.69,0,0,0-.34-.65l-6-4.37a4.2,4.2,0,0,0-.38-.25c0,.11,0,.16,0,.21,0,3,0,6.09,0,9.14a.66.66,0,0,0,.27.46c1.1.83,2.22,1.64,3.34,2.45Zm-31.68,0,.43-.28c2-1.45,4-2.91,6-4.35a.7.7,0,0,0,.34-.66c0-2.91,0-5.83,0-8.75,0-.13,0-.27,0-.45a1.81,1.81,0,0,0-.22.12c-2.1,1.52-4.2,3-6.28,4.58a.68.68,0,0,0-.21.5q0,4.44,0,8.88Z"></path><path class="cls-3" d="M0,83.84a14.77,14.77,0,0,1,4-9.37,2.08,2.08,0,0,1,.21-.21.49.49,0,0,1,.75,0,.48.48,0,0,1,0,.72c-.35.41-.74.81-1.07,1.25a13.42,13.42,0,0,0-2.79,8c0,.46-.19.68-.52.68S0,84.69,0,84.22Z"></path><path class="cls-4" d="M77.78,83.86v.47a.46.46,0,0,1-.48.56c-.37,0-.52-.22-.54-.56s0-.87-.08-1.31a13.46,13.46,0,0,0-3.54-7.77L73,75.06c-.27-.29-.3-.6-.08-.81a.53.53,0,0,1,.84.12A31.56,31.56,0,0,1,76,77.44,13.6,13.6,0,0,1,77.78,83.86Z"></path><path class="cls-5" d="M61.39,68.88a18.58,18.58,0,0,1,8,2.14l.3.16c.29.18.43.43.24.74a.5.5,0,0,1-.73.18c-.66-.32-1.31-.66-2-.93A17,17,0,0,0,60.8,69.9c-.12,0-.27,0-.33,0s-.38-.36-.36-.53.25-.38.44-.44A3.29,3.29,0,0,1,61.39,68.88Z"></path><path class="cls-5" d="M7.84,71.54a1.43,1.43,0,0,1,.37-.38,17.71,17.71,0,0,1,6.24-2.09c.87-.11,1.76-.12,2.65-.19a.51.51,0,0,1,.62.48c0,.3-.24.54-.62.54a17.5,17.5,0,0,0-8.4,2.16C8.25,72.3,7.84,72.11,7.84,71.54Z"></path><path class="cls-6" d="M9.35,62.16c.57,0,1.08,0,1.58,0s.6.15.6.5-.23.53-.58.53H9.35v1.54c0,.42-.19.63-.52.63s-.5-.22-.5-.64,0-1,0-1.53c-.51,0-1,0-1.46,0-.16,0-.38,0-.48-.1s-.27-.4-.21-.52a.71.71,0,0,1,.5-.39c.53,0,1.06,0,1.65,0,0-.55,0-1,0-1.55s.19-.64.5-.64.51.23.52.63Z"></path><path class="cls-7" d="M57.85,23.42h1.57c.34,0,.58.15.58.52s-.25.51-.59.51c-.51,0-1,0-1.58,0,0,.53,0,1,0,1.53a.89.89,0,0,1-.3.58c-.33.23-.72,0-.73-.51s0-1,0-1.6c-.52,0-1,0-1.49,0s-.68-.2-.68-.52.24-.51.68-.51h1.49c0-.51,0-1,0-1.49a.72.72,0,0,1,.12-.47c.12-.12.37-.24.49-.19a.66.66,0,0,1,.4.45,7.2,7.2,0,0,1,0,1.23C57.84,23.1,57.85,23.25,57.85,23.42Z"></path><path class="cls-8" d="M66.22,59.55v1.54c0,.43-.19.63-.52.63s-.51-.2-.51-.63,0-1,0-1.54c-.53,0-1,0-1.53,0a.87.87,0,0,1-.58-.26c-.24-.33,0-.74.46-.76s1.06,0,1.65,0c0-.54,0-1.05,0-1.55s.19-.64.51-.64.51.23.52.64v1.55h1.56c.33,0,.58.1.61.48s-.19.54-.6.55S66.78,59.55,66.22,59.55Z"></path><path class="cls-9" d="M31.89,11.23V9.7c0-.44.2-.67.54-.65s.51.3.51.64c0,.5,0,1,0,1.54h1.54c.41,0,.63.18.62.51s-.22.51-.63.51H32.94c0,.54,0,1,0,1.54a.88.88,0,0,1-.35.59c-.34.19-.67-.09-.68-.54s0-1,0-1.59H30.43c-.48,0-.72-.18-.71-.52s.22-.5.68-.5Z"></path><path class="cls-10" d="M21.89,38.25V36.76c0-.44.19-.69.5-.69s.51.22.52.67v1.51h1.54c.35,0,.62.1.64.5s-.21.53-.66.53H22.91c0,.54,0,1.06,0,1.58,0,.35-.13.57-.49.6s-.52-.22-.53-.61V39.28H20.35c-.35,0-.62-.11-.64-.5s.22-.52.66-.53Z"></path><path class="cls-11" d="M43.63,63.61V60.52c0-.46.17-.69.5-.69s.52.22.52.71v6.18c0,.49-.16.72-.5.73s-.52-.22-.52-.71Z"></path><path class="cls-12" d="M38.38,63.62c0-1,0-2.06,0-3.09,0-.48.17-.71.52-.7s.5.23.5.69q0,3.13,0,6.27c0,.44-.23.7-.57.65s-.46-.28-.46-.6C38.39,65.77,38.38,64.7,38.38,63.62Z"></path><path class="cls-12" d="M33.15,63.65c0-1.06,0-2.12,0-3.17,0-.36.09-.62.49-.65s.52.22.52.62c0,2.13,0,4.26,0,6.39,0,.35-.14.58-.51.61s-.51-.21-.51-.63Z"></path><path class="cls-3" d="M19.83,69.05a17.62,17.62,0,0,1,4.46,1.2.47.47,0,0,1,.28.66c-.14.35-.44.35-.75.26-.94-.3-1.88-.6-2.82-.86-.42-.12-.86-.16-1.29-.24s-.52-.23-.48-.57S19.49,69,19.83,69.05Z"></path><path class="cls-5" d="M57.91,69.06c.39,0,.62.09.65.45s-.17.52-.49.57A17.32,17.32,0,0,0,54,71.15c-.31.13-.61.13-.76-.21a.47.47,0,0,1,.26-.69A17.61,17.61,0,0,1,57.91,69.06Z"></path><path class="cls-5" d="M28.73,73a.51.51,0,0,1-.73.53c-.76-.48-1.51-1-2.25-1.49a.51.51,0,0,1,.54-.86c.77.49,1.52,1,2.27,1.53C28.66,72.82,28.7,73,28.73,73Z"></path><path class="cls-3" d="M49.51,73.67c-.13-.1-.34-.2-.39-.34a.65.65,0,0,1,.1-.57c.74-.54,1.51-1.06,2.3-1.55a.45.45,0,0,1,.65.21.49.49,0,0,1-.15.67l-2.17,1.45A2.24,2.24,0,0,1,49.51,73.67Z"></path><path class="cls-5" d="M43.63,71.06v-1c0-.34.15-.56.49-.56s.53.22.53.57c0,.67,0,1.35,0,2a.47.47,0,0,1-.52.53.48.48,0,0,1-.5-.55Z"></path><path class="cls-13" d="M34.17,71.06v1c0,.34-.14.58-.51.59s-.52-.22-.51-.58v-2a.48.48,0,0,1,.48-.57c.31,0,.52.19.53.56S34.17,70.72,34.17,71.06Z"></path><path class="cls-14" d="M38.39,71.05c0-.35,0-.7,0-1a.51.51,0,0,1,1,0c0,.71,0,1.43,0,2.15a.46.46,0,0,1-.51.49.47.47,0,0,1-.5-.51C38.38,71.76,38.39,71.41,38.39,71.05Z"></path><path class="cls-15" d="M38.82,17.59c.6.56,1.13,1,1.64,1.55a36.41,36.41,0,0,1,4.84,5.75,9.57,9.57,0,0,1,1.6,3.65,3.79,3.79,0,0,1,.05.58V56.73H30.85v-.45q0-10.51,0-21c0-1.79,0-3.58,0-5.37a7.49,7.49,0,0,1,1-3.88,27.37,27.37,0,0,1,4.08-5.37C36.85,19.61,37.83,18.62,38.82,17.59ZM34,32.72a4.9,4.9,0,1,0,5-4.87A4.9,4.9,0,0,0,34,32.72Z"></path><path class="cls-16" d="M54.74,61.72,51.6,59.44c-1.12-.81-2.24-1.62-3.34-2.45a.66.66,0,0,1-.27-.46c0-3.05,0-6.09,0-9.14,0,0,0-.1,0-.21a4.2,4.2,0,0,1,.38.25l6,4.37a.69.69,0,0,1,.34.65C54.73,55.51,54.74,58.57,54.74,61.72Z"></path><path class="cls-16" d="M23.06,61.69v-.41q0-4.44,0-8.88a.68.68,0,0,1,.21-.5c2.08-1.54,4.18-3.06,6.28-4.58a1.81,1.81,0,0,1,.22-.12c0,.18,0,.32,0,.45,0,2.92,0,5.84,0,8.75a.7.7,0,0,1-.34.66c-2,1.44-4,2.9-6,4.35Z"></path><path class="cls-16" d="M68.8,83.86H46.08a6.66,6.66,0,0,1,.43-2.35,10.32,10.32,0,0,1,7.11-6.7A11.82,11.82,0,0,1,66.27,78a8.93,8.93,0,0,1,2.53,5.59C68.81,83.65,68.8,83.74,68.8,83.86Z"></path><path class="cls-16" d="M8.94,83.86a9.92,9.92,0,0,1,4.65-7.67,12.33,12.33,0,0,1,14.81,1,9.59,9.59,0,0,1,3.29,6.11,5,5,0,0,1,0,.57Z"></path><path class="cls-16" d="M32.82,83.86a2.76,2.76,0,0,1,.33-2.49,6.79,6.79,0,0,1,6-2.93,6.71,6.71,0,0,1,5.12,2.49,2.7,2.7,0,0,1,.63,2.93Z"></path><path class="cls-11" d="M34,32.72a4.9,4.9,0,1,1,4.85,4.94A4.89,4.89,0,0,1,34,32.72Zm8.75,0A3.88,3.88,0,0,0,39,28.87a3.88,3.88,0,1,0-.07,7.76A3.85,3.85,0,0,0,42.75,32.76Z"></path><path class="cls-16" d="M42.75,32.76a3.85,3.85,0,0,1-3.87,3.87A3.88,3.88,0,1,1,39,28.87,3.88,3.88,0,0,1,42.75,32.76Z"></path><path class="cls-17" d="M69.88,84.13A10.42,10.42,0,0,0,66,76.24a12.86,12.86,0,0,0-11.16-2.81,11.94,11.94,0,0,0-8.6,6.16,10.32,10.32,0,0,0-.55,1.22c-.93-1.72-3.12-3.48-7.28-3.48A7,7,0,0,0,32.2,81a10.59,10.59,0,0,0-2.54-4,12.76,12.76,0,0,0-10.18-3.76,12.45,12.45,0,0,0-8.76,4.09,10.25,10.25,0,0,0-2.8,6.85c0,.64.12.75.77.75H69.12C69.76,84.9,69.9,84.77,69.88,84.13ZM8.94,83.86a9.92,9.92,0,0,1,4.65-7.67,12.33,12.33,0,0,1,14.81,1,9.59,9.59,0,0,1,3.29,6.11,5,5,0,0,1,0,.57Zm36,0H32.82a2.76,2.76,0,0,1,.33-2.49,6.79,6.79,0,0,1,6-2.93,6.71,6.71,0,0,1,5.12,2.49A2.7,2.7,0,0,1,44.94,83.86Zm23.86,0H46.08a6.66,6.66,0,0,1,.43-2.35,10.32,10.32,0,0,1,7.11-6.7A11.82,11.82,0,0,1,66.27,78a8.93,8.93,0,0,1,2.53,5.59C68.81,83.65,68.8,83.74,68.8,83.86Z"></path></g></g></svg>