<?xml version="1.0" encoding="utf-8"?>
<!-- Generator: Adobe Illustrator 23.0.1, SVG Export Plug-In . SVG Version: 6.00 Build 0)  -->
<svg version="1.1" id="Capa_1" xmlns="http://www.w3.org/2000/svg" xmlns:xlink="http://www.w3.org/1999/xlink" x="0px" y="0px"
	 viewBox="0 0 512 512" style="enable-background:new 0 0 512 512;" xml:space="preserve">
<style type="text/css">
	.st0{fill:#FF796D;}
	.st1{fill:#122C3B;}
</style>
<path class="st0" d="M217.2,428c2.1-1.1,87.1-93.9,87.1-93.9v-69.9l3.6-79.8l-37.2,26.9l-42.1,118.2l-15.1,83.5L217.2,428z"/>
<path class="st1" d="M441.7,270.3c0.3-12.8-4.9-25.3-14.1-34.2l-91.3-88.6c-3.3-3.2-8-4.6-12.6-3.6c-0.6,0.1-1.2,0.3-1.7,0.5
	L209,2.8c-2.6-3.3-7.4-3.8-10.6-1.2c-3.3,2.6-3.8,7.4-1.2,10.6l115.1,144.2l-6.9,18l-70.7,54.4c-4.4,3.4-10.4,4.2-15.6,2.1l-7.5-3.1
	c-11-4.5-22.5-7.8-34.2-9.7l-1.9-34.8c-0.4-7.3-3.4-14.3-8.4-19.7L14.6,2.4C11.8-0.7,7-0.8,4,2.1c-3,2.9-3.2,7.6-0.3,10.7
	l152.5,161.2c2.6,2.7,4.1,6.3,4.3,10.1l1.8,33.8c-7.8,2.2-14.1,8.6-15.7,17l-33.6,169.6c-0.8,4-3.9,7.1-7.8,8l-44.7,9.9
	c-19.3,4.3-32.9,21.1-32.9,41v23.1c0,14.1,11.5,25.6,25.6,25.6H178c9.7,0,19-3.6,26.2-10l221.9-198.1
	C435.8,295.4,441.4,283.1,441.7,270.3L441.7,270.3z M392.2,222.8l-83.1,92.3c-1.8-19.8-1.7-39.8,0.2-59.6l6.9-70.4
	c1.1-0.8,1.9-2,2.4-3.3l8.5-22.1L392.2,222.8z M280.5,212.6l1.9-1.5l-18.2,68.3c-8.1,30.6-10.5,62-7.1,93.5l-36.2,40.2
	c6.6-52,19.9-102.8,39.6-151.4L280.5,212.6z M271,357.5c-1.3-25,1.4-49.8,7.8-74.1l20-75.2l-4.5,45.9c-2.5,25.3-2.1,50.9,1.3,76.1
	L271,357.5z M416.1,292.7L194.2,490.7c-4.5,4-10.2,6.2-16.2,6.2H53.1c-5.8,0-10.5-4.7-10.5-10.5v-6.3h50.4c4.2,0,7.6-3.4,7.6-7.6
	c0-4.2-3.4-7.6-7.6-7.6H42.7v-1.7c0-12.7,8.6-23.5,21-26.2l44.7-9.9c9.8-2.2,17.4-10,19.4-19.8l5.4-27h18.2c4.2,0,7.6-3.4,7.6-7.6
	c0-4.2-3.4-7.6-7.6-7.6h-15.2l3.2-16.3H161c4.2,0,7.6-3.4,7.6-7.6c0-4.2-3.4-7.6-7.6-7.6h-18.6l3.2-16.3h9.4c4.2,0,7.6-3.4,7.6-7.6
	c0-4.2-3.4-7.6-7.6-7.6h-6.4l3.2-16.3h27.6c4.2,0,7.6-3.4,7.6-7.6c0-4.2-3.4-7.6-7.6-7.6h-24.6l6.6-33.1c0.7-3.4,3.6-5.7,7-5.7
	c0.3,0,0.6,0,0.9,0.1c12.6,1.6,24.9,4.9,36.6,9.7l7.5,3.1c10.1,4.2,21.8,2.6,30.5-4.1l12.8-9.9l-10.2,25.2
	c-22.9,56.4-37.4,115.7-42.9,176.3l-27.3,30.3c-1.3,1.5-3.3,2.3-5.3,2.3h-45.8c-4.2,0-7.6,3.4-7.6,7.6c0,4.2,3.4,7.6,7.6,7.6h45.8
	c6.3,0,12.3-2.7,16.5-7.3l28.9-32.1l0,0l186.6-207.3l14,13.6c6.3,6.1,9.7,14.3,9.5,23.1C426.4,278.8,422.7,286.8,416.1,292.7
	L416.1,292.7z"/>
<path class="st1" d="M351.2,312l-13,13.6c-2.9,3-2.8,7.8,0.2,10.7c1.5,1.4,3.3,2.1,5.2,2.1c2,0,4-0.8,5.5-2.3l13-13.6
	c2.9-3,2.8-7.8-0.2-10.7C358.8,308.9,354,309,351.2,312z"/>
<path class="st1" d="M397.3,263.8l-23.7,24.7c-2.9,3-2.8,7.8,0.2,10.7c1.5,1.4,3.3,2.1,5.2,2.1c2,0,4-0.8,5.5-2.3l23.7-24.7
	c2.9-3,2.8-7.8-0.2-10.7C404.9,260.7,400.1,260.8,397.3,263.8z"/>
<path class="st1" d="M180.4,380.3h7.7c4.2,0,7.6-3.4,7.6-7.6c0-4.2-3.4-7.6-7.6-7.6h-7.7c-4.2,0-7.6,3.4-7.6,7.6
	C172.9,376.9,176.3,380.3,180.4,380.3z"/>
<path class="st1" d="M184.5,317.4h9.4c4.2,0,7.6-3.4,7.6-7.6c0-4.2-3.4-7.6-7.6-7.6h-9.4c-4.2,0-7.6,3.4-7.6,7.6
	C176.9,314.1,180.3,317.4,184.5,317.4z"/>
<path class="st1" d="M291.1,60.7h44.5c4.2,0,7.6-3.4,7.6-7.6s-3.4-7.6-7.6-7.6h-44.5c-4.2,0-7.6,3.4-7.6,7.6S286.9,60.7,291.1,60.7z
	"/>
<path class="st1" d="M372.7,60.7h11.5c4.2,0,7.6-3.4,7.6-7.6s-3.4-7.6-7.6-7.6h-11.5c-4.2,0-7.6,3.4-7.6,7.6S368.5,60.7,372.7,60.7z
	"/>
<path class="st1" d="M456.8,111.7c0-4.2-3.4-7.6-7.6-7.6h-83c-4.2,0-7.6,3.4-7.6,7.6s3.4,7.6,7.6,7.6h83
	C453.5,119.3,456.8,115.9,456.8,111.7z"/>
<path class="st1" d="M502.8,329.4h-45.4c-4.2,0-7.6,3.4-7.6,7.6c0,4.2,3.4,7.6,7.6,7.6h45.4c4.2,0,7.6-3.4,7.6-7.6
	C510.4,332.8,507,329.4,502.8,329.4z"/>
<path class="st1" d="M395.6,412.9h-45.5c-4.2,0-7.6,3.4-7.6,7.6c0,4.2,3.4,7.6,7.6,7.6h45.5c4.2,0,7.6-3.4,7.6-7.6
	C403.2,416.3,399.8,412.9,395.6,412.9z"/>
<path class="st1" d="M439.7,412.9h-10.5c-4.2,0-7.6,3.4-7.6,7.6c0,4.2,3.4,7.6,7.6,7.6h10.5c4.2,0,7.6-3.4,7.6-7.6
	C447.2,416.3,443.8,412.9,439.7,412.9z"/>
</svg>
