<?xml version="1.0" encoding="utf-8"?>
<!-- Generator: Adobe Illustrator 23.0.1, SVG Export Plug-In . SVG Version: 6.00 Build 0)  -->
<svg version="1.1" id="Capa_1" xmlns="http://www.w3.org/2000/svg" xmlns:xlink="http://www.w3.org/1999/xlink" x="0px" y="0px"
	 viewBox="0 0 480 480" style="enable-background:new 0 0 480 480;" xml:space="preserve">
<style type="text/css">
	.st0{fill:#FF796D;}
	.st1{fill:#122C3B;}
</style>
<polygon class="st0" points="132.2,220.5 133.7,295.7 143.5,311.4 280.5,311.4 293.4,301.2 293.4,217.1 259,209.7 260.1,235.5 
	212.8,248 167,239.6 162.7,212.1 "/>
<g>
	<g>
		<path class="st1" d="M452,104h-32c-4.4,0-8,3.6-8,8v8c0-4.4-3.6-8-8-8h-24c-4.2,0-7.7,3.3-8,7.5l-0.6,8.5H356v-16c0-4.4-3.6-8-8-8
			h-32c-4.4,0-8,3.6-8,8v48c0,4.4,3.6,8,8,8h32c4.4,0,8-3.6,8-8v-16h14.4l-4.4,65.4c-0.7,8.3-7.7,14.6-16,14.6H300v-3.4
			c0-3.1-1.8-5.9-4.6-7.2c-10.8-5.1-22.3-8.6-34.1-10.5c-1.3-0.2-2.6-0.1-3.8,0.4c-4.4-1.3-8.9-2.3-13.5-2.8v-21.8
			c2.4-1.2,4.7-2.6,6.9-4.1c26.9-18.8,49.1-37.7,49.1-78.3V88c0-24.3-10.1-47.6-27.8-64.2C241-5.2,193.6-8,159.2,17.1
			C124.5,10.9,91.3,34,85,68.7c-0.7,3.7-1,7.5-1,11.2v120c0,4.4,3.6,8,8,8c30.6,0.1,60-11.7,82.1-32.9c1.9,1.3,3.9,2.4,5.9,3.5v21.8
			c-4.6,0.5-9.1,1.5-13.5,2.8c-1.2-0.4-2.5-0.6-3.8-0.4c-11.8,1.9-23.3,5.4-34.1,10.5c-2.8,1.3-4.6,4.1-4.6,7.2v0.3
			c-30.3,34-47.3,77.7-48,123.2c0,21.9,1,47.2,7.5,64H68v-16c0-4.4-3.6-8-8-8H28c-4.4,0-8,3.6-8,8v48c0,4.4,3.6,8,8,8h32
			c4.4,0,8-3.6,8-8v-16h45.7c-9,17.3-13.7,36.5-13.7,56h16c0-13.8,2.8-27.4,8-40.1v0.1c0,4.4,3.6,8,8,8h32c4.4,0,8-3.6,8-8v-32
			h100.2l4.6,5.8c15,18.8,23.2,42.2,23.2,66.2h16c0-27.7-9.5-54.6-26.7-76.2l-6.1-7.6l-3.1-9.2c-7.4-22.4-6.7-46.7,2-68.6l0.4-1.1
			c9.9-3.1,16.9-12,17.5-22.4v-0.3l86.7-18.6c14.7-3.2,25.2-16.2,25.3-31.3V160c0,4.4,3.6,8,8,8h32c4.4,0,8-3.6,8-8v-48
			C460,107.6,456.4,104,452,104z M340,152h-16v-32h16V152z M52,432H36v-32h16V432z M114,404.6l0.6,3.4h-13.3
			c-4.6-6.4-9.3-22.9-9.3-64c0.7-35.2,11.8-69.5,32-98.4v48.6C113.4,318.1,109.9,380.3,114,404.6z M207.2,16.1
			c37.9-2.6,71.3,24.9,76.2,62.6l-43.8-21.9c-1.5-0.8-3.3-1-5-0.7l-92.9,16.4C148.2,41,175.1,17.9,207.2,16.1z M100,191.7V80
			c0-24.8,18.9-45.5,43.6-47.8C130.8,48,123.9,67.7,124,88v8.2c0,34.3,15.9,53.1,37,69.5C144.1,180.8,122.6,190,100,191.7z
			 M140,96.2V89l94.8-16.7L284,96.9c-0.2,29.8-13.8,44.6-42.2,64.5c-17.9,12.4-41.6,12.4-59.4,0C153.6,141.4,140,126.5,140,96.2z
			 M172,218.1c5.2-1.4,10.6-2.2,16-2.2c4.4,0,8-3.6,8-8v-23.3c10.5,2.8,21.5,2.8,32,0V208c0,4.4,3.6,8,8,8c5.4,0,10.8,0.7,16,2.2
			v12.8l-40,8.6l-40-8.6V218.1z M128.5,384.9c-0.5-23.9,1.6-47.8,6.2-71.3c2.1,1.4,4.3,2.6,6.7,3.6c8.1,21.5,8.4,45.1,1,66.8H132
			C130.8,384,129.6,384.3,128.5,384.9z M156,432h-16v-32h16V432z M172,392c0-4.4-3.6-8-8-8h-4.8c6.1-20.9,6.1-43.1,0-64h105.3
			c-7.5,23.4-7.4,48.7,0.4,72H172z M284,294.8c0,4.3-6.8,9.2-16,9.2H156c-9.2,0-16-4.9-16-9.2v-69c5.2-2.1,10.5-3.9,16-5.2v16.9
			c0,3.8,2.6,7,6.3,7.8l48,10.3c1.1,0.2,2.3,0.2,3.4,0l48-10.3c3.7-0.8,6.3-4.1,6.3-7.8v-16.9c5.5,1.3,10.8,3.1,16,5.2L284,294.8
			L284,294.8z M383.3,260.2L300,278.1V240h50.1c16.6,0.1,30.5-12.7,31.9-29.3l5.5-82.7h8.5v116.6l0,0
			C396,252.1,390.7,258.6,383.3,260.2z M444,152h-16v-32h16V152z"/>
	</g>
</g>
</svg>
