<?xml version="1.0" encoding="utf-8"?>
<!-- Generator: Adobe Illustrator 23.0.1, SVG Export Plug-In . SVG Version: 6.00 Build 0)  -->
<svg version="1.1" id="Layer_1" xmlns="http://www.w3.org/2000/svg" xmlns:xlink="http://www.w3.org/1999/xlink" x="0px" y="0px"
	 viewBox="0 0 512 512" style="enable-background:new 0 0 512 512;" xml:space="preserve">
<style type="text/css">
	.st0{fill:#FF796D;}
	.st1{fill:#122C3B;}
</style>
<path class="st0" d="M415,64c0,0,23.9-20.3,24.7-20.3c0.8,0,28.4,2.5,28.4,2.5l13.5,24.3l-3.5,29l-64.7,60.7l-69.9-67.5l-1.2-22.9
	l10-15.3L378.1,40l20.9,6.3L415,64z"/>
<path class="st1" d="M407.3,167.7c1.7,1.7,3.8,2.5,6,2.5s4.4-0.8,6-2.5l59.3-59.3c17-17,17-44.6,0-61.6c-17-17-44.6-17-61.6,0
	l-3.7,3.7l-3.7-3.7c-17-17-44.6-17-61.6,0c-8.2,8.2-12.8,19.2-12.8,30.8s4.5,22.6,12.8,30.8L407.3,167.7z M360.1,58.8
	c5.2-5.2,12-7.8,18.8-7.8s13.6,2.6,18.8,7.8l9.7,9.7c1.6,1.6,3.8,2.5,6,2.5c2.3,0,4.4-0.9,6-2.5l9.7-9.7c10.4-10.4,27.2-10.4,37.6,0
	s10.4,27.2,0,37.6l-53.3,53.3l-53.3-53.3c-5-5-7.8-11.7-7.8-18.8C352.3,70.5,355.1,63.9,360.1,58.8z"/>
<path class="st1" d="M493.1,493.7c-72.7,8.1-130.4-24.1-131-24.5c-2-1.1-4.3-1.4-6.5-0.8c-0.9,0.2-92.4,24.8-166.1,8.4
	c-45.9-10.2-89.3-42.6-120.9-66.2c-4.3-3.2-8.3-6.2-12.1-8.9c-5.2-3.8-13.4-6.9-20.6-9.7c-3.3-1.2-7.7-2.9-8.7-3.5
	c-0.8-0.6-1.3-1.6-1.3-2.7V366c0.4-15.6,65.9-255.8,76-286.3c0.3-0.4,1.2-1.1,1.9-1.4l129.5-59.2l41.9,54.5c2.1,2.8,1.9,6.8-0.5,9.4
	l-41.4,46.4c-2.7,3-7.3,3.4-10.1,1l-16.7-15.4c-2-1.8-4.8-2.4-7.4-1.9c-2.6,0.5-5,2.3-6.2,4.7c-1.4,2.8-14.1,6.1-27,6.2l-4.2-0.4
	c-3.4-0.4-6.6,1.4-8.3,4.3c-1.7,3-1.4,6.6,0.7,9.3c3.6,4.6,6.4,8.4,8,10.5l8.3,140.8c-5.1,20-9.8,25.7-11,26.8c-3.4,1.1-6,4.3-6,8.1
	c0,4.7,3.8,8.5,8.5,8.5c9.7,0,17.9-12.7,24.4-37.4c67.7-50.6,126.8-2.8,131.4,1.1c21.5,21.6,22.8,35.9,22.9,36.5
	c0.1,4.6,3.9,8.3,8.5,8.3c4.7,0,8.5-3.8,8.5-8.5c0-2-0.7-18.8-22.7-43c20.8-25.5,44.4-40.3,70.5-43.5c44.9-5.5,82.7,24.7,83,25
	c3.6,3,9,2.4,12-1.2c3-3.6,2.4-9-1.2-12c-1.8-1.4-43.6-35.1-95.7-28.7c-30.5,3.7-57.9,20.2-81.5,49.1c-19.2-13-74.1-42.5-135.5-3.9
	l-7.6-129.5c-0.1-1.4-0.5-2.8-1.2-3.9c7.6-0.9,16.7-2.9,23.3-7.2l11,10.1c10.2,8.6,25.2,7.5,34-2.4l41.4-46.4
	c7.6-8.6,8.3-21.5,1.4-30.9L242.9,3.3c-2.4-3.1-6.7-4.2-10.3-2.6L97,62.7c-1.4,0.6-8.6,4.1-11,11.2c-4.8,14.5-77,272-77,292v19.8
	c0,6.3,2.8,12.2,7.8,16.1c2.5,1.9,6.2,3.4,13.1,6c5.6,2.2,13.3,5.1,16.6,7.5c3.7,2.7,7.7,5.7,11.9,8.8
	c32.9,24.6,77.9,58.2,127.4,69.2c70.5,15.7,153.2-3.3,171-7.7c11.8,6.1,55.3,26.3,112.2,26.3c8.4,0,17.1-0.4,26-1.4
	c4.7-0.5,8-4.7,7.5-9.4C502,496.5,497.8,493.1,493.1,493.7z"/>
<path class="st1" d="M451.5,390.5c-0.5-4.3-4.1-7.6-8.5-7.6c-4.7,0-8.5,3.8-8.5,8.5c0,5.7,4.2,24.9,58.2,33.9
	c0.5,0.1,0.9,0.1,1.4,0.1c4.1,0,7.7-2.9,8.4-7.1c0.8-4.6-2.4-9-7-9.8C457.7,402.3,452,391.7,451.5,390.5z"/>
<path class="st1" d="M288.1,434.2c-111.5,23.9-159.2-52.4-161.1-55.6c-2.4-4-7.6-5.3-11.7-2.9c-4,2.4-5.3,7.6-2.9,11.7
	c0.6,0.9,14.1,23.2,43.1,42.1c20,13,50.4,26.3,91.5,26.3c13.7,0,28.6-1.5,44.7-4.9c4.6-1,7.5-5.5,6.5-10.1
	C297.2,436.2,292.7,433.2,288.1,434.2z"/>
</svg>
