<?xml version="1.0" encoding="utf-8"?>
<!-- Generator: Adobe Illustrator 23.0.1, SVG Export Plug-In . SVG Version: 6.00 Build 0)  -->
<svg version="1.1" id="Layer_1" xmlns="http://www.w3.org/2000/svg" xmlns:xlink="http://www.w3.org/1999/xlink" x="0px" y="0px"
	 viewBox="0 0 512 512" style="enable-background:new 0 0 512 512;" xml:space="preserve">
<style type="text/css">
	.st0{fill:#FF796D;}
	.st1{fill:#122C3B;}
</style>
<path class="st0" d="M216.7,264.6c1.6,0.6,35,28.8,35,28.8l16-17.6l9.2,15.8l41.3-17l1.4-42.6l-14.9-29.8l-65.1,5.5L216.7,264.6z"/>
<g id="Out_line">
	<path class="st1" d="M494.1,410.8c-1.5-1.8-3.8-2.8-6.1-2.8h-48c-4.4,0-8,3.6-8,8H220.9l10.2-20.4c0.1-0.3,0.2-0.5,0.3-0.8l0,0
		l24-64c0.6-1.7,0.7-3.6,0.1-5.3l-6.4-19.3l16.9-16.9l8.3,19.3c5,11.5,15,20,27.1,23l76.6,19.2l8.5,21.3c4.8,12,16.4,19.9,29.4,19.9
		c4.4,0,8-3.6,8-8v-64c0-4.4-3.6-8-8-8h-29.2L349,281.8c-1.4-1.1-3.2-1.8-5-1.8h-16v-12.2c0-24.2-5.6-48.2-16.2-70l-1.8-17.5
		c12.7-3.9,19.7-17.4,15.8-30c-0.6-1.8-1.4-3.6-2.3-5.2l-28.4-47.4c-4.6-7.8-12.6-13-21.6-14.2c-1.8-0.7-3.7-1.1-5.7-1.4l-4-12
		l-7.9-47.4c-0.6-3.9-4-6.7-7.9-6.7h-64c-4.4,0-8,3.6-8,8c0,13.1,8,24.9,20.2,29.7l-3.3,6.7c-1.5,3.1-0.9,6.8,1.5,9.2l7.1,7.1
		l7.4,14.8c1.4,2.7,4.1,4.4,7.2,4.4h8v8c-1.9,3.5-3.2,7.2-4,11c-0.5,2.7-1,5.4-1.3,8.2l-2.8-0.9V112c0-3.4-2.2-6.5-5.5-7.6l-24-8
		c-3.8-1.3-7.9,0.5-9.7,4l-16,32c-2,4-0.4,8.8,3.6,10.7c0,0,0,0,0,0l44.7,22.4l7.1,28.4c1.1,4.2,5.3,6.8,9.6,5.9l4-0.9l1.9,8.4
		l-26.7,66.9c-3.2,7.9-5.2,16.2-5.9,24.7l-6.3,69.1h-14.8c-14,0-26.8,7.9-33,20.4c-1.9,3.8-0.5,8.4,3.2,10.5l29.8,17.1H102l48-160
		h42c13.3,0,24-10.7,24-24s-10.7-24-24-24h-44.7l-69.7-69.7c-3.1-3.1-8.2-3.1-11.3,0l-32,32c-3.1,3.1-3.1,8.2,0,11.3c0,0,0,0,0,0
		l68.6,68.6L53.2,416H24c-4.4,0-8,3.6-8,8v32c0,4.4,3.6,8,8,8h6.5L24,485.7c-1.3,4.2,1.1,8.7,5.4,10c0.7,0.2,1.5,0.3,2.3,0.3H464
		c8.8,0,16-7.2,16-16c0-2.8-0.7-5.6-2.1-8h2.2c3.9,0,7.2-2.8,7.9-6.7l8-48C496.3,415,495.6,412.6,494.1,410.8z M220,379.8l-11.7-7.8
		l6.5-71.6c0.6-6.9,2.3-13.8,4.9-20.2l0.9-2.2l18.9,15.2l-5.2,5.2c-2.1,2.1-2.9,5.3-1.9,8.2l7.1,21.3L220,379.8z M281.3,248.8
		c-3.3,5-7.1,9.6-11.3,13.8L251,281.7l-24.1-19.3l18.8-47.1l53.6-6.7c8.3,18.4,12.6,38.3,12.7,58.4l-31.3,15.6l-2.4-5.7l3.1-3.1
		c5-5,9.4-10.4,13.3-16.3L281.3,248.8z M392,328h16v45.8c-3-1.8-5.2-4.4-6.5-7.6l-9.5-23.7V328z M341.2,296l34.8,27.8v9.9
		l-70.7-17.7c-7.3-1.8-13.3-6.9-16.2-13.8l-2.1-4.8l25-12.5v3.1c0,4.4,3.6,8,8,8H341.2z M234.7,145.3c-1.1-9.1-0.8-18.3,1-27.2
		c0.7-3.7,2.3-7.1,4.7-10c-2.3,14,5.6,27.7,18.9,32.7l5.9,2.2l4,3.4c-4.5,1.2-8.9,2.7-13.1,4.7l-12.5-6.2c-1.9-0.9-4.1-1.1-6.1-0.4
		L234.7,145.3z M241.2,32l2.8,16.7l-6.3-6.3c-1.5-1.5-3.5-2.3-5.7-2.3h-24c-5.7,0-11-3.1-13.9-8H241.2z M220.9,80l-5.8-11.6
		c-0.4-0.8-0.9-1.5-1.5-2.1l-3.9-3.9l3.2-6.4h15.7L249,76.3l2.5,7.6L251,84c-3.8,0.8-7.5,2.1-11,3.9c0-4.4-3.6-8-8-8H220.9z
		 M188.1,113.8l11.9,4V128c0,3.4,2.2,6.5,5.5,7.6l12.7,4.2c0.2,3.6,0.5,7.1,1.1,10.7l-2.6,0.9l-37.9-18.9L188.1,113.8z M225.6,165.2
		l13.8-4.6l13,6.5c2.3,1.1,4.9,1.1,7.2,0l1.7-0.8c8.3-4.1,17.5-6.3,26.7-6.3c4.4,0,8-3.6,8-8c0-2.3-1-4.6-2.8-6.1l-18.7-16
		c-0.7-0.6-1.5-1.1-2.4-1.4l-7.3-2.7c-7.1-2.7-10.7-10.6-8-17.7c1.6-4.2,5.1-7.4,9.5-8.5h0c5.8-1.5,12,1.1,15,6.2l28.4,47.4
		c2.3,3.8,1,8.7-2.7,11c-0.7,0.4-1.5,0.7-2.3,0.9l-74.9,17.3L225.6,165.2z M294.4,184l0.9,9.1l-49,6.1l-0.9-3.9L294.4,184z
		 M177.9,384h19.7l16.1,10.7l-9.1,18.1l-40.9-23.4C167.6,385.9,172.6,384,177.9,384z M432,432v16H92.4l4.8-16H432z M95.9,464H180
		l12,16H91.1L95.9,464z M75.6,448H60.4L118,256h15.3L75.6,448z M152,224h40c4.4,0,8,3.6,8,8s-3.6,8-8,8h-40V224z M72,155.3l64,64
		V240h-20.7l-64-64L72,155.3z M41.3,448H32v-16h16.4l-4.8,16H41.3z M74.4,480h-32l4.8-16h32L74.4,480z M212,480l-12-16h124l12,16
		H212z M464,480H352c0-3.5-1.1-6.8-3.2-9.6L344,464h88c0,4.4,3.6,8,8,8h18L464,480z M473.2,456H448v-32h30.6L473.2,456z"/>
</g>
</svg>
