<?xml version="1.0" encoding="utf-8"?>
<!-- Generator: Adobe Illustrator 23.0.1, SVG Export Plug-In . SVG Version: 6.00 Build 0)  -->
<svg version="1.1" id="Layer_1" xmlns="http://www.w3.org/2000/svg" xmlns:xlink="http://www.w3.org/1999/xlink" x="0px" y="0px"
	 viewBox="0 0 512 512" style="enable-background:new 0 0 512 512;" xml:space="preserve">
<style type="text/css">
	.st0{fill:#FF796D;}
	.st1{fill:#122C3B;}
</style>
<path class="st0" d="M32.3,230l16.4,44.2l61.4,40.3c0,0,74.7,16,76.7,16c2,0,137.3-100.6,137.3-100.6l71.7-72.4L327,186.1
	l-92.7,10.6l-89.6-5.9l-68.5-26.6l-33.5-34.8L32.3,113V230z"/>
<g id="Page-1">
	<g transform="translate(0 -1)">
		<path id="Shape" class="st1" d="M326.5,6.2c-31.9-3.8-64-5.5-96.1-5.2C115.6,1,25.6,46,25.6,103.4v136.5
			c0,45.9,57.9,84.6,143.1,97.7c-23.8,17.2-49,34.9-75.6,53.2c-4.5,3.1-7.2,8-7.4,13.4c-0.2,5.4,2.2,10.6,6.4,13.9l113.9,91.1
			c6,4.8,14.5,5,20.8,0.5c19.1-13.9,37.7-28.4,55.8-43.3c17.6-14.5,34.7-29.4,51.2-44.7c0.1-0.1,0.2-0.1,0.3-0.2l0.1-0.1
			c16.2-14.9,31.6-30.1,46.5-45.5c0.2-0.2,0.4-0.2,0.6-0.4s0.1-0.3,0.2-0.4c10.9-11.3,21.5-22.7,31.5-34.2
			c28.4-32.6,63.8-73.2,70.6-123.2c6.9-51-2.6-126.5-52-171.7C400.7,17.7,361.1,10.6,326.5,6.2L326.5,6.2z M230.4,18.1
			c101.8,0,187.7,39.1,187.7,85.3c0,55.3-110.1,85.3-187.7,85.3c-101.8,0-187.7-39.1-187.7-85.3S128.6,18.1,230.4,18.1z M42.7,239.9
			V145c31.3,36.1,102.7,60.8,187.7,60.8c44.9,0.7,89.4-7.2,131.3-23.3c-52.4,48.3-107.6,93.4-165.5,135v-43.5c0-4.7-3.8-8.5-8.5-8.5
			c-4.7,0-8.5,3.8-8.5,8.5v47.8c-14.4-1.9-28.6-4.7-42.7-8.5v-47.8c0-4.7-3.8-8.5-8.5-8.5s-8.5,3.8-8.5,8.5v42.7
			c-11.8-4-23.2-9-34.1-15v-53.3c0-4.7-3.8-8.5-8.5-8.5s-8.5,3.8-8.5,8.5V282C52.1,269.4,42.7,254.9,42.7,239.9L42.7,239.9z
			 M216.7,495.9l-113.9-91.1c13-8.9,26.9-18.6,41.4-28.8c7.5,4.8,16.5,6.7,25.3,5.4c5.5-1.2,11.3,0,15.9,3.3c4.6,3.3,7.6,8.4,8.2,14
			c3.4,19.8,22,33.3,41.9,30.3c5.5-1.1,11.3,0.1,15.8,3.4c4.6,3.3,7.5,8.4,8.2,14c1,4.5,2.6,8.9,4.8,12.9
			C248.8,471.9,233,484.1,216.7,495.9L216.7,495.9z M466.7,215.4c-2,13.5-6,26.6-12.1,38.8l-12.1-17.1c-2.7-3.8-8.1-4.7-11.9-2
			c-3.8,2.7-4.7,8.1-2,11.9l17,23.9c-8.2,13.2-17.4,25.8-27.4,37.8l-23.7-27.2c-2-2.3-5.1-3.4-8.1-2.8c-3,0.6-5.5,2.7-6.4,5.6
			c-1,2.9-0.3,6.1,1.7,8.4l25.4,29.1c-2.3,2.6-4.5,5.2-6.7,7.8c-8.3,9.5-17.1,19-26,28.5l-35.8-30.7c-2.3-2.1-5.6-2.8-8.5-1.8
			c-3,1-5.1,3.5-5.7,6.6c-0.5,3.1,0.7,6.2,3.1,8.1l35.1,30.1c-11.2,11.5-22.9,22.8-34.9,34L287.1,370c-2.3-2-5.5-2.6-8.4-1.6
			c-2.9,1-5,3.5-5.5,6.5s0.5,6.1,2.8,8l38.8,33.2c-11.9,10.9-24.4,21.5-37,32c-0.7-1.9-1.3-3.9-1.8-5.9c-3.4-19.8-22-33.2-41.9-30.2
			c-5.5,1.1-11.3-0.1-15.9-3.4c-4.6-3.3-7.6-8.4-8.2-14c-3.4-19.8-22-33.2-41.9-30.1c-2.6,0.3-5.1,0.3-7.7,0
			c97.1-69.1,213.1-158.4,256.9-218.7c10.7-11.3,17-26,17.8-41.4c0.4-26.8-18.4-48.1-40.9-63c9.4,4.5,18.1,10.3,25.8,17.3
			C461.8,96.7,473.5,164.8,466.7,215.4L466.7,215.4z"/>
		<path class="st1" d="M230.1,154.6c34.9,0,93.2-10,108.2-41.6c10.2-21.5-7.5-43.5-27.4-57c-18.8-11.9-39.5-20.5-61.2-25.4
			c-6.6-1.7-13.7-0.3-19.2,3.7c-3.4,2.4-6.1,5.8-7.8,9.6C163.4,45.7,119.5,69,119.5,99.1C119.5,139.4,186.7,154.6,230.1,154.6
			L230.1,154.6z M292.8,127.3l3.1-60.6c1.9,1.1,3.7,2.3,5.5,3.5C333.4,91.8,332.7,112.3,292.8,127.3L292.8,127.3z M237.7,52.9v-0.2
			c0.1-1.9,1.1-3.6,2.6-4.7c1.5-1.1,3.3-1.4,5.1-1c11.5,2.9,22.8,6.6,33.8,11.2l-3.7,74.3c-14.4,3.3-29.1,5-43.8,5L237.7,52.9z
			 M220,61l-5.5,75.9c-47-3.4-78-21.7-78-37.8C136.5,82.3,170.4,63.4,220,61z"/>
		<path class="st1" d="M256,86.3c-4.7,0-8.5,3.8-8.5,8.5v8.5c0,4.7,3.8,8.5,8.5,8.5s8.5-3.8,8.5-8.5v-8.5
			C264.5,90.2,260.7,86.3,256,86.3z"/>
		<path class="st1" d="M167.5,412.5c-3.7-2.9-9.1-2.3-12,1.3c-2.9,3.7-2.3,9.1,1.3,12l42.7,34.1c3.7,2.9,9.1,2.3,12-1.3
			c2.9-3.7,2.3-9.1-1.3-12L167.5,412.5z"/>
	</g>
</g>
</svg>
