<?xml version="1.0" encoding="utf-8"?>
<!-- Generator: Adobe Illustrator 23.0.1, SVG Export Plug-In . SVG Version: 6.00 Build 0)  -->
<svg version="1.1" id="Capa_1" xmlns="http://www.w3.org/2000/svg" xmlns:xlink="http://www.w3.org/1999/xlink" x="0px" y="0px"
	 viewBox="0 0 512 512" style="enable-background:new 0 0 512 512;" xml:space="preserve">
<style type="text/css">
	.st0{fill:#FF796D;}
	.st1{fill:#122C3B;}
</style>
<polygon class="st0" points="345.6,398.2 375.9,358.5 330.3,348.5 292.6,317 154,227.6 133.3,251.5 243.7,354 271.8,394.7 "/>
<g>
	<path class="st1" d="M491.2,389.4H362.8c5.6-6.9,12.5-16.1,19.8-27.2c3.7-5.7,7.2-11.5,10.4-17.2c2-3.6,0.8-8.2-2.9-10.2
		c-3.6-2-8.2-0.8-10.2,2.9c-2.4,4.2-4.9,8.4-7.5,12.5l-4.6-0.5c-27.3-4.3-43-9.6-57.5-27.4c24.9-22.9,24.5-48.5,22.4-71.9l11.5,6
		c13.8,7.3,30.9,2,38.1-11.8c7.3-13.8,2-30.9-11.8-38.1c-0.7-0.4,0,0-17.8-7c10.1,2.5,20.6,1.8,30.2-2c2.2,0.9,4.4,2,6.5,3.4
		c14.4,9.3,22.5,26.1,21,43.8c-1.7,20.2-6.9,41.1-15.4,62c-1.6,3.8,0.3,8.2,4.1,9.8c3.8,1.6,8.2-0.3,9.8-4.1
		c9.1-22.3,14.6-44.6,16.4-66.4c2-23.1-8.6-45.2-27.6-57.5c10.5-9.2,17.1-22.7,17.1-37.7V140c0-3.7-0.4-7.3-1.2-10.8
		c17.1-6.2,21.8-28.1,9-40.9c-11.5-11.5-31-9.1-39.2,5.2c-5.8-2.4-12.2-3.7-18.8-3.7c-27.7,0-50.2,22.5-50.2,50.2v10.5
		c0,13.4,5.3,25.5,13.8,34.5c-1,1.2-1.9,2.4-2.7,3.6l-66.5-26c-39.7-15.5-74.9-15.7-77-16c-11.9-0.6-16.3,15.4-5.8,21l31.5,16.6
		c3.7,1.9,8.2,0.5,10.1-3.1c1.9-3.7,0.5-8.2-3.1-10.1l-14.9-7.9c18.4,2.2,36.5,6.7,53.8,13.5l110.3,43.1c6.2,3.5,8.6,11.3,5.2,17.7
		c-3.4,6.5-11.4,8.9-17.9,5.5l-105.4-55.6c-3.7-1.9-8.2-0.5-10.1,3.1c-1.9,3.7-0.5,8.2,3.1,10.1l78.1,41.2
		c2.6,27.2,5.4,49.3-17.4,69.9l-141.5-89.9l-12.6-11.3c-6-5.3-11.3-11.3-15.8-17.9l-15.1-21.8c-11-15.9-35.5-4.9-32.1,13.5l7.6,41
		c1.8,9.7,8.8,17.7,18.2,20.7c4.1,1.6,11.4,2.5,19,9.4l96,90.1c16.3,15.3,25.3,27.4,36.9,43.8H20.8C9.3,389.4,0,398.7,0,410.2
		S9.3,431,20.8,431h470.4c11.5,0,20.8-9.3,20.8-20.8S502.7,389.4,491.2,389.4z M329.5,150.5V140c0-1.3,0.1-2.6,0.2-3.9h26.1
		c3.7,0,6.7,3,6.7,6.7c0,5.3,1.9,10.4,5.4,14.3l18.5,21C363.6,196.2,329.5,180,329.5,150.5L329.5,150.5z M412.1,98.9
		c5.2,5.2,3.1,14-3.8,16.3c-3.1-5.4-7.1-10.1-11.9-14C399.6,95.4,407.4,94.3,412.1,98.9z M364.7,104.9c19.4,0,35.2,15.8,35.2,35.2
		v10.5c0,5.7-1.4,11.1-3.8,15.8l-16.9-19.2c-1.1-1.2-1.7-2.8-1.7-4.4c0-11.9-9.7-21.7-21.7-21.7h-20.8
		C341.3,111.4,352.2,104.9,364.7,104.9L364.7,104.9z M112.8,231.8c-4.2-1.4-7.3-4.9-8.1-9.2l-7.6-41c-0.5-2.9,3.4-4.5,5-2.2
		l15.1,21.8c5.2,7.5,11.3,14.5,18.2,20.6l7.3,6.5l-11.1,11.6C123.5,234.5,117.1,233.4,112.8,231.8L112.8,231.8z M275.4,385.2
		c-11.8-16.9-22.1-31.9-42-50.6l-90.5-85l11.7-12.2l140.2,89.1c9,12.5,18.8,21,30.6,26.8c11,5.4,23.2,8.3,37.8,10.6
		c-8.4,11.9-15.8,20.6-20.1,25.4H280C278.2,388.3,276.6,386.9,275.4,385.2L275.4,385.2z M491.2,416H20.8c-3.2,0-5.8-2.6-5.8-5.8
		c0-3.2,2.6-5.8,5.8-5.8h470.4c3.2,0,5.8,2.6,5.8,5.8C497,413.4,494.4,416,491.2,416z"/>
</g>
</svg>
