<?xml version="1.0" encoding="utf-8"?>
<!-- Generator: Adobe Illustrator 23.0.1, SVG Export Plug-In . SVG Version: 6.00 Build 0)  -->
<svg version="1.1" id="Layer_1" xmlns="http://www.w3.org/2000/svg" xmlns:xlink="http://www.w3.org/1999/xlink" x="0px" y="0px"
	 viewBox="0 0 512 512" style="enable-background:new 0 0 512 512;" xml:space="preserve">
<style type="text/css">
	.st0{fill:#FF796D;}
	.st1{fill:#122C3B;}
</style>
<circle class="st0" cx="256" cy="96" r="72"/>
<g id="outline">
	<path class="st1" d="M461.4,158.8c-0.2-9.2-2.7-18.1-7.3-26.1l-6.4-11.2c-9.3-16.3-30-21.9-46.3-12.6c-2.5,1.4-4.9,3.2-7,5.3
		l-0.2,0.1l-0.1,0.1l-9,9c-3,3-7.1,4.7-11.3,4.7H368c-4.4,0-8,3.6-8,8v12.7l-4.8,4.8l-18.6,3.4c-14.3,2.6-24.6,15-24.6,29.5v1.2
		c0,10.5,5.6,20.3,14.6,25.7c0.5,0.3,1.1,0.6,1.6,0.7l17.3,5.6c-0.5,2.2-0.9,4.5-1.2,6.8l-45,17.3L206,187.9
		c-13.5-8.1-30.2-8.8-44.2-1.7L141,196.5c-12,3.4-22.2,11.6-28.1,22.6l-37,69.3c-8.5-15.5-28-21.1-43.5-12.5S11.4,304,20,319.4
		c1.8,3.2,4.1,6.1,6.8,8.5c-2.7,2.4-5.1,5.2-7.2,8.2l-2.3,3.4c-2.3,3.5-1.6,8.1,1.7,10.7l40,32c1.4,1.1,3.2,1.8,5,1.8
		c0.3,0,0.7,0,1-0.1c2.1-0.3,4.1-1.4,5.4-3.1l50.9-67.8c4.9,17,22.7,26.7,39.6,21.8c3.1-0.9,6.1-2.3,8.8-4.1l6.3,1.6V416H56
		c-13.2,0-24,10.8-24,24v48c0,4.4,3.6,8,8,8h32c4.4,0,8-3.6,8-8v-24h344v24c0,4.4,3.6,8,8,8h32c4.4,0,8-3.6,8-8v-48
		c0-13.2-10.8-24-24-24H336v-43.8l90.8,22.7c1.9,0.5,3.8,0.7,5.8,0.7c13,0,23.5-10.6,23.5-23.6c0-10.8-7.4-20.1-17.8-22.8
		l-114.1-28.5c6.1-4.4,11.6-9.6,16.3-15.5l8.7-10.9l54.8-27.4c20.2-10.1,29.5-33.7,21.7-54.8l5.3-2.6c1.1-0.6,2.2-1.2,3.3-1.8
		c0.4,23.1,12.6,44.3,32.3,56.3l11.5,6.9c3.8,2.3,8.7,1,11-2.7c1-1.7,1.4-3.7,1-5.7l-1.6-7.9c-3.9-19.3-1.9-39.4,5.8-57.5
		c3.4-8.1,2.6-17.4-2.3-24.8C485.2,162.2,473.3,157,461.4,158.8z M376,143.9c7.8-0.5,15.2-3.8,20.7-9.3l1.1-1.1l5.6,11.2l-27.3,5
		V143.9z M334.1,199.1c-3.8-2.6-6.1-6.9-6.1-11.6v-1.2c0-6.8,4.8-12.6,11.5-13.8l68.3-12.4l15.9,3.7l-2.2,6.8l-11.9-2.5
		c-1-0.2-2-0.2-3-0.1l-48,8c-4.4,0.7-7.3,4.8-6.6,9.2c0.5,3.3,3.1,5.9,6.3,6.5l18.9,3.8c4.6,0.9,7.5,5.4,6.6,9.9
		c-0.1,0.7-0.4,1.4-0.7,2.1c-1.9,3.7-6.2,5.5-10.2,4.2l-10.5-3.5L334.1,199.1z M197.8,201.6l81.5,48.9l-14.2,4.7l-87.2-53.6
		c-1.6-1-3.4-1.9-5.1-2.7C181.1,196.1,190.2,197,197.8,201.6z M48,288c8.8,0,16,7.2,16,16s-7.2,16-16,16s-16-7.2-16-16
		C32,295.2,39.2,288,48,288z M62.6,364.6l-27.7-22.1c2.4-2.8,5.4-5.1,8.8-6.8c1.4,0.2,2.9,0.3,4.4,0.3c3.7,0,7.4-0.6,10.8-1.9
		c0.2,0.2,0.5,0.4,0.7,0.5l17,11.3L62.6,364.6z M152,320c-8.8,0-16-7.2-16-16s7.2-16,16-16s16,7.2,16,16
		C168,312.8,160.8,320,152,320z M152,272l9.1-12.2l30.6,27.9l-14.8-3.7C170.9,276.4,161.7,272,152,272z M64,480H48v-16h16V480z
		 M456,480h-16v-16h16V480z M448,432c4.4,0,8,3.6,8,8v8H48v-8c0-4.4,3.6-8,8-8H448z M192,416v-79.8l16,4V416H192z M224,416v-71.8
		l64,16V416H224z M304,416v-51.8l16,4V416H304z M434.3,364.8c4,1,6.5,5.1,5.5,9.1c-1,4-5.1,6.5-9.1,5.5l0,0l-249.4-62.4
		c1.8-4.1,2.8-8.6,2.8-13.1c0-0.6,0-1.2-0.1-1.8l34.8,8.7l0.1,0L434.3,364.8z M327.9,295.3c-6.8,8.5-15.6,15.2-25.7,19.5
		c-0.3,0.1-0.5,0.2-0.7,0.4l-76.9-19.2l-59.2-53.8c-3.3-3-8.3-2.7-11.3,0.5c-0.2,0.2-0.3,0.4-0.5,0.6l-67.2,89.6L75,324.3l52-97.6
		c7.8-14.7,26.1-20.2,40.8-12.4c0.5,0.3,1.1,0.6,1.6,0.9l90.3,55.6c2,1.2,4.5,1.5,6.7,0.8l42.7-14.2l24.5,30.6L327.9,295.3z
		 M346.2,278L325,251.4l23.7-9.5l16,26.8L346.2,278z M406.7,244.4c-2.6,3.5-6,6.4-10,8.3l-17.7,8.9l-19-31.6
		c0.1-1.8,0.3-3.5,0.7-5.2l7.2,2.4c2.5,0.8,5,1.2,7.6,1.2c13.5,0,24.5-10.9,24.5-24.4c0-0.2,0-0.4,0-0.5l4,4
		C414,217.4,415.1,233.1,406.7,244.4L406.7,244.4z M444.7,167.8c-2.3,11.9-10.1,22-21,27.4l-6.3,3.1c-0.7-0.8-1.3-1.5-2-2.2
		l-7.7-7.7l3.2-3.6l14.4,3c4,0.8,8-1.5,9.3-5.4l7-22c1.3-4.2-1-8.7-5.2-10c-0.2-0.1-0.4-0.1-0.6-0.2l-13.4-3.1l-12.3-24.7
		c8.5-4.4,19-1.3,23.8,7l6.4,11.2C445,148.8,446.5,158.5,444.7,167.8L444.7,167.8z M479.5,190.7c-7.6,18-10.5,37.7-8.3,57.1
		c-13.2-9.5-21-24.8-21-41.1v-3.5c0-3.7,0.5-7.3,1.4-10.9c0.1-0.3,0.1-0.7,0.2-1c3.2-4.7,5.7-9.8,7.3-15.3l0.6-0.3
		c6.7-3.2,14.8-1,19,5.2C480.5,183.9,480.9,187.6,479.5,190.7L479.5,190.7z"/>
	<path class="st1" d="M176,96c0,44.2,35.8,80,80,80s80-35.8,80-80s-35.8-80-80-80C211.8,16.1,176.1,51.8,176,96z M320,96
		c0,35.3-28.7,64-64,64s-64-28.7-64-64s28.7-64,64-64C291.3,32,320,60.7,320,96z"/>
	<path class="st1" d="M248,48v34.2c-4.6,2.7-7.6,7.5-8,12.9l-19.6,9.8c-4,1.9-5.6,6.7-3.7,10.7c1.9,4,6.7,5.6,10.7,3.7
		c0,0,0.1,0,0.1-0.1l19.6-9.8c7.4,4.9,17.3,2.9,22.2-4.5s2.9-17.3-4.5-22.2c-0.3-0.2-0.6-0.4-0.8-0.5V48c0-4.4-3.6-8-8-8
		S248,43.6,248,48z"/>
	<path class="st1" d="M96,208c4.4,0,8-3.6,8-8c0-8.8,7.2-16,16-16c4.4,0,8-3.6,8-8s-3.6-8-8-8c-17.7,0-32,14.3-32,32
		C88,204.4,91.6,208,96,208z"/>
	<path class="st1" d="M104,152c0-4.4-3.6-8-8-8c-17.7,0-32,14.3-32,32c0,4.4,3.6,8,8,8s8-3.6,8-8c0-8.8,7.2-16,16-16
		C100.4,160,104,156.4,104,152z"/>
	<path class="st1" d="M440,272c0-4.4-3.6-8-8-8s-8,3.6-8,8c0,8.8-7.2,16-16,16c-4.4,0-8,3.6-8,8s3.6,8,8,8
		C425.7,304,440,289.7,440,272z"/>
	<path class="st1" d="M432,328c17.7,0,32-14.3,32-32c0-4.4-3.6-8-8-8s-8,3.6-8,8c0,8.8-7.2,16-16,16c-4.4,0-8,3.6-8,8
		S427.6,328,432,328z"/>
</g>
</svg>
