<?xml version="1.0" encoding="utf-8"?>
<!-- Generator: Adobe Illustrator 23.0.1, SVG Export Plug-In . SVG Version: 6.00 Build 0)  -->
<svg version="1.1" id="Layer_1" xmlns="http://www.w3.org/2000/svg" xmlns:xlink="http://www.w3.org/1999/xlink" x="0px" y="0px"
	 viewBox="0 0 512 512" style="enable-background:new 0 0 512 512;" xml:space="preserve">
<style type="text/css">
	.st0{fill-rule:evenodd;clip-rule:evenodd;fill:#FF796D;}
	.st1{fill-rule:evenodd;clip-rule:evenodd;fill:#122C3B;}
</style>
<polygon class="st0" points="88.9,206.1 153.3,240.5 252.3,253.8 329,247.6 383.7,227.6 425.6,206.1 453,273.4 283.6,398.9 
	256.4,409.2 217,401 60.9,276.5 74.6,225.3 "/>
<g>
	<path class="st1" d="M460.9,270.4c-4.4-25.7-14.4-49.3-25.5-71.3c0-0.1-0.1-0.1-0.1-0.2c-4.6-9.1-9.3-17.9-14-26.4
		c-15.1-27.8-29.3-54.1-30.4-78.1c-2.5-54.4,21-75.9,21.9-76.7c3.3-2.7,4.4-7.1,3-11c-1.4-4-5.3-6.6-9.5-6.6H106.5
		c-4.2,0-8.1,2.6-9.5,6.5c-1.4,4-0.3,8.3,3,11c1,0.9,24.5,22.4,22,76.8c-1.1,23.9-15.4,50.2-30.4,78.1c-4.6,8.5-9.4,17.3-14,26.4
		c0,0.1-0.1,0.1-0.1,0.2c-11.8,23.4-22.4,48.7-26.3,76.2c0,0.3-0.1,0.6-0.1,0.8c-1.4,10.2-1.9,20.6-1.2,31.5
		c1.2,18.5,4.4,39.4,9.4,62.1c1.2,5.4,6.5,8.8,11.9,7.6c5.4-1.2,8.8-6.5,7.6-11.9c-4.8-21.8-7.8-41.7-8.9-59.1
		c-0.2-3.4-0.3-6.7-0.3-10l142.2,109.3c9.6,7.3,21.7,11.9,34.6,13.1V492H118.9c-3.7-9-10.9-27.5-18.7-50.7
		c-1.8-5.2-7.4-8.1-12.7-6.3c-5.2,1.8-8.1,7.4-6.3,12.7c11.4,33.9,21.3,57.3,21.8,58.2c1.6,3.7,5.2,6.1,9.2,6.1h288.4
		c4,0,7.6-2.4,9.2-6.1c1.9-4.5,47.4-111.4,53.1-198.4c0.8-12.7,0-24.9-2-36.6C460.9,270.7,460.9,270.5,460.9,270.4z M142,95.3
		c1.7-36.3-7.1-60.6-15.5-75.3h259.8c-8.3,14.7-17.2,39-15.5,75.3c1.3,28.5,16.6,56.8,32.8,86.7c3.4,6.2,6.8,12.5,10.1,18.8
		c-36.4,26.7-94.4,42.4-157.3,42.4s-121-15.7-157.3-42.4c3.3-6.3,6.7-12.6,10.1-18.8C125.4,152.1,140.7,123.8,142,95.3z M71.8,272.7
		c3.3-18.8,10.1-36.6,18.2-53.8c39.9,27.9,100.9,44.3,166.4,44.3c65.5,0,126.5-16.4,166.4-44.3c7.4,15.8,13.7,32.1,17.3,49.1
		L280.7,390.5c-15,11.6-41,11.1-56.7-0.9L71.8,272.7z M442.9,306.3c-4.7,72.1-39.3,161.9-49,185.8H266.4v-74.2
		c9.9-1.8,19-5.7,26.4-11.4L443.1,291C443.3,296,443.3,301.1,442.9,306.3z"/>
	<path class="st1" d="M256.4,196.6c5.5,0,10-4.5,10-10v-30.4c0-5.5-4.5-10-10-10c-5.5,0-10,4.5-10,10v30.4
		C246.4,192.1,250.9,196.6,256.4,196.6z"/>
	<path class="st1" d="M60.9,110.3c-3.9,3.9-3.9,10.2,0,14.1c2,2,4.5,2.9,7.1,2.9s5.1-1,7.1-2.9c0,0,28.9-28.9,29-29
		c2.3-2.3,3.4-5.6,2.8-8.8c-0.4-2.1-1.3-3.9-2.8-5.4l-29-29c-3.9-3.9-10.2-3.9-14.1,0c-3.9,3.9-3.9,10.2,0,14.1l11.9,11.9H15
		c-5.5,0-10,4.5-10,10s4.5,10,10,10h57.9L60.9,110.3z"/>
	<path class="st1" d="M497.8,78.4H440l11.9-11.9c3.9-3.9,3.9-10.2,0-14.1c-3.9-3.9-10.2-3.9-14.1,0l-29,29c-2.6,2.6-3.8,7-2.4,10.5
		c0.5,1.3,1.3,2.6,2.4,3.6l29,29c2,2,4.5,2.9,7.1,2.9s5.1-1,7.1-2.9c3.9-3.9,3.9-10.2,0-14.1L440,98.4h57.9c5.5,0,10-4.5,10-10
		S503.3,78.4,497.8,78.4z"/>
	<path class="st1" d="M88.9,406.3c0-5.5-4.5-10-10-10s-10,4.5-10,10s4.5,10,10,10S88.9,411.8,88.9,406.3z"/>
</g>
</svg>
