<svg xmlns="http://www.w3.org/2000/svg" viewBox="0 0 77.45 84.91"><defs><style>.cls-1{fill:#c68c06;}.cls-2{fill:#fff;}.cls-3{fill:#3d4c54;}.cls-4{fill:#ebeff2;}</style></defs><title>support</title><g id="Layer_2" data-name="Layer 2"><g id="Layer_1-2" data-name="Layer 1"><circle class="cls-1" cx="39.42" cy="30.6" r="30.6"></circle></g><g id="Layer_4" data-name="Layer 4"><path class="cls-2" d="M26.79,82.11,9.34,80.92V49.05a1,1,0,0,1,1-1H55.81a1,1,0,0,1,1,1V80.92Z"></path><path class="cls-3" d="M56.89,81.46A.48.48,0,0,1,56.4,81V49.1a.54.54,0,0,0-.54-.54H10.42a.54.54,0,0,0-.54.54V81a.49.49,0,0,1-1,0V49.1a1.56,1.56,0,0,1,1.56-1.56H55.92a1.56,1.56,0,0,1,1.56,1.56V81a.69.69,0,0,1-.59.48"></path><path class="cls-4" d="M54.25,51.69a.91.91,0,0,0-.92-.92H13a.91.91,0,0,0-.92.92V77.37a.91.91,0,0,0,.92.92H53.28a.9.9,0,0,0,.91-.92l.06-25.68Z"></path><path class="cls-3" d="M53.33,78.77H13a1.44,1.44,0,0,1-1.45-1.45V51.74A1.44,1.44,0,0,1,13,50.29H53.28a1.44,1.44,0,0,1,1.45,1.45V77.37a1.42,1.42,0,0,1-1.4,1.4M13,51.26a.45.45,0,0,0-.43.43V77.37a.45.45,0,0,0,.43.43H53.28a.46.46,0,0,0,.43-.43V51.74a.47.47,0,0,0-.43-.43H13Z"></path><path class="cls-2" d="M41.76,80.92a2.82,2.82,0,0,1-2.21,1.14H26.68a2.75,2.75,0,0,1-2.21-1.14H.57l1.34,2.37A2.38,2.38,0,0,0,4,84.42H62.38a2.43,2.43,0,0,0,2-1.13l1.35-2.37Z"></path><path class="cls-3" d="M62.32,84.91H4a2.87,2.87,0,0,1-2.48-1.35L.08,81.19a.39.39,0,0,1,0-.48.56.56,0,0,1,.43-.27h24a.36.36,0,0,1,.38.22,2.27,2.27,0,0,0,1.83.91H39.55a2.27,2.27,0,0,0,1.83-.91.54.54,0,0,1,.38-.22h24a.56.56,0,0,1,.43.27.42.42,0,0,1,0,.48L64.8,83.56a2.87,2.87,0,0,1-2.48,1.35M1.43,81.46l.91,1.62A1.84,1.84,0,0,0,4,83.94H62.38A2,2,0,0,0,64,83.08l.92-1.56H42a3.32,3.32,0,0,1-2.47,1.13H26.68a3.45,3.45,0,0,1-2.48-1.13L1.43,81.46Z"></path><path class="cls-2" d="M39,62.73a6,6,0,1,1-6-6,6,6,0,0,1,6,6"></path><path class="cls-3" d="M33,69.29a6.52,6.52,0,1,1,6.52-6.51A6.54,6.54,0,0,1,33,69.29m0-12.06a5.5,5.5,0,1,0,5.49,5.5A5.48,5.48,0,0,0,33,57.23"></path><path class="cls-2" d="M43.64,78.18H22.43v-2.8a4.69,4.69,0,0,1,4.68-4.69H39a4.69,4.69,0,0,1,4.68,4.69v2.8Z"></path><path class="cls-3" d="M43.64,78.66H22.43a.48.48,0,0,1-.49-.48v-2.8a5.17,5.17,0,0,1,5.17-5.17H39a5.16,5.16,0,0,1,5.16,5.17v2.8a.47.47,0,0,1-.48.48m-20.73-1H43.1V75.38a4.2,4.2,0,0,0-4.2-4.2H27.06a4.2,4.2,0,0,0-4.2,4.2C22.91,75.38,22.91,77.69,22.91,77.69Z"></path><rect class="cls-3" x="26.68" y="76.13" width="1.02" height="1.78"></rect><rect class="cls-3" x="38.52" y="76.13" width="1.02" height="1.78"></rect><path class="cls-3" d="M60.33,55.94a.7.7,0,0,1-.43-.21.53.53,0,0,1,.16-.7,7,7,0,0,0-3.61-13,6.87,6.87,0,0,0-5.76,3.12.5.5,0,1,1-.8-.59A8,8,0,0,1,64.48,49a7.87,7.87,0,0,1-3.88,6.78c-.11.11-.16.16-.27.16"></path><path class="cls-3" d="M65.77,59.49a.57.57,0,0,1-.38-.16.51.51,0,0,1,0-.7A13,13,0,0,0,69.59,49,13.38,13.38,0,0,0,60,36.23a.43.43,0,0,1-.32-.59.45.45,0,0,1,.59-.32,14.19,14.19,0,0,1,5.87,24.07.58.58,0,0,1-.32.1"></path><path class="cls-3" d="M49.51,37.69a.56.56,0,0,1-.43-.27.52.52,0,0,1,.16-.7,14.19,14.19,0,0,1,7.16-1.94.49.49,0,1,1,0,1,13.17,13.17,0,0,0-6.68,1.83.21.21,0,0,1-.21.11"></path><path class="cls-3" d="M43.91,43.93a.37.37,0,0,1-.22,0,.5.5,0,0,1-.27-.65A14.8,14.8,0,0,1,46,39.3a.49.49,0,0,1,.7.7,12.88,12.88,0,0,0-2.42,3.66c0,.17-.17.27-.38.27"></path><path class="cls-3" d="M60.12,69.67a.52.52,0,0,1-.49-.43.5.5,0,0,1,.38-.59,18.58,18.58,0,0,0,3.34-.92.51.51,0,0,1,.32,1,13.16,13.16,0,0,1-3.55,1h0"></path><path class="cls-3" d="M67,67.14a.56.56,0,0,1-.43-.27.52.52,0,0,1,.17-.7A20,20,0,0,0,52,29.45a.5.5,0,0,1-.59-.38.49.49,0,0,1,.37-.59A21.91,21.91,0,0,1,56.4,28,21,21,0,0,1,67.22,67.09a.5.5,0,0,1-.27,0"></path><path class="cls-3" d="M42.46,34.51a.57.57,0,0,1-.38-.16.57.57,0,0,1,0-.7,22.24,22.24,0,0,1,6.08-4,.49.49,0,1,1,.38.91,19.38,19.38,0,0,0-5.82,3.82.37.37,0,0,1-.26.11"></path><path class="cls-2" d="M44.45,36.61a1,1,0,0,1-1,1H25.28l-3,5.17-3.17-5.17H17a1,1,0,0,1-1-1V19.92a1,1,0,0,1,1-1H43.32a1,1,0,0,1,1,1V36.61Z"></path><path class="cls-3" d="M22.26,43.29a.67.67,0,0,1-.43-.22l-3-5H17a1.56,1.56,0,0,1-1.56-1.56V19.87A1.56,1.56,0,0,1,17,18.3H43.32a1.56,1.56,0,0,1,1.56,1.57V36.56a1.56,1.56,0,0,1-1.56,1.56H25.55l-2.91,5c0,.11-.16.22-.38.22ZM17,19.33a.54.54,0,0,0-.54.54V36.56a.54.54,0,0,0,.54.54h2.05a.65.65,0,0,1,.43.21l2.74,4.47,2.64-4.47a.56.56,0,0,1,.43-.27h18a.54.54,0,0,0,.54-.54V19.87a.54.54,0,0,0-.54-.54Z"></path><path class="cls-3" d="M37.56,26.17H23.29a.49.49,0,0,1-.49-.49.48.48,0,0,1,.49-.48H37.61a.47.47,0,0,1,.48.48.5.5,0,0,1-.53.49"></path><path class="cls-3" d="M37.56,31.6H23.29a.48.48,0,0,1-.49-.48.49.49,0,0,1,.49-.49H37.61a.48.48,0,0,1,.48.49.52.52,0,0,1-.53.48"></path></g></g></svg>