<?xml version="1.0" encoding="utf-8"?>
<!-- Generator: Adobe Illustrator 23.0.1, SVG Export Plug-In . SVG Version: 6.00 Build 0)  -->
<svg version="1.1" id="Layer_3" xmlns="http://www.w3.org/2000/svg" xmlns:xlink="http://www.w3.org/1999/xlink" x="0px" y="0px"
	 viewBox="0 0 512 512" style="enable-background:new 0 0 512 512;" xml:space="preserve">
<style type="text/css">
	.st0{fill:#FF796D;}
	.st1{fill:#122C3B;}
</style>
<circle class="st0" cx="354" cy="376" r="119"/>
<g>
	<path class="st1" d="M152,248h16c4.4,0,8,3.6,8,8c0,4.4,3.6,8,8,8h24c4.4,0,8-3.6,8-8c0-26.5-21.5-48-48-48h-16
		c-26.5,0-48,21.5-48,48v32c0,26.5,21.5,48,48,48h16c26.5,0,48-21.5,48-48c0-4.4-3.6-8-8-8h-24c-4.4,0-8,3.6-8,8c0,4.4-3.6,8-8,8
		h-16c-4.4,0-8-3.6-8-8v-32C144,251.6,147.6,248,152,248z M152,312h16c10.4,0,19.3-6.7,22.6-16h8.4c-3.6,13.8-16.1,24-31,24h-16
		c-17.6,0-32-14.4-32-32v-32c0-17.6,14.4-32,32-32h16c14.9,0,27.4,10.2,31,24h-8.4c-3.3-9.3-12.2-16-22.6-16h-16
		c-13.2,0-24,10.8-24,24v32C128,301.2,138.8,312,152,312z"/>
	<path class="st1" d="M398.8,257c24.3-11.6,41.2-36.3,41.2-65c0-4.4-3.6-8-8-8h-16c-23.3,0-44,11.2-57.2,28.5
		c-5.3-25.4-27.9-44.5-54.8-44.5c-4.4,0-8,3.6-8,8v32c0,18.2,8.8,34.4,22.3,44.6c-10.7,2.9-20.9,7.2-30.3,12.7V160
		c0-30.9-25.1-56-56-56c-8.8,0-16-7.2-16-16c13.2,0,24-10.8,24-24V32c0-13.2-10.8-24-24-24H104C90.8,8,80,18.8,80,32v32
		c0,13.2,10.8,24,24,24c0,8.8-7.2,16-16,16c-30.9,0-56,25.1-56,56v232c0,26.5,21.5,48,48,48h160c0.4,0,0.8-0.1,1.3-0.1
		C263.4,478.2,304.7,504,352,504c70.6,0,128-57.4,128-128C480,322,446.3,275.7,398.8,257z M416,200h7.4c-3.9,27.1-27.3,48-55.4,48
		h-7.4C364.5,220.9,387.8,200,416,200z M312,208v-23.2c18.2,3.7,32,19.9,32,39.2v23.2C325.8,243.5,312,227.3,312,208z M228.2,344H48
		V200h224v76.2C250.8,293.3,235.2,316.9,228.2,344z M224,376H48v-16h177.1C224.4,365.3,224,370.6,224,376z M272,168v16H48v-16H272z
		 M96,64V32c0-4.4,3.6-8,8-8h112c4.4,0,8,3.6,8,8v32c0,4.4-3.6,8-8,8h-8h-8V32h-16v40h-16V32h-16v40h-16V32h-16v40h-8h-8
		C99.6,72,96,68.4,96,64z M88,120c17.6,0,32-14.4,32-32h80c0,17.6,14.4,32,32,32c19.3,0,35.5,13.8,39.2,32H48.8
		C52.5,133.8,68.7,120,88,120L88,120z M80,424c-17.6,0-32-14.4-32-32h177.1c1.4,11.2,4.2,21.9,8.3,32H80z M352,488
		c-61.8,0-112-50.2-112-112s50.2-112,112-112s112,50.2,112,112S413.8,488,352,488z"/>
	<path class="st1" d="M352,280v16c44.1,0,80,35.9,80,80h16C448,323.1,404.9,280,352,280z"/>
	<path class="st1" d="M296,424h16v16h-16V424z"/>
	<path class="st1" d="M320,416h16v16h-16V416z"/>
	<path class="st1" d="M312,392h16v16h-16V392z"/>
	<path class="st1" d="M272,408h16v16h-16V408z"/>
	<path class="st1" d="M288,384h16v16h-16V384z"/>
</g>
</svg>
