<svg xmlns="http://www.w3.org/2000/svg" viewBox="0 0 77.2 84"><defs><style>.cls-1{fill:#c68c06;}.cls-2{fill:#fff;}.cls-3{fill:#37474f;}.cls-4{fill:#ebeff2;}.cls-5{fill:#4d585e;}</style></defs><title>web-design</title><g id="Layer_2" data-name="Layer 2"><g id="Layer_1-2" data-name="Layer 1"><circle class="cls-1" cx="39.2" cy="30.6" r="30.6"></circle></g><g id="Layer_3" data-name="Layer 3"><path class="cls-2" d="M46.2,28.8a3,3,0,0,1,3,3V58.9a3,3,0,0,1-3,3H3.6a3,3,0,0,1-3-3V31.8a3,3,0,0,1,3-3Z"></path><path class="cls-3" d="M46.2,62.3H3.6A3.48,3.48,0,0,1,.1,58.8v-27a3.48,3.48,0,0,1,3.5-3.5H46.2a3.48,3.48,0,0,1,3.5,3.5V58.9A3.46,3.46,0,0,1,46.2,62.3ZM3.6,29.3a2.48,2.48,0,0,0-2.5,2.5V58.9a2.48,2.48,0,0,0,2.5,2.5H46.2a2.48,2.48,0,0,0,2.5-2.5V31.8a2.48,2.48,0,0,0-2.5-2.5Z"></path><path class="cls-3" d="M49.1,57.7H.5a.5.5,0,0,1,0-1H49a.47.47,0,0,1,.5.5C49.6,57.5,49.4,57.7,49.1,57.7Z"></path><path class="cls-4" d="M.6,58.5a3.15,3.15,0,0,0,3,3.3H46.2a3.21,3.21,0,0,0,3-3.3V56.7H.6Z"></path><path class="cls-3" d="M46.2,62.3H3.6A3.68,3.68,0,0,1,.1,58.5V56.7a.47.47,0,0,1,.5-.5H49.1a.47.47,0,0,1,.5.5v1.8A3.54,3.54,0,0,1,46.2,62.3ZM1.1,57.2v1.3a2.68,2.68,0,0,0,2.5,2.8H46.2a2.62,2.62,0,0,0,2.5-2.8V57.2Z"></path><path class="cls-3" d="M31.6,68.9H18.3a.5.5,0,1,1,0-1H31.6a.47.47,0,0,1,.5.5A.54.54,0,0,1,31.6,68.9Z"></path><polygon class="cls-4" points="29 68.4 20.8 68.4 21.7 61.8 28.1 61.8 29 68.4"></polygon><path class="cls-3" d="M29,68.9H20.8a.76.76,0,0,1-.4-.2.6.6,0,0,1-.1-.4l.9-6.6a.46.46,0,0,1,.5-.4h6.4c.2,0,.5.2.5.4l.9,6.6a.6.6,0,0,1-.1.4A.52.52,0,0,1,29,68.9Zm-7.6-1h7l-.7-5.6H22.2Z"></path><path class="cls-3" d="M25.3,59.8h-.9a.5.5,0,1,1,0-1h.9a.47.47,0,0,1,.5.5A.54.54,0,0,1,25.3,59.8Z"></path><path class="cls-3" d="M63.9,57.8a.76.76,0,0,1-.4-.2l-8.8-9.1a.49.49,0,1,1,.7-.7l8.4,8.7,7.8-10.7a.5.5,0,1,1,.8.6L64.3,57.6c-.1.2-.2.2-.4.2Z"></path><path class="cls-5" d="M69.9,61.1H58.4a.47.47,0,0,1-.5-.5v-2a.47.47,0,0,1,.5-.5H69.9a.47.47,0,0,1,.5.5v2A.47.47,0,0,1,69.9,61.1Zm-11-1H69.4v-1H58.9Z"></path><path class="cls-4" d="M66.7,68.4H61.6a1.2,1.2,0,0,1-1.2-1.1l-1.1-6.6h9.8L68,67.3A1.48,1.48,0,0,1,66.7,68.4Z"></path><path class="cls-5" d="M66.7,68.9H61.6a1.65,1.65,0,0,1-1.7-1.5l-1.1-6.6a.6.6,0,0,1,.1-.4.52.52,0,0,1,.4-.2h9.8a.76.76,0,0,1,.4.2.6.6,0,0,1,.1.4l-1.1,6.6A1.92,1.92,0,0,1,66.7,68.9Zm-6.9-7.8,1,6.1a.85.85,0,0,0,.8.7h5.1a.87.87,0,0,0,.8-.6l1-6.1H59.8Z"></path><path class="cls-2" d="M70,54.3a3.22,3.22,0,0,1-5.2-3.8c1.1-1.4,7.2-4.3,7.2-4.3S71.1,52.8,70,54.3Z"></path><path class="cls-3" d="M67.4,56.1a3.6,3.6,0,0,1-2.2-.7A4.12,4.12,0,0,1,63.7,53a4,4,0,0,1,.7-2.8c1.1-1.5,6.7-4.2,7.4-4.5a.45.45,0,0,1,.5,0,.76.76,0,0,1,.2.5c-.1.7-1,6.9-2.1,8.3h0A4.12,4.12,0,0,1,68,56,1.27,1.27,0,0,1,67.4,56.1Zm4-9.1c-2,1-5.4,2.8-6.1,3.7a2.72,2.72,0,1,0,4.4,3.2h0C70.3,53,71,49.2,71.4,47Z"></path><path class="cls-2" d="M61.5,50.5a2.9,2.9,0,0,1-4.1,4.1c-1.1-1.1-2.9-7-2.9-7S60.3,49.3,61.5,50.5Z"></path><path class="cls-3" d="M59.4,56A3.49,3.49,0,0,1,57,55c-1.2-1.2-2.9-6.6-3-7.3a.46.46,0,0,1,.6-.6c.6.2,6.1,1.8,7.3,3h0a3.57,3.57,0,0,1,0,4.9,4,4,0,0,1-2.5,1Zm-4.2-7.7c.7,2.3,1.8,5.3,2.5,5.9a2.34,2.34,0,0,0,1.7.7h0a2.61,2.61,0,0,0,1.7-.7,2.48,2.48,0,0,0,0-3.4C60.4,50.1,57.5,49,55.2,48.3Z"></path><path class="cls-5" d="M76.7,73.1H.5a.47.47,0,0,1-.5-.5V68.4a.47.47,0,0,1,.5-.5H13.3a.5.5,0,0,1,0,1H1v3.2H76.2V68.9H71.6a.5.5,0,0,1,0-1h5.1a.47.47,0,0,1,.5.5v4.2A.47.47,0,0,1,76.7,73.1Z"></path><path class="cls-3" d="M57,68.9H35a.5.5,0,0,1,0-1H57a.47.47,0,0,1,.5.5A.54.54,0,0,1,57,68.9Z"></path><path class="cls-5" d="M8.7,84H4.5a.47.47,0,0,1-.5-.5V72.6a.47.47,0,0,1,.5-.5H8.7a.47.47,0,0,1,.5.5V83.5A.47.47,0,0,1,8.7,84ZM5,83H8.2V73.1H5Z"></path><path class="cls-5" d="M72,84H67.8a.47.47,0,0,1-.5-.5V72.6a.47.47,0,0,1,.5-.5H72a.47.47,0,0,1,.5.5V83.5A.47.47,0,0,1,72,84Zm-3.7-1h3.2V73.1H68.3Z"></path><polygon class="cls-2" points="4.5 53.7 14.9 34.6 25.3 53.7 4.5 53.7"></polygon><path class="cls-3" d="M25.3,54.2H4.5a.52.52,0,0,1-.4-.2.45.45,0,0,1,0-.5l10.4-19a.56.56,0,0,1,.9,0l10.4,19a.45.45,0,0,1,0,.5C25.6,54.1,25.5,54.2,25.3,54.2Zm-20-1H24.4L14.8,35.7Z"></path><polygon class="cls-4" points="10.7 53.7 28 21.9 45.4 53.7 10.7 53.7"></polygon><path class="cls-3" d="M45.4,54.2H10.7a.52.52,0,0,1-.4-.2.45.45,0,0,1,0-.5L27.7,21.7a.56.56,0,0,1,.9,0L46,53.5a.45.45,0,0,1,0,.5C45.7,54.1,45.6,54.2,45.4,54.2Zm-33.9-1h33L28,23Z"></path><polygon class="cls-2" points="34.5 33.8 28 21.9 22 32.9 25.3 31.6 28 33.9 30 31.5 34.5 33.8"></polygon><path class="cls-3" d="M28,34.4a.37.37,0,0,1-.3-.1l-2.5-2.1-3,1.2a.52.52,0,0,1-.7-.7l6-11a.54.54,0,0,1,.4-.3h0c.2,0,.4.1.4.3l6.5,11.9a.52.52,0,0,1-.7.7l-4.2-2.2-1.7,2.1c.1.1,0,.2-.2.2Zm-2.7-3.3a.37.37,0,0,1,.3.1l2.3,2,1.6-2c.1-.2.4-.2.6-.1l3.1,1.6L28,23l-4.9,8.9,2-.8Z"></path><path class="cls-2" d="M53.4,23.1a4.9,4.9,0,0,0,0-9.8,4.67,4.67,0,0,0-1.7.3,6,6,0,0,0-5.8-4.7,5.91,5.91,0,0,0-5.7,4.4,4.9,4.9,0,0,0,0,9.8Z"></path><path class="cls-3" d="M53.4,23.6H40.1a5.42,5.42,0,0,1-.4-10.8,6.46,6.46,0,0,1,6.1-4.4A6.54,6.54,0,0,1,52,13a6.75,6.75,0,0,1,1.4-.2,5.38,5.38,0,0,1,5.4,5.4A5.32,5.32,0,0,1,53.4,23.6ZM45.8,9.3a5.58,5.58,0,0,0-5.3,4c-.1.2-.2.4-.5.4a4.4,4.4,0,0,0,0,8.8H53.3a4.4,4.4,0,1,0,0-8.8,4.53,4.53,0,0,0-1.6.3c-.1.1-.3,0-.4,0s-.2-.2-.2-.3A5.46,5.46,0,0,0,45.8,9.3Z"></path></g></g></svg>