<?xml version="1.0" encoding="utf-8"?>
<!-- Generator: Adobe Illustrator 23.0.1, SVG Export Plug-In . SVG Version: 6.00 Build 0)  -->
<svg version="1.1" id="Capa_1" xmlns="http://www.w3.org/2000/svg" xmlns:xlink="http://www.w3.org/1999/xlink" x="0px" y="0px"
	 viewBox="0 0 512 512" style="enable-background:new 0 0 512 512;" xml:space="preserve">
<style type="text/css">
	.st0{fill:#FF796D;}
	.st1{fill:#122C3B;}
</style>
<path class="st0" d="M142.9,174.2h226c0,0,1.9-103.6-112.9-112.8C256,61.4,156,55,142.9,174.2z"/>
<g>
	<path class="st1" d="M488.7,27.3C472.2,9.7,449.9,0,425.8,0H86.2C37,0-3.1,42.9,0.3,92l15,221.5c0.7,9.6,15.6,8.6,15-1L15.2,91
		c-2.8-40.6,30.3-76,71-76h339.6c40.7,0,73.7,35.4,71,76l-23,339.6c-2.5,37.2-33.7,66.4-71,66.4H109.3c-37.3,0-68.5-29.2-71-66.4
		L33,353.5c-0.7-9.6-15.6-8.6-15,1l5.2,77.1c3.1,45.1,40.8,80.4,85.9,80.4h293.5c45.1,0,82.9-35.3,85.9-80.4l23-339.6
		C513.4,67.9,505.2,45,488.7,27.3z"/>
	<path class="st1" d="M331.5,174.5c0,4.1,3.4,7.5,7.5,7.5h30c4.1,0,7.5-3.4,7.5-7.5C376.5,108.1,322.4,54,256,54
		s-120.5,54.1-120.5,120.5c0,4.1,3.4,7.5,7.5,7.5h155c9.7,0,9.7-15,0-15h-36.3L229,108.8c-4.7-8.4-17.8-1.1-13.1,7.3l28.5,50.8
		h-93.7c1.6-23,10.7-44,24.7-60.6l10.3,10.3c6.8,6.8,17.4-3.8,10.6-10.6L186,95.6c10-8.9,21.7-15.9,34.5-20.5l3.7,14
		c2.5,9.3,17,5.5,14.5-3.9l-3.8-14.1c13.2-2.7,26.8-2.8,40-0.4l-3.7,13.8c-2.5,9.3,12,13.2,14.5,3.9l3.7-13.9
		c12.9,4.3,24.6,11,34.7,19.6l-9.9,9.9c-6.8,6.8,3.8,17.4,10.6,10.6l10-10c15,16.9,24.6,38.6,26.3,62.4H339
		C334.9,167,331.5,170.4,331.5,174.5z"/>
	<path class="st1" d="M75.5,48C60.9,48,49,59.9,49,74.5S60.9,101,75.5,101S102,89.1,102,74.5S90.1,48,75.5,48z M75.5,86
		C69.2,86,64,80.8,64,74.5S69.2,63,75.5,63S87,68.2,87,74.5S81.8,86,75.5,86z"/>
	<path class="st1" d="M436.5,101c14.6,0,26.5-11.9,26.5-26.5S451.1,48,436.5,48S410,59.9,410,74.5S421.9,101,436.5,101z M436.5,63
		c6.3,0,11.5,5.2,11.5,11.5S442.8,86,436.5,86S425,80.8,425,74.5S430.2,63,436.5,63z"/>
	<path class="st1" d="M72,433.5c0,14.6,11.9,26.5,26.5,26.5s26.5-11.9,26.5-26.5S113.1,407,98.5,407S72,418.9,72,433.5z M98.5,422
		c6.3,0,11.5,5.2,11.5,11.5S104.8,445,98.5,445S87,439.8,87,433.5S92.2,422,98.5,422z"/>
	<path class="st1" d="M387,433.5c0,14.6,11.9,26.5,26.5,26.5s26.5-11.9,26.5-26.5S428.1,407,413.5,407S387,418.9,387,433.5z
		 M413.5,422c6.3,0,11.5,5.2,11.5,11.5s-5.2,11.5-11.5,11.5s-11.5-5.2-11.5-11.5S407.2,422,413.5,422z"/>
</g>
</svg>
