<svg id="Layer_1" data-name="Layer 1" xmlns="http://www.w3.org/2000/svg" viewBox="0 0 1000 1000"><defs><style>.cls-1{fill:none;stroke:#f8a273;stroke-miterlimit:10;}</style></defs><title>circle-lins-ffa372</title><path class="cls-1" d="M510,585.51a87.65,87.65,0,0,1-45.53-167.1"/><path class="cls-1" d="M543.64,589.29A100.65,100.65,0,1,1,530,402.17"/><path class="cls-1" d="M436.74,592.68A113.71,113.71,0,0,1,563.88,404.12"/><path class="cls-1" d="M593.28,584.53a126.67,126.67,0,1,1-55.42-207.21"/><path class="cls-1" d="M437.25,623.16a139.82,139.82,0,0,1,7.17-252.9"/><path class="cls-1" d="M352.29,536.43A153,153,0,0,1,457.78,351.6"/><path class="cls-1" d="M453.28,339.34a166.06,166.06,0,0,1,158.65,36.43"/><path class="cls-1" d="M469.91,661.44a165.87,165.87,0,0,1-16.63-322.1"/><path class="cls-1" d="M478.21,662.76q-4.18-.56-8.3-1.32"/><path class="cls-1" d="M534.6,674a178.9,178.9,0,0,1-80.55-348.39"/><path class="cls-1" d="M597.31,648.69A177.59,177.59,0,0,1,534.6,674"/><path class="cls-1" d="M641.36,628.5a191.37,191.37,0,0,1-141,61.79c-106,0-191.89-85.91-191.89-191.89,0-91.89,64.59-168.69,150.84-187.49"/><path class="cls-1" d="M373.47,659.36a205,205,0,0,1-43.25-275.28"/><path class="cls-1" d="M307,599.14A217.06,217.06,0,0,1,282.36,498.4c0-120.37,97.58-217.95,218-217.95A216.92,216.92,0,0,1,616.7,314.1"/><path class="cls-1" d="M701.15,612.57A230.89,230.89,0,0,1,500.31,729.38c-127.57,0-231-103.41-231-231s103.41-231,231-231q9.63,0,19.06.77"/><path class="cls-1" d="M609.46,716.7a243.08,243.08,0,0,1-109.15,25.71c-134.76,0-244-109.25-244-244s109.25-244,244-244a243,243,0,0,1,149.24,50.94"/><path class="cls-1" d="M522.34,754.51q-10.89.93-22,.93c-142,0-257-115.08-257-257,0-132.68,100.52-241.87,229.55-255.59"/><path class="cls-1" d="M234.25,545a271.46,271.46,0,0,1-4-46.63c0-149.16,120.91-270.07,270.07-270.07a269,269,0,0,1,118.06,27.1"/><path class="cls-1" d="M237.77,604.51A282.26,282.26,0,0,1,217.21,498.4c0-131.16,89.19-241.49,210.23-273.64"/><path class="cls-1" d="M282.91,699.48A295.08,295.08,0,0,1,204.18,498.4c0-163.55,132.58-296.14,296.13-296.14,110.69,0,207.19,60.73,258,150.68"/><path class="cls-1" d="M385.46,785.53c-113.88-45.59-194.31-157-194.31-287.13,0-160.08,121.65-291.74,277.55-307.57"/><path class="cls-1" d="M688.77,759.76A320.74,320.74,0,0,1,500.31,820.6c-177.94,0-322.2-144.25-322.2-322.2s144.26-322.2,322.2-322.2a323.7,323.7,0,0,1,60.54,5.68"/><path class="cls-1" d="M579.7,824.17a336.1,336.1,0,0,1-79.39,9.46c-185.14,0-335.23-150.09-335.23-335.23,0-141,87.11-261.75,210.46-311.24"/><path class="cls-1" d="M258.9,749.41a347.26,347.26,0,0,1-106.85-251c0-174.62,128.52-319.22,296.13-344.38"/><path class="cls-1" d="M333.25,818.83C217.81,758.52,139,637.66,139,498.4c0-199.54,161.76-361.29,361.29-361.29A359.94,359.94,0,0,1,739.48,227.6"/><path class="cls-1" d="M571.36,866a375.37,375.37,0,0,1-71.05,6.74C293.58,872.72,126,705.13,126,498.4c0-173.22,117.66-319,277.42-361.66"/><path class="cls-1" d="M711.73,823a385.56,385.56,0,0,1-211.42,62.73C286.38,885.75,113,712.33,113,498.4S286.38,111.05,500.31,111.05a385.72,385.72,0,0,1,173.81,41.09"/><path class="cls-1" d="M399.67,886C227.26,841.39,99.93,684.77,99.93,498.4,99.93,277.27,279.19,98,500.31,98a399.44,399.44,0,0,1,147.33,28"/><path class="cls-1" d="M180,759.82A411.67,411.67,0,0,1,86.9,498.4C86.9,290.92,239.74,119.14,439,89.5"/><path class="cls-1" d="M668.84,890.25a425.11,425.11,0,0,1-168.53,34.59c-235.52,0-426.44-190.92-426.44-426.44S264.79,72,500.31,72a424.52,424.52,0,0,1,245.31,77.58"/><path class="cls-1" d="M851.91,762.11c-80.18,106.73-207.83,175.77-351.6,175.77C257.6,937.88,60.83,741.12,60.83,498.4S257.6,58.92,500.31,58.92a439.63,439.63,0,0,1,126.57,18.5"/><path class="cls-1" d="M240.52,869C124,787.09,47.8,651.64,47.8,498.4c0-171,94.9-319.93,234.92-396.86"/><path class="cls-1" d="M576.86,957.67a468.75,468.75,0,0,1-76.55,6.27C243.2,963.94,34.77,755.51,34.77,498.4S243.2,32.86,500.31,32.86q20.12,0,39.8,1.68"/><path class="cls-1" d="M95.05,753.06A476.35,476.35,0,0,1,21.74,498.4C21.74,234.09,236,19.83,500.31,19.83A479.75,479.75,0,0,1,612.85,33.14"/><path class="cls-1" d="M500.31,990C228.81,990,8.71,769.91,8.71,498.4S228.81,6.8,500.31,6.8"/></svg>