<svg id="Layer_1" data-name="Layer 1" xmlns="http://www.w3.org/2000/svg" viewBox="0 0 1000 1000"><defs><style>.cls-1{fill:none;stroke:#f8a273;stroke-miterlimit:10;}</style></defs><title>circle-lins-ffa372-flip</title><path class="cls-1" d="M489.63,585.51a87.65,87.65,0,0,0,45.53-167.1"/><path class="cls-1" d="M456,589.29a100.65,100.65,0,1,0,13.65-187.12"/><path class="cls-1" d="M562.88,592.68A113.71,113.71,0,0,0,435.74,404.12"/><path class="cls-1" d="M406.34,584.53a126.67,126.67,0,1,0,55.42-207.21"/><path class="cls-1" d="M562.37,623.16a139.82,139.82,0,0,0-7.17-252.9"/><path class="cls-1" d="M647.33,536.43A153,153,0,0,0,541.84,351.6"/><path class="cls-1" d="M546.34,339.34a166.06,166.06,0,0,0-158.65,36.43"/><path class="cls-1" d="M529.71,661.44a165.87,165.87,0,0,0,16.63-322.1"/><path class="cls-1" d="M521.42,662.76c2.78-.37,5.55-.81,8.29-1.32"/><path class="cls-1" d="M465,674a178.9,178.9,0,0,0,80.55-348.39"/><path class="cls-1" d="M402.31,648.69A177.59,177.59,0,0,0,465,674"/><path class="cls-1" d="M358.26,628.5a191.37,191.37,0,0,0,141.05,61.79c106,0,191.89-85.91,191.89-191.89,0-91.89-64.59-168.69-150.84-187.49"/><path class="cls-1" d="M626.15,659.36A205,205,0,0,0,669.4,384.08"/><path class="cls-1" d="M692.63,599.14A217.06,217.06,0,0,0,717.26,498.4c0-120.37-97.58-217.95-217.95-217.95A216.92,216.92,0,0,0,382.92,314.1"/><path class="cls-1" d="M298.47,612.57A230.9,230.9,0,0,0,499.31,729.38c127.57,0,231-103.41,231-231s-103.41-231-231-231q-9.63,0-19.06.77"/><path class="cls-1" d="M390.16,716.7a243.08,243.08,0,0,0,109.15,25.71c134.76,0,244-109.25,244-244s-109.25-244-244-244a243,243,0,0,0-149.24,50.94"/><path class="cls-1" d="M477.28,754.51q10.89.93,22,.93c142,0,257-115.08,257-257,0-132.68-100.52-241.87-229.55-255.59"/><path class="cls-1" d="M765.37,545a271.46,271.46,0,0,0,4-46.63c0-149.16-120.91-270.07-270.07-270.07a269,269,0,0,0-118.06,27.1"/><path class="cls-1" d="M761.86,604.51A282.45,282.45,0,0,0,782.41,498.4c0-131.16-89.19-241.49-210.23-273.64"/><path class="cls-1" d="M716.71,699.48A295.08,295.08,0,0,0,795.44,498.4c0-163.55-132.58-296.14-296.13-296.14-110.69,0-207.19,60.73-258,150.68"/><path class="cls-1" d="M614.17,785.53C728,739.94,808.48,628.56,808.48,498.4c0-160.08-121.66-291.74-277.56-307.57"/><path class="cls-1" d="M310.85,759.76A320.74,320.74,0,0,0,499.31,820.6c177.94,0,322.2-144.25,322.2-322.2S677.25,176.2,499.31,176.2a323.7,323.7,0,0,0-60.54,5.68"/><path class="cls-1" d="M419.92,824.17a336.1,336.1,0,0,0,79.39,9.46c185.14,0,335.23-150.09,335.23-335.23,0-141-87.11-261.75-210.46-311.24"/><path class="cls-1" d="M740.72,749.41a347.26,347.26,0,0,0,106.85-251c0-174.62-128.52-319.22-296.13-344.38"/><path class="cls-1" d="M666.37,818.83C781.81,758.52,860.6,637.66,860.6,498.4c0-199.54-161.76-361.29-361.29-361.29A359.94,359.94,0,0,0,260.14,227.6"/><path class="cls-1" d="M428.26,866a375.37,375.37,0,0,0,71.05,6.74c206.73,0,374.32-167.59,374.32-374.32,0-173.22-117.66-319-277.42-361.66"/><path class="cls-1" d="M287.89,823a385.56,385.56,0,0,0,211.42,62.73c213.93,0,387.35-173.42,387.35-387.35S713.24,111.05,499.31,111.05A385.72,385.72,0,0,0,325.5,152.14"/><path class="cls-1" d="M600,886C772.36,841.39,899.69,684.77,899.69,498.4,899.69,277.27,720.43,98,499.31,98A399.44,399.44,0,0,0,352,126"/><path class="cls-1" d="M819.59,759.82A411.67,411.67,0,0,0,912.72,498.4c0-207.48-152.84-379.26-352.07-408.9"/><path class="cls-1" d="M330.79,890.25a425,425,0,0,0,168.52,34.59c235.52,0,426.45-190.92,426.45-426.44S734.83,72,499.31,72A424.52,424.52,0,0,0,254,149.53"/><path class="cls-1" d="M147.71,762.11c80.18,106.73,207.83,175.77,351.6,175.77,242.72,0,439.48-196.76,439.48-439.48S742,58.92,499.31,58.92a439.63,439.63,0,0,0-126.57,18.5"/><path class="cls-1" d="M759.1,869C875.64,787.09,951.82,651.64,951.82,498.4c0-171-94.9-319.93-234.92-396.86"/><path class="cls-1" d="M422.76,957.67a468.75,468.75,0,0,0,76.55,6.27c257.11,0,465.54-208.43,465.54-465.54S756.42,32.86,499.31,32.86q-20.12,0-39.8,1.68"/><path class="cls-1" d="M904.57,753.06A476.35,476.35,0,0,0,977.88,498.4c0-264.31-214.26-478.57-478.57-478.57A479.75,479.75,0,0,0,386.77,33.14"/><path class="cls-1" d="M499.31,990c271.5,0,491.6-220.09,491.6-491.6S770.81,6.8,499.31,6.8"/></svg>