<?xml version="1.0" encoding="utf-8"?>
<!-- Generator: Adobe Illustrator 23.0.1, SVG Export Plug-In . SVG Version: 6.00 Build 0)  -->
<svg version="1.1" id="Layer_1" xmlns="http://www.w3.org/2000/svg" xmlns:xlink="http://www.w3.org/1999/xlink" x="0px" y="0px"
	 viewBox="0 0 512 512" style="enable-background:new 0 0 512 512;" xml:space="preserve">
<style type="text/css">
	.st0{fill:#FF8776;}
	.st1{fill:#FFFFFF;}
</style>
<path class="st0" d="M430.9,479H81.1c-26.7,0-48.6-21.9-48.6-48.6V80.6C32.5,53.9,54.4,32,81.1,32h349.8c26.7,0,48.6,21.9,48.6,48.6
	v349.8C479.5,457.1,457.6,479,430.9,479z"/>
<path class="st1" d="M403.3,395.5h-42.9c-1.7-7-7.2-12.7-14.4-14.5l-10.3-2.6l13.1-63.3c2.5-12.2-4.4-24.6-16.3-28.7
	c-29.2-10.1-19.2-5.6-46.1-11.8c9.3-5.7,22.2-13.8,26.2-17.8c4.7-4.7,19-19.1,19-32.8c0-3.9-1.2-8.1-3.5-12.7l75-75
	c3.3-3.3,5.1-7.6,5.1-12.2c0-15.3-18.6-23-29.4-12.2c-1.9,1.9-1.9,4.9,0,6.7c1.9,1.9,4.9,1.9,6.7,0c4.9-4.9,13.2-1.4,13.2,5.5
	c0,2.1-0.8,4-2.3,5.5l-87.4,87.4c-3,3-0.8,8.1,3.4,8.1c2.6,0,3.3-1.4,8.6-6.6c0.8,2,1.2,3.9,1.2,5.5c0,6.5-5.5,15.3-16.3,26.1
	c-3.8,3.8-21.3,14.7-33,21.5l-16.1-2c-2.6-0.3-5,1.5-5.3,4.1c-0.3,2.6,1.5,5,4.1,5.3l17.4,2.2c40.4,9.9,24.5,3.2,56.4,14.2
	c7.3,2.5,11.6,10.2,10.1,17.8l-6,29.3h-15.5l2.5-22c0.3-2.6-1.6-5-4.3-5.3c-56.7-5.1-51.4,1.1-70.8-5.7c-1.3-0.4-3.2-1.2-4.6-1.9
	c-11.6-6-14.1-23.4-10.4-33.2c4.5-3.2,9-6.9,13.3-11c1.9-1.8,2-4.8,0.2-6.7c-1.8-1.9-4.8-2-6.7-0.2c-4.9,4.6-11,9.4-11.4,9.4
	c-1.2,0.3-1.5,0.7-6.3,3.8c-11.8,7.8-9.5,6.3-70.8,57.7l-37.1,24.7c-6.5,4.3-9.1,12.4-6.2,19.7c7.7,19.8,7.7,20.4,9.8,23.5h-6.2
	c-2.6,0-4.7,2.1-4.7,4.7c0,2.6,2.1,4.7,4.7,4.7h294.5c2.6,0,4.7-2.1,4.7-4.7C408,397.7,405.9,395.5,403.3,395.5L403.3,395.5z
	 M219.1,281.4c-0.8,12,3.8,25.5,13.7,32.6c-17.7,8.2-41.4,17.6-70.4,32.6l-5.4-13.9C204,293.3,211.9,286.4,219.1,281.4z
	 M116.6,360.3l32.4-21.6l5,12.8l-22,14c-1.6,1-2.5,2.9-2.1,4.8l4.4,25.2c-5.5,0.4-10.9-2.8-13-8.2l-7.2-18.6
	C112.8,365.5,113.9,362.1,116.6,360.3L116.6,360.3z M139.7,371.8c21.6-13.8,24.8-17.2,78.7-40.9c9.7-4.3,18.2-8,25.5-11.7
	c19.5,6.2,18.1,1,66.3,5.1c-6.9,60.6-5.2,48.8-8,60.2c-0.9,3.8-0.5,7.6,1.1,11H143.9L139.7,371.8z M318.2,395.5
	c-4.6,0-7.9-4.3-6.8-8.7c3-12.2,1.7-4.1,5.2-34.8h14.7l-6,29c-0.5,2.5,1,4.9,3.5,5.6l14.7,3.7c3,0.7,5.3,2.7,6.7,5.3L318.2,395.5z"
	/>
<path class="st1" d="M269,154.9c0.7,9.3,4.5,18,10.9,24.8c-4.3,17.4-10.8,33.5-19.6,47.8c-1.4,2.2-0.7,5.2,1.6,6.5
	c2.3,1.4,5.2,0.7,6.5-1.6c8.5-13.9,15-29.3,19.5-45.9c2.4,1.5,4.9,2.8,7.5,3.9l2.6,2l-7,7c-3,3-0.8,8.1,3.4,8.1
	c1.2,0,2.4-0.5,3.4-1.4c49.4-49.4-38.6,38.6,60.9-60.9c9-9,13.9-20.9,13.9-33.5c0-2.6-2.1-4.7-4.7-4.7c-2.6,0-4.7,2.1-4.7,4.7
	c0,10.1-3.9,19.6-11.1,26.8l-20.6,20.6c0-11,0.8-17.3-4-25.8c-8.2-14.4-26.7-19.7-41.6-12.2c-7.1-12.2-25.8-10.5-30.5,2.8l-3.2,9.1
	C248.3,144.1,257,155.6,269,154.9L269,154.9z M317.6,135.7c-4.5,6.2-11.7,9.9-19.4,10c-6.9,0.1-6.5,9.5-0.3,9.5
	c8.9,0,17.5-3.5,23.8-9.7c0.3,1.9,0.2,0.7,0.2,23.1l-15,15c-6.2-0.8-11.8-3.3-16.3-6.9l4-9.9c1.1-2.7-0.4-5.7-3.4-6.4
	c-2.2-0.5-4.6,0.7-5.5,2.9l-2.3,5.7c-3.3-5-5-10.9-5-17c0-0.6-0.1-0.4,0.3-0.8c2.5-2,4.3-4.7,5.2-7.3c3.2-9,3.8-10.4,4.1-13
	C297.5,124.6,310.6,126.6,317.6,135.7L317.6,135.7z M261.2,136.2l3.2-9.1c1-2.9,3.9-4.8,6.9-4.8c5,0,8.5,4.7,6.9,9.3
	c-3.1,8.8-3.3,11.1-6.3,12.8C265.8,147.9,259,142.2,261.2,136.2z"/>
<path class="st1" d="M250.1,249.8c2,1.6,5,1.3,6.7-0.7c0.2-0.3,0.5-0.6,0.7-0.9c1.6-2.1,1.3-5-0.8-6.7c-2.1-1.6-5-1.3-6.7,0.8
	c-0.2,0.3-0.4,0.6-0.7,0.9C247.7,245.2,248,248.2,250.1,249.8L250.1,249.8z"/>
</svg>
