<?xml version="1.0" encoding="utf-8"?>
<!-- Generator: Adobe Illustrator 23.0.1, SVG Export Plug-In . SVG Version: 6.00 Build 0)  -->
<svg version="1.1" id="Layer_1" xmlns="http://www.w3.org/2000/svg" xmlns:xlink="http://www.w3.org/1999/xlink" x="0px" y="0px"
	 viewBox="0 0 512 512" style="enable-background:new 0 0 512 512;" xml:space="preserve">
<style type="text/css">
	.st0{fill:#FFE2D7;}
</style>
<path class="st0" d="M207.3,258c-0.8-3.8-4.6-6.1-8.4-5.3c-3.8,0.8-6.1,4.6-5.3,8.4c1.4,6.1,3.1,12.4,5.1,18.6
	c1.2,3.7,5.1,5.7,8.8,4.5c3.7-1.2,5.7-5.1,4.5-8.8C210.2,269.5,208.6,263.7,207.3,258z"/>
<path class="st0" d="M506.6,215.1c-32.7-6.4-66.3-6.7-99.1-0.8c5.9-32.8,5.6-66.4-0.9-99.2c0-0.2-0.1-0.3-0.1-0.5
	c-1.1-3.7-5.1-5.8-8.7-4.6c-31.5,10.8-60.8,27.3-86.2,48.8c-11.3-31.4-28.4-60.3-50.4-85.4c0,0,0,0-0.1-0.1
	c-2.8-2.8-7.4-2.8-10.2,0.1c-22,25.1-39.1,54-50.4,85.4c-25.5-21.5-54.7-38-86.2-48.8c-0.2-0.1-0.3-0.1-0.5-0.1
	c-3.8-0.9-7.5,1.5-8.4,5.3c-6.5,32.7-6.8,66.3-0.9,99.2c-32.8-5.9-66.4-5.6-99.1,0.8c-0.2,0-0.3,0.1-0.5,0.1
	c-3.7,1.1-5.8,5.1-4.6,8.8c1.1,3.4,25.7,81.4,90.8,123.3c2.2,1.3,12.2,7.4,21.6,11.8c29.1,12.7,60.6,19,92.4,18.5
	c17.1,0.1,34.2-1.5,51-4.8c16.8,3.2,33.9,4.8,51,4.8c32.3,0.5,64.3-6.1,93.8-19.2c0,0,9.6-4.2,15.8-8.1c-0.1-0.1-0.2-0.1-0.3-0.2v0
	c68.5-41.1,94.4-122.7,95.4-126.2c0.1-0.2,0.1-0.3,0.1-0.5C512.7,219.7,510.3,216,506.6,215.1z M105.1,339.5
	c-53.7-31-80.7-91.2-88.7-112.2c30.4-4.8,61.4-4.1,91.5,1.9c4.1,15.9,10.3,31.1,18.4,45.3c27.3,47.2,73.8,74.6,102.6,87.8
	C199,365,148.2,364.4,105.1,339.5z M229.3,315.1c-1.9-3.4-6.1-4.6-9.5-2.8c-3.4,1.9-4.6,6.1-2.8,9.5c5.2,9.5,10.9,18.7,17.2,27.6
	c-27.1-12.7-70.9-38.6-95.8-81.8l0,0c-31-53.8-24.3-119.3-20.8-141.6c28.7,11,55.2,27.1,78.3,47.5c-4.4,15.8-6.7,32-6.7,48.4
	c0,3.9,3.1,7,7,7c3.9,0,7-3.1,7-7c0-62,38.6-115.4,52.8-133c14.2,17.5,52.8,70.9,52.8,133s-38.6,115.5-52.8,133
	C245.9,342.4,237,329.1,229.3,315.1z M322.8,221.9c-0.1-16.4-2.4-32.6-6.7-48.4h0c23.1-20.3,49.6-36.4,78.3-47.5
	c3.5,22.2,10.3,87.8-20.8,141.5c-24.9,43.1-68.6,69-95.7,81.7C296.2,323.4,322.8,276.4,322.8,221.9z M406.9,339.5
	c-43.2,24.9-93.9,25.5-123.8,22.9c28.8-13.2,75.3-40.6,102.6-87.8c8.1-14.2,14.3-29.5,18.4-45.3c30.2-6.1,61.2-6.7,91.5-1.9
	C487.6,248.4,460.6,308.5,406.9,339.5z"/>
</svg>
