<?xml version="1.0" encoding="utf-8"?>
<!-- Generator: Adobe Illustrator 24.1.0, SVG Export Plug-In . SVG Version: 6.00 Build 0)  -->
<svg version="1.1" id="Layer_1" xmlns="http://www.w3.org/2000/svg" xmlns:xlink="http://www.w3.org/1999/xlink" x="0px" y="0px"
	 viewBox="0 0 200 200" style="enable-background:new 0 0 200 200;" xml:space="preserve">
<style type="text/css">
	.st0{fill-rule:evenodd;clip-rule:evenodd;fill:#ED6663;}
	.st1{fill-rule:evenodd;clip-rule:evenodd;fill:#0F4C81;}
</style>
<g>
	<path class="st0" d="M58.43,148.82v6.71h1.51v-1.92h1.33c1.71,0,2.68-0.9,2.68-2.46c0-1.49-0.98-2.33-2.68-2.33H58.43L58.43,148.82
		z M59.94,150.07h1.26c0.84,0,1.32,0.37,1.32,1.12c0,0.77-0.48,1.15-1.32,1.15h-1.26V150.07L59.94,150.07z M75.37,155.52h1.71
		l-1.43-2.21c0.81-0.38,1.25-1.13,1.25-2.16c0-1.49-1-2.33-2.75-2.33h-2.91v6.71h1.51v-1.92h1.4h0.14L75.37,155.52L75.37,155.52z
		 M72.77,152.34v-2.27h1.4c0.83,0,1.31,0.37,1.31,1.12c0,0.77-0.48,1.15-1.31,1.15H72.77L72.77,152.34z M89.63,150.07v-1.25h-5.11
		v6.71h5.21v-1.25h-3.7v-1.48h3.24v-1.25h-3.24v-1.46H89.63L89.63,150.07z M104.53,155.52v-6.71h-1.69l-1.94,4.1l-1.95-4.1h-1.7
		v6.71h1.37V151l1.78,3.84h0.99l1.78-3.84v4.52H104.53L104.53,155.52z M113.86,155.52v-6.71h-1.51v6.71H113.86L113.86,155.52z
		 M127.61,148.82h-1.51v3.9c0,0.97-0.59,1.55-1.49,1.55c-0.9,0-1.53-0.58-1.53-1.55v-3.9h-1.51v3.9c0,1.77,1.19,2.87,3.05,2.87
		c1.85,0,3.01-1.1,3.01-2.87V148.82L127.61,148.82z M142.57,155.52v-6.71h-1.69l-1.94,4.1l-1.95-4.1h-1.7v6.71h1.37V151l1.78,3.84
		h0.99l1.78-3.84v4.52H142.57z"/>
	<path class="st1" d="M34.99,118.65v15.86h3.58v-4.53h3.15c4.03,0,6.34-2.13,6.34-5.82c0-3.51-2.31-5.51-6.34-5.51H34.99
		L34.99,118.65z M38.57,121.62h2.97c1.99,0,3.13,0.88,3.13,2.65c0,1.81-1.13,2.72-3.13,2.72h-2.97V121.62L38.57,121.62z
		 M61.75,118.53c-4.85,0-8.52,3.42-8.52,8.04c0,4.6,3.67,8.09,8.52,8.09c4.85,0,8.52-3.51,8.52-8.09
		C70.27,121.98,66.59,118.53,61.75,118.53L61.75,118.53z M61.79,121.66c2.65,0,4.8,2.13,4.8,4.92s-2.15,4.96-4.8,4.96
		c-2.65,0-4.89-2.17-4.89-4.96S59.12,121.66,61.79,121.66L61.79,121.66z M76.62,118.65v15.86h6.59c5.01,0,8.47-3.26,8.47-7.93
		c0-4.69-3.42-7.93-8.34-7.93H76.62L76.62,118.65z M80.21,121.66h3.08c2.72,0,4.76,2.02,4.76,4.94c0,2.9-1.95,4.89-4.6,4.89h-3.24
		V121.66L80.21,121.66z M109.29,121.68v-3.04H96.04v3.04h4.83v12.82h3.58v-12.82H109.29L109.29,121.68z M124.04,131.43l1.25,3.08
		h3.83l-6.77-15.86h-3.69l-6.89,15.86h3.69l1.25-3.08H124.04L124.04,131.43z M122.88,128.55h-5.01l2.52-6.16L122.88,128.55
		L122.88,128.55z M138.35,131.38v-12.73h-3.58v15.86h10.38v-3.13H138.35L138.35,131.38z M161.7,134.51h4.31l-6.37-9.25l5.96-6.62
		h-4.15l-6.59,7.21v-7.21h-3.58v15.86h3.58v-3.92l2.29-2.54L161.7,134.51z"/>
	<path class="st0" d="M100.5,45.41c3.97,0,7.58,1.62,10.19,4.24c2.61,2.61,4.24,6.22,4.24,10.19v12.42c0,3.97-1.62,7.58-4.24,10.19
		c-2.47,2.47-5.83,4.05-9.54,4.22l-10.88,6.28l-4.31,2.49l0.74-4.92l1.6-10.6c-0.62-0.99-1.13-2.06-1.5-3.19
		c-0.46-1.42-0.72-2.92-0.72-4.47V59.84c0-3.97,1.62-7.58,4.23-10.19C92.92,47.04,96.53,45.41,100.5,45.41L100.5,45.41z
		 M94.2,100.61v4.81h12.61v-4.81h-3.9v-4.23c5.73-0.57,10.88-3.13,14.74-6.98c4.39-4.39,7.1-10.45,7.1-17.14h0V61.44h-4.81v10.82h0
		c0,5.37-2.18,10.23-5.69,13.74c-3.52,3.52-8.38,5.69-13.74,5.69c-1.12,0-2.23-0.1-3.3-0.28l-5.95,3.26
		c2.14,0.89,4.44,1.47,6.84,1.71v4.23H94.2L94.2,100.61z M76.26,72.26V61.44h4.81v10.82h0c0,4.61,1.6,8.84,4.28,12.17l-1,5.91
		c-0.34-0.3-0.67-0.62-0.99-0.94C78.97,85.01,76.26,78.95,76.26,72.26L76.26,72.26L76.26,72.26z M107.29,53.05
		c-1.74-1.74-4.15-2.83-6.79-2.83c-2.64,0-5.05,1.08-6.79,2.83c-1.74,1.74-2.83,4.15-2.83,6.79v12.42c0,1.05,0.17,2.05,0.47,2.99
		c0.32,0.97,0.79,1.88,1.39,2.69l0.59,0.8l-0.15,0.98l-0.99,6.6l7.11-4.11l0.57-0.33h0.62c2.64,0,5.05-1.08,6.79-2.83
		c1.74-1.74,2.83-4.15,2.83-6.79V59.84C110.12,57.2,109.03,54.79,107.29,53.05z"/>
</g>
</svg>
