<?xml version="1.0" encoding="utf-8"?>
<!-- Generator: Adobe Illustrator 23.0.1, SVG Export Plug-In . SVG Version: 6.00 Build 0)  -->
<svg version="1.1" id="Layer_1" xmlns="http://www.w3.org/2000/svg" xmlns:xlink="http://www.w3.org/1999/xlink" x="0px" y="0px"
	 viewBox="0 0 511 512" style="enable-background:new 0 0 511 512;" xml:space="preserve">
<style type="text/css">
	.st0{fill:#FF8776;}
	.st1{fill:#FFFFFF;}
</style>
<path class="st0" d="M433,479H83.2c-26.7,0-48.6-21.9-48.6-48.6V80.6C34.6,53.9,56.4,32,83.2,32H433c26.7,0,48.6,21.9,48.6,48.6
	v349.8C481.6,457.1,459.7,479,433,479z"/>
<path class="st1" d="M206.1,372.2c1.6,0,3.2-0.6,4.3-1.8s1.8-2.7,1.8-4.3s-0.6-3.2-1.8-4.3c-1.1-1.1-2.7-1.8-4.3-1.8
	c-1.6,0-3.2,0.6-4.3,1.8s-1.8,2.7-1.8,4.3s0.6,3.2,1.8,4.3C203,371.6,204.5,372.2,206.1,372.2z"/>
<path class="st1" d="M405.4,398.9h-29.1l-11.1-19.8v-54c0-12.7-8.2-23.8-20.3-27.6l-46.4-14.4V234c0-4.6-1.4-8.9-3.7-12.5
	c13.2-4.5,22.7-17.1,22.7-31.8c0-17.5-13.5-31.9-30.6-33.5v-24.9c0-16.7-13.6-30.3-30.3-30.3c-3.3,0-6.1,2.7-6.1,6.1v48.3
	c0,0-0.1,0-0.1,0c-5.3-0.1-10.2,1.9-14,5.5s-5.9,8.6-6,13.8c-0.2,10.9,8.5,19.9,19.3,20.1l0.4,0c-1.1,9.9-4,19.7-8.7,28.7
	c-1.7,3.2-2.5,6.8-2.5,10.5V286l-14.6,26.3l-78.1,49.1c-7.4,4.7-11.9,12.7-11.9,21.5v16h-26.6c-3.3,0-6.1,2.7-6.1,6.1
	s2.7,6.1,6.1,6.1h297.9c3.3,0,6.1-2.7,6.1-6.1S408.8,398.9,405.4,398.9z M305.3,189.7c0,10.8-8.1,19.8-18.5,21.3v-42.6
	C297.2,169.9,305.3,178.9,305.3,189.7z M262.5,114.1c7.1,2.5,12.1,9.2,12.1,17.2V218c0,2.6,1.7,5,4.2,5.8c4.4,1.4,7.4,5.5,7.4,10.2
	v47.6h-35.4V234c0-1.7,0.4-3.4,1.2-4.9c6.8-13.2,10.5-27.9,10.5-42.4V114.1z M244.5,180.4c-1.4-1.5-2.2-3.4-2.1-5.4
	c0-2,0.9-3.9,2.3-5.3c1.4-1.4,3.3-2.1,5.3-2.1c0.1,0,0.2,0,0.3,0c0.1,0,0.1,0,0.2,0v15.2l-0.6,0
	C247.8,182.6,245.9,181.8,244.5,180.4z M193.1,372.6c-1.5-3-5.1-4.2-8.1-2.8L158.2,383c-0.4,0.2-0.8,0.4-1.1,0.7l-10.7,8.6v-9.4
	c0-4.6,2.3-8.8,6.2-11.2l79.5-50c0.9-0.5,1.6-1.3,2.1-2.2l14.4-25.9h32.7l-17.5,26.3c-7.3,11-17.4,19.8-29.2,25.6l-12.5,6.2
	c-3,1.5-4.2,5.1-2.8,8.1c1.5,3,5.1,4.2,8.1,2.8l12.5-6.2c13.7-6.7,25.5-17,34-29.8l4.8-7.1l49.5,18.2v56c0,1.8,0.3,3.6,0.8,5.2
	H157.4l6.7-5.3l26.2-12.9C193.3,379.2,194.6,375.6,193.1,372.6z M345.2,398.9c-2.9,0-5.2-2.3-5.2-5.2v-60.2c0-2.5-1.6-4.8-4-5.7
	l-50.8-18.7l6.6-9.9l3-4.5l46.4,14.4c7.1,2.2,11.8,8.6,11.8,16v55.5c0,1,0.3,2.1,0.8,3l8.5,15.2H345.2z"/>
</svg>
