<?xml version="1.0" encoding="utf-8"?>
<!-- Generator: Adobe Illustrator 23.0.1, SVG Export Plug-In . SVG Version: 6.00 Build 0)  -->
<svg version="1.1" id="Layer_1" xmlns="http://www.w3.org/2000/svg" xmlns:xlink="http://www.w3.org/1999/xlink" x="0px" y="0px"
	 viewBox="0 0 512 512" style="enable-background:new 0 0 512 512;" xml:space="preserve">
<style type="text/css">
	.st0{fill:#FF8776;}
	.st1{fill:#FFFFFF;}
</style>
<path class="st0" d="M431.4,479.5H81.6c-26.7,0-48.6-21.9-48.6-48.6V81.1c0-26.7,21.9-48.6,48.6-48.6h349.8
	c26.7,0,48.6,21.9,48.6,48.6v349.8C480,457.6,458.1,479.5,431.4,479.5z"/>
<path class="st1" d="M408.4,403.5h-40.1c18.8-17.8,13-48.4-10-58.7c-0.5-0.2,3.2,0.9-55.1-16.1c0-6.4,0.1-12,0.2-16.8h35.4
	c20.1,0,30.8-23.3,18.5-38.6l-9.3-11.7c-1.7-2.1-4.8-2.5-6.9-0.8c-2.1,1.7-2.5,4.8-0.8,6.9l9.3,11.7c7.2,9,0.9,22.6-10.9,22.6
	c-81.1,0-75.4,0.4-76.9-1c-1.5-1.5-1.1,1.2-1.1-47.6c7.4,3.8,9.8,20,9.8,28.2c0,2.7,2.2,4.9,4.9,4.9H319c4.1,0,6.4-4.7,3.9-8
	l-23.6-30.1c-1.7-2.1-4.8-2.5-6.9-0.8c-2.1,1.7-2.5,4.8-0.8,6.9l7.3,9.3c-1.1,4.2-2,8.2-2.8,12.9h-15.6
	c-1.3-16.7-7.8-34.8-24.4-33.9c-16.6-0.9-23.1,17.1-24.4,33.9H216c-0.7-4.6-1.6-8.6-2.8-12.9l7.3-9.3c1.7-2.1,1.3-5.2-0.8-6.9
	c-2.1-1.7-5.2-1.3-6.9,0.8l-23.6,30.1c-2.5,3.2-0.2,8,3.9,8h43.3c2.7,0,4.9-2.2,4.9-4.9c0-8.2,2.5-24.4,9.8-28.2
	c0,48.8,0.4,46.1-1,47.6c-1.5,1.5,4.5,1.1-76.9,1.1c-11.8,0-18.1-13.6-10.9-22.6l39.9-49.8c10-7.2,21.8-10.9,34.2-10.9
	c40,0,54.6-2.5,73.4,10.7l5.6,7c1.7,2.1,4.8,2.5,6.9,0.8c2.1-1.7,2.5-4.8,0.8-6.9c-6.4-8-6.2-7.9-7-8.5
	c-10.9-7.8-23.8-12.3-37.1-12.9c4.1-4.5,5.2-8.1,9.3-17.4c4.3-9.8,6.7-20.6,6.7-31.7c0-11.5-6-22.6-16.9-29.5
	c0-10.1,1.1-17.7-6.4-25.2c-13.7-13.6-37.3-4.1-37.3,15.5v9.8c-10.2,6.4-16.9,17.2-16.9,29.5c0,10.9,2.3,21.6,6.7,31.7
	c4.4,10.1,5.4,13.1,9.3,17.4c-14,0.6-27,5.5-37.4,13.2c-0.8,0.6,1.8-2.5-41.2,51.2c-12.5,15.6-1.2,38.6,18.5,38.6h35.4
	c0.1,4.9,0.1,10.4,0.2,16.8c-58.3,17-54.6,15.9-55,16.1c-23,10.2-28.7,41-10,58.7h-40.1c-2.7,0-4.9,2.2-4.9,4.9
	c0,2.7,2.2,4.9,4.9,4.9h304.8c2.7,0,4.9-2.2,4.9-4.9C413.3,405.7,411.1,403.5,408.4,403.5z M306.5,273.7l2.3,3H306
	C306.1,275.6,306.3,274.6,306.5,273.7z M205.5,273.7c0.2,1,0.4,2,0.6,3h-2.9L205.5,273.7z M244,120.5c0-10.7,13-16.1,20.5-8.5
	c4.1,4.1,3.5,8.4,3.5,13.8c-7.8-2.3-16.2-2.3-24.1,0L244,120.5L244,120.5z M235.3,141.7c14.7-13.3,39.9-8.8,47.6,8.5
	c-13.4-2.7-21.8,2.7-28.8,7.2c-8.1,5.2-14.1,9.1-27.1,2.6C227,152.7,230.2,146.4,235.3,141.7L235.3,141.7z M228,171.1
	c13.1,4.8,21.3,1.2,31.5-5.4c7.2-4.7,13.6-8.7,25.5-4.7c-0.3,16-5.7,26.2-10.2,36.5c-6.6,15.1-30.8,15.1-37.5,0
	C232.7,187.1,229.7,181.2,228,171.1z M216.5,388.7c-6,3-13.1,5.5-15.6,14.7h-7.8v-20.6L216.5,388.7z M211.6,403.4
	c1.7-2.6,1.8-2.2,21.2-11.9c0.1-0.1,0.3-0.2,0.5-0.3c9.2-6.1,10.5-7.7,15.3-7.7c4.9,0,9.2,3.1,10.7,7.7l0.5,1.6
	c0.8,2.4,3.4,3.8,5.9,3.2l53.2-13.3v20.6L211.6,403.4L211.6,403.4z M142.3,377.5c0-10.2,6-19.4,15.1-23.5l57-16.7h53.4
	c2.7,0,4.9-2.2,4.9-4.9c0-2.7-2.2-4.9-4.9-4.9h-49.2c0-5.9-0.1-11-0.1-15.6h29.1c3.1,0,6.1-1.1,8.5-3c2.4,2,5.4,3,8.5,3h29.1
	c-0.1,6.8-0.2,13.8-0.2,20.5c0,1,0.3,1.9,0.8,2.7c1.4,2.1-2.2,0.5,60.3,18.8c16.3,7.5,20.3,29.1,7.5,41.9
	c-4.9,4.9-11.4,7.6-18.3,7.6h-15.1v-23l4.8-1.2c2.6-0.7,4.2-3.3,3.6-6c-0.7-2.6-3.3-4.2-6-3.6l-63.6,15.9
	c-5.8-11.9-20.7-15.1-31.1-8.2l-6.7,4.5l-48.7-12.2c-2.6-0.7-5.3,0.9-6,3.6c-0.7,2.6,0.9,5.3,3.6,6l4.8,1.2v23h-15.1
	C153.9,403.4,142.3,391.8,142.3,377.5L142.3,377.5z"/>
<path class="st1" d="M328.3,252.7c1.7,2.1,4.8,2.5,6.9,0.8c2.1-1.7,2.5-4.8,0.8-6.9l-0.8-1c-1.7-2.1-4.8-2.5-6.9-0.8
	c-2.1,1.7-2.5,4.8-0.8,6.9L328.3,252.7z"/>
</svg>
