<svg xmlns="http://www.w3.org/2000/svg" viewBox="0 0 564.33 371.78"><defs><style>.cls-1{font-size:47.37px;fill:#5c5c5c;font-family:Montserrat-Bold, Montserrat;font-weight:700;}.cls-2{letter-spacing:-0.03em;}.cls-3{fill:#ff8776;}.cls-4{fill:#9972ea;}</style></defs><title>yoga1-logo</title><g id="Layer_2" data-name="Layer 2"><g id="background"><text class="cls-1" transform="translate(123.68 302.34)">MEDI<tspan class="cls-2" x="131.68" y="0">TA</tspan><tspan x="193.92" y="0">TION</tspan><tspan x="58.17" y="56.84">CENTER</tspan></text><path class="cls-3" d="M232.73,187.52a72.7,72.7,0,0,1-7.51.66c-1.26.06-2.52.1-3.78.11s-2.52,0-3.78,0c-2.52,0-5-.18-7.57-.38s-5-.49-7.56-.82-5-.79-7.53-1.28-5-1.1-7.47-1.76-4.93-1.43-7.38-2.26-4.85-1.8-7.24-2.82-4.73-2.17-7-3.41a75.44,75.44,0,0,1-6.78-4.06c-2.19-1.47-4.34-3-6.4-4.73a80,80,0,0,1-5.88-5.48,63,63,0,0,1-5.22-6.17,64.87,64.87,0,0,1-4.42-6.8,63.65,63.65,0,0,1-3.48-7.32,64.82,64.82,0,0,1-2.51-7.67l-1-3.68,3-2c.43-.28.73-.44,1.08-.65s.66-.37,1-.56c.66-.37,1.31-.71,2-1s1.31-.65,2-1,1.32-.62,2-.9c1.34-.55,2.66-1.14,4-1.62s2.7-1,4.07-1.43l2-.65c.68-.23,1.38-.39,2.06-.59s1.38-.38,2.07-.56,1.38-.35,2.08-.5c1.39-.3,2.78-.63,4.17-.9l4.2-.69c.7-.13,1.4-.21,2.11-.28s1.4-.16,2.11-.23l2.11-.22c.7-.08,1.41-.08,2.11-.13,1.41-.08,2.82-.12,4.22-.19s2.82,0,4.22,0,2.8,0,4.2.19,2.78.23,4.17.37,2.77.39,4.14.6,2.74.47,4.1.74c-1.38.17-2.76.34-4.13.48l-2,.22c-.34,0-.68.05-1,.1l-1,.15c-1.36.22-2.71.4-4.06.59l-1,.15a9.19,9.19,0,0,0-1,.16l-2,.38c-1.33.26-2.66.47-4,.74s-2.63.62-3.94.9c-.65.16-1.31.27-2,.46l-1.94.53c-.65.19-1.29.36-1.94.53s-1.29.33-1.92.54l-3.82,1.2c-1.26.42-2.51.88-3.76,1.32s-2.46,1-3.7,1.42c-.61.25-1.23.47-1.84.74l-1.81.79c-.6.27-1.21.51-1.8.8l-1.77.85c-1.2.53-2.34,1.16-3.5,1.75-.58.3-1.13.63-1.7.94l-.84.47-.83.49c-.55.32-1.1.64-1.62,1-.26.17-.54.33-.77.49s-.53.35-.66.46l2-5.66c.72,2.17,1.53,4.3,2.44,6.37a56.21,56.21,0,0,0,3.12,6,58.14,58.14,0,0,0,3.77,5.63c.33.45.7.88,1.05,1.33l.53.66.56.64c.37.43.72.87,1.11,1.29l1.14,1.26q2.35,2.48,5,4.73c1.72,1.51,3.54,2.94,5.42,4.3s3.83,2.65,5.82,3.87,4.06,2.37,6.15,3.48,4.24,2.13,6.42,3.12,4.38,1.91,6.63,2.78,4.5,1.73,6.79,2.5,4.61,1.54,6.94,2.24,4.69,1.37,7.06,2,4.76,1.23,7.16,1.8l3.61.82,3.64.78C227.82,186.61,230.26,187.09,232.73,187.52Z"/><path class="cls-3" d="M219.79,130.7a54.27,54.27,0,0,1-4.51-4.59c-1.43-1.61-2.77-3.29-4.07-5s-2.53-3.5-3.68-5.32l-.88-1.37-.83-1.4-.83-1.4-.78-1.42-.79-1.44-.72-1.46-.74-1.46c-.24-.49-.46-1-.69-1.49-.45-1-.9-2-1.3-3s-.85-2-1.22-3.06-.73-2.07-1.09-3.11l-1-3.17c-.32-1.06-.57-2.14-.84-3.21s-.49-2.17-.71-3.26-.46-2.18-.6-3.29-.35-2.21-.46-3.32l-.3-3.35c-.1-1.12-.1-2.24-.14-3.37,0-.56,0-1.12,0-1.69l0-1.69.05-1.69c0-.56,0-1.13.09-1.69l.32-3.38c0-.56.15-1.12.23-1.68l.26-1.68.27-1.68.37-1.66c.25-1.1.5-2.21.78-3.31.66-2.16,1.24-4.36,2.1-6.46.41-1,.79-2.12,1.24-3.16l1.43-3.07c.25-.5.46-1,.74-1.52l.81-1.47L204,33.42l2.12-3.78L210,31l.56.19.49.18.93.37c.62.25,1.22.51,1.81.77,1.19.53,2.36,1.08,3.5,1.68s2.27,1.19,3.39,1.82l1.65,1L224,38l1.6,1,1.58,1.08,1.55,1.11c.51.38,1,.78,1.52,1.17s1,.79,1.49,1.19,1,.81,1.46,1.23c1,.81,1.89,1.69,2.82,2.55s1.82,1.77,2.68,2.71,1.7,1.88,2.53,2.83,1.61,1.94,2.34,3c.38.51.76,1,1.12,1.52s.71,1.05,1.06,1.57.67,1.05,1,1.59.67,1.06,1,1.61c.59,1.1,1.22,2.17,1.74,3.31.27.57.55,1.12.8,1.69L251,68.9c.25.56.45,1.15.65,1.73s.4,1.17.6,1.75c-.8-.95-1.53-1.92-2.33-2.84l-1.17-1.39c-.39-.46-.81-.9-1.21-1.35-.8-.9-1.64-1.76-2.46-2.62s-1.68-1.69-2.56-2.49l-1.3-1.2c-.44-.4-.89-.78-1.33-1.17s-.89-.77-1.35-1.14l-1.36-1.12c-.93-.72-1.84-1.45-2.79-2.12s-1.9-1.37-2.85-2-1.94-1.28-2.92-1.9c-.49-.32-1-.62-1.48-.92s-1-.6-1.5-.88c-1-.58-2-1.13-3-1.69l-1.54-.8L219.48,46c-1-.5-2.07-1-3.12-1.47s-2.1-.92-3.16-1.35-2.12-.82-3.18-1.2c-.53-.19-1.06-.38-1.58-.55l-.78-.24-.37-.12-.17-.05-.14,0,6-2.41-1.28,2.65-.65,1.32c-.22.44-.38.9-.58,1.35l-1.13,2.7c-.37.9-.65,1.84-1,2.75l-.49,1.37c-.17.45-.27.93-.42,1.4l-.81,2.79c-.24.94-.43,1.9-.66,2.84l-.32,1.42-.24,1.44c-.15,1-.36,1.91-.48,2.87l-.34,2.91c-.07.48-.1,1-.13,1.45l-.09,1.47-.1,1.46c0,.49,0,1,0,1.47l0,1.47c0,.49,0,1,0,1.47l.09,3c0,1,.13,2,.19,3,0,.49.05,1,.11,1.48l.16,1.48c.18,2,.54,4,.83,5.93l.54,3,.65,3c.45,2,.94,3.94,1.51,5.89.14.49.26,1,.41,1.47l.44,1.47.45,1.47.49,1.46.48,1.46.51,1.46c.35,1,.7,1.94,1.07,2.91s.73,1.93,1.12,2.9.78,1.92,1.18,2.89l1.24,2.88L217,125C217.89,126.89,218.8,128.8,219.79,130.7Z"/><path class="cls-3" d="M177.18,217.28a24.68,24.68,0,0,1-3.55-.35c-1.17-.19-2.33-.42-3.47-.71s-2.28-.62-3.4-1-2.24-.76-3.33-1.2-2.19-.89-3.26-1.41c-.54-.25-1.07-.51-1.6-.78s-1-.54-1.57-.83c-1.05-.56-2.06-1.18-3.08-1.8s-2-1.3-3-2-1.92-1.43-2.86-2.19-1.84-1.55-2.72-2.38-1.74-1.69-2.59-2.56-1.64-1.79-2.41-2.74-1.52-1.93-2.23-2.92c-.36-.5-.7-1-1-1.52s-.67-1-1-1.57l-.93-1.59c-.29-.54-.57-1.1-.85-1.65l-.42-.82-.38-.85-.74-1.7-1.42-3.26,2.09-2.14,1.28-1.26c.43-.4.85-.8,1.29-1.19.86-.78,1.73-1.54,2.63-2.27.45-.37.9-.74,1.36-1.09l1.39-1.06c.93-.69,1.91-1.34,2.88-2,.47-.33,1-.62,1.49-.93s1-.61,1.52-.89l1.55-.84,1.6-.76c.53-.26,1.09-.47,1.64-.69l.83-.32c.27-.1.57-.18.85-.27.57-.18,1.13-.36,1.71-.49s1.17-.23,1.75-.32c-.39.46-.78.89-1.17,1.31a7.07,7.07,0,0,0-.56.65l-.55.64c-.37.42-.73.86-1.08,1.29s-.71.85-1,1.3-.67.88-1,1.29l-1,1.31c-.67.87-1.33,1.75-2,2.62l-1,1.3-1,1.31-2,2.62L143,183.2l-1,1.3c-.31.42-.64.87-.9,1.26l.66-5.4.81,1.3.4.65.43.64.84,1.27.88,1.25c.28.43.59.83.9,1.24s.6.83.92,1.23c.64.8,1.24,1.62,1.92,2.4s1.34,1.57,2,2.37l1,1.16c.34.39.7.77,1.06,1.15s.69.77,1.06,1.14.73.75,1.09,1.14c.75.74,1.47,1.51,2.24,2.24s1.52,1.47,2.29,2.22L162,204l2.41,2.18c.82.73,1.62,1.48,2.46,2.19s1.66,1.47,2.51,2.19,1.69,1.47,2.55,2.22l2.59,2.23C175.41,215.72,176.29,216.49,177.18,217.28Z"/><path class="cls-3" d="M170.3,119.42a26.25,26.25,0,0,1-2.73-2.75c-.43-.49-.84-1-1.23-1.49s-.8-1-1.17-1.54-.76-1-1.12-1.58L163,110.43c-.68-1.1-1.31-2.22-1.93-3.36l-.87-1.73c-.27-.59-.56-1.17-.83-1.76-.52-1.19-1-2.4-1.47-3.62s-.87-2.46-1.24-3.71c-.17-.63-.37-1.26-.53-1.89l-.47-1.91c-.28-1.29-.55-2.57-.75-3.88s-.36-2.61-.51-3.93c-.06-.66-.09-1.32-.14-2s-.08-1.32-.09-2,0-1.32,0-2l.06-2c0-.67.06-1.33.12-2s.09-1.32.17-2c.18-1.32.31-2.64.59-4,.13-.66.23-1.31.38-2l.47-2c.14-.65.34-1.28.54-1.92s.38-1.28.58-1.91l1.09-3.42,3.06-.27c.75-.07,1.4-.12,2.1-.16l2-.09c1.36,0,2.72-.06,4.08,0,.68,0,1.36,0,2,.05s1.36.06,2,.11l2,.15,2,.23c.67.07,1.36.17,2,.28s1.36.21,2,.34l2,.42,2,.51c.66.17,1.33.39,2,.61a18.28,18.28,0,0,1,1.95.71c.64.27,1.28.51,1.9.83s1.23.66,1.82,1l-2,.18c-.33,0-.67.06-1,.1l-1,.11c-.66.06-1.31.14-2,.24s-1.29.15-1.94.27-1.29.21-1.93.29l-1.92.33c-.63.09-1.27.21-1.91.33l-1.9.34-3.8.71c-.63.11-1.26.24-1.89.36s-1.26.24-1.89.36l-1.88.37-1.88.37-1.87.37-1.81.38,4.15-3.69c-.18,1.13-.45,2.23-.61,3.35s-.35,2.24-.48,3.37-.25,2.25-.36,3.37c-.07.56-.09,1.13-.13,1.7s-.09,1.13-.11,1.69l-.07,1.7c0,.57,0,1.14,0,1.71,0,1.13,0,2.28,0,3.42s.05,2.29.12,3.44.15,2.29.22,3.45.2,2.31.33,3.47c0,.58.13,1.16.2,1.74s.13,1.17.22,1.75c.15,1.17.32,2.33.5,3.51.1.59.18,1.18.27,1.77l.31,1.77.32,1.78c.11.59.24,1.18.34,1.78l.72,3.6.39,1.81.41,1.83Z"/><path class="cls-3" d="M331.6,187.52c2.47-.43,4.92-.91,7.35-1.41l3.64-.78,3.61-.82q3.6-.85,7.16-1.8c2.37-.64,4.73-1.29,7.06-2s4.65-1.44,6.94-2.24,4.56-1.6,6.8-2.5,4.45-1.79,6.62-2.78,4.32-2,6.42-3.12,4.15-2.24,6.15-3.48,3.94-2.51,5.82-3.87,3.7-2.79,5.43-4.3,3.39-3.08,5-4.73l1.15-1.26c.38-.42.73-.86,1.11-1.29l.55-.64.53-.66c.35-.45.73-.88,1.05-1.33a58.14,58.14,0,0,0,3.77-5.63,56.21,56.21,0,0,0,3.12-6c.92-2.07,1.72-4.2,2.44-6.37l2,5.66c-.13-.11-.42-.3-.66-.46s-.51-.32-.77-.49c-.52-.34-1.07-.66-1.62-1l-.82-.49-.85-.47c-.57-.31-1.12-.64-1.7-.94-1.16-.59-2.3-1.22-3.5-1.75l-1.77-.85c-.59-.29-1.2-.53-1.8-.8l-1.81-.79c-.6-.27-1.23-.49-1.84-.74-1.24-.45-2.44-1-3.7-1.42s-2.5-.9-3.76-1.32l-3.82-1.2c-.63-.21-1.27-.38-1.92-.54s-1.29-.34-1.94-.53l-1.94-.53c-.65-.19-1.31-.3-2-.46-1.31-.28-2.62-.6-3.94-.9s-2.66-.48-4-.74l-2-.38a8.83,8.83,0,0,0-1-.16l-1-.15c-1.35-.19-2.7-.37-4.06-.59l-1-.15c-.34,0-.67-.07-1-.1l-2-.22c-1.37-.14-2.74-.31-4.13-.48,1.36-.27,2.73-.51,4.1-.74s2.75-.5,4.14-.6,2.78-.25,4.18-.37,2.79-.15,4.19-.19,2.81-.07,4.22,0,2.81.11,4.22.19c.71,0,1.42,0,2.12.13l2.1.22c.71.07,1.41.14,2.12.23s1.4.15,2.1.28l4.2.69c1.4.27,2.78.6,4.18.9.69.15,1.39.3,2.08.5s1.37.36,2.06.56,1.38.36,2.06.59l2,.65c1.36.43,2.72.91,4.06,1.43s2.68,1.07,4,1.62c.67.28,1.33.6,2,.9s1.32.61,2,1,1.31.67,2,1c.33.19.66.35,1,.56s.64.37,1.07.65l3,2-1,3.68a61.35,61.35,0,0,1-2.51,7.67,63.65,63.65,0,0,1-3.48,7.32,64.87,64.87,0,0,1-4.42,6.8,63,63,0,0,1-5.22,6.17,80,80,0,0,1-5.88,5.48c-2.06,1.69-4.21,3.26-6.4,4.73a75.28,75.28,0,0,1-6.77,4.06c-2.31,1.24-4.65,2.4-7.05,3.41s-4.8,2-7.24,2.82-4.91,1.58-7.38,2.26-5,1.24-7.47,1.76-5,.92-7.52,1.28-5,.63-7.57.82-5,.34-7.56.38c-1.27,0-2.53,0-3.79,0s-2.52,0-3.77-.11A72.65,72.65,0,0,1,331.6,187.52Z"/><path class="cls-3" d="M344.55,130.7c1-1.9,1.89-3.81,2.78-5.72l1.31-2.87,1.24-2.88c.39-1,.8-1.92,1.17-2.89s.78-1.93,1.13-2.9.72-1.94,1.06-2.91l.52-1.46.47-1.46.49-1.46.45-1.47.45-1.46c.14-.49.27-1,.4-1.48.58-1.95,1.06-3.92,1.51-5.89l.65-3,.54-3c.29-2,.66-4,.83-5.93l.16-1.48c.06-.49.07-1,.11-1.48.06-1,.17-2,.2-3l.08-3c0-.49,0-1,0-1.47l0-1.47c0-.49,0-1,0-1.47l-.11-1.46-.09-1.47c0-.48-.06-1-.13-1.45l-.34-2.91c-.11-1-.33-1.91-.47-2.87l-.24-1.44-.33-1.42c-.23-.94-.42-1.9-.66-2.84l-.81-2.79c-.14-.47-.24-1-.42-1.4L356,49.3c-.34-.91-.62-1.85-1-2.75l-1.14-2.7c-.19-.45-.36-.91-.58-1.35l-.65-1.32-1.28-2.65,6,2.41-.13,0L357,41l-.37.12-.78.24c-.52.17-1.05.36-1.58.55q-1.59.57-3.18,1.2c-1.06.43-2.11.88-3.16,1.35s-2.08,1-3.12,1.47l-1.55.77-1.53.8c-1,.56-2,1.11-3,1.69-.51.28-1,.59-1.5.88s-1,.6-1.47.92c-1,.62-2,1.25-2.93,1.9s-1.92,1.32-2.84,2-1.87,1.4-2.8,2.12l-1.36,1.12q-.69.55-1.35,1.14c-.44.39-.89.77-1.33,1.17l-1.3,1.2c-.88.8-1.7,1.65-2.55,2.49s-1.67,1.72-2.47,2.62c-.4.45-.82.89-1.21,1.35l-1.17,1.39c-.8.92-1.53,1.89-2.33,2.84.2-.58.39-1.17.6-1.75s.41-1.17.65-1.73l.72-1.72c.25-.57.53-1.12.8-1.69.52-1.14,1.15-2.21,1.74-3.31.3-.55.65-1.07,1-1.61s.65-1.07,1-1.59.69-1,1.05-1.57.75-1,1.12-1.52c.73-1,1.54-2,2.35-3s1.65-1.92,2.52-2.83,1.78-1.81,2.68-2.71,1.85-1.74,2.82-2.55q.72-.63,1.47-1.23c.49-.4,1-.81,1.49-1.19s1-.79,1.51-1.17l1.55-1.11,1.58-1.08,1.6-1L342,37l1.66-1c1.11-.63,2.24-1.24,3.38-1.82s2.31-1.15,3.5-1.68l1.81-.77.94-.37.48-.18.56-.19,3.91-1.37,2.12,3.78L362,36.36l.82,1.47c.27.5.49,1,.73,1.52L365,42.42c.46,1,.84,2.11,1.24,3.16.87,2.1,1.44,4.3,2.1,6.46.29,1.1.53,2.21.78,3.31l.37,1.66.27,1.68.27,1.68c.08.56.19,1.12.23,1.68l.31,3.38c.06.56.08,1.13.09,1.69l.06,1.69,0,1.69c0,.57,0,1.13,0,1.69-.05,1.13-.05,2.25-.14,3.37l-.3,3.35c-.12,1.11-.31,2.22-.46,3.32s-.38,2.2-.6,3.29-.43,2.18-.72,3.26-.51,2.15-.84,3.21l-1,3.17c-.35,1-.72,2.08-1.09,3.11s-.81,2-1.21,3.06-.86,2-1.31,3c-.23.5-.45,1-.69,1.49l-.73,1.46-.73,1.46-.78,1.44-.79,1.42-.83,1.4-.82,1.4-.88,1.37c-1.16,1.82-2.41,3.59-3.69,5.32s-2.64,3.4-4.07,5A52.68,52.68,0,0,1,344.55,130.7Z"/><path class="cls-3" d="M387.15,217.28c.9-.79,1.77-1.56,2.65-2.31l2.6-2.23c.85-.75,1.71-1.47,2.55-2.22s1.68-1.46,2.5-2.19,1.65-1.46,2.46-2.19l2.41-2.18,2.36-2.2c.76-.75,1.54-1.47,2.28-2.22s1.5-1.5,2.24-2.24c.36-.39.72-.76,1.09-1.14s.71-.77,1.07-1.14.71-.76,1.05-1.15l1-1.16c.66-.8,1.36-1.56,2-2.37s1.28-1.6,1.92-2.4c.32-.4.61-.82.92-1.23s.62-.81.9-1.24l.88-1.25.84-1.27.43-.64.4-.65.81-1.3.66,5.4c-.26-.39-.59-.84-.9-1.26l-.95-1.3-1.93-2.6L417.48,178c-.33-.43-.65-.87-1-1.31l-1-1.3c-.66-.87-1.31-1.75-2-2.62l-1-1.31c-.35-.41-.68-.86-1-1.29s-.7-.86-1.05-1.3-.71-.87-1.07-1.29l-.56-.64a7.07,7.07,0,0,0-.56-.65c-.39-.42-.78-.85-1.17-1.31.58.09,1.16.2,1.75.32s1.14.31,1.71.49c.28.09.58.17.85.27l.83.32c.55.22,1.11.43,1.64.69l1.6.76,1.56.84c.52.28,1,.59,1.51.89s1,.6,1.5.93c1,.65,1.94,1.3,2.87,2,.48.35.93.7,1.39,1.06s.91.72,1.36,1.09c.9.73,1.78,1.49,2.64,2.27l1.28,1.19c.43.41.83.8,1.28,1.26l2.09,2.14-1.42,3.26-.74,1.7-.38.85-.42.82c-.27.55-.55,1.11-.85,1.65l-.93,1.59c-.3.54-.64,1-1,1.57s-.68,1-1,1.52c-.72,1-1.46,2-2.24,2.92s-1.58,1.85-2.41,2.74-1.69,1.75-2.58,2.56-1.8,1.62-2.73,2.38-1.88,1.5-2.86,2.19-2,1.36-3,2-2,1.24-3.08,1.8c-.51.29-1,.56-1.57.83s-1.06.53-1.6.78c-1.06.52-2.16,1-3.25,1.41s-2.21.83-3.33,1.2-2.26.7-3.41,1-2.3.52-3.47.71A24.68,24.68,0,0,1,387.15,217.28Z"/><path class="cls-3" d="M394,119.42l.86-3.71.4-1.83.39-1.81.73-3.6c.1-.6.23-1.19.34-1.78l.31-1.78.31-1.77c.09-.59.17-1.18.27-1.77.18-1.18.36-2.34.5-3.51.09-.58.15-1.17.22-1.75s.15-1.16.2-1.74c.14-1.16.22-2.32.33-3.47s.18-2.31.22-3.45.08-2.3.12-3.44,0-2.29,0-3.42c0-.57,0-1.14,0-1.71l-.07-1.7c0-.56-.07-1.13-.11-1.69s-.06-1.14-.13-1.7c-.11-1.12-.2-2.25-.36-3.37s-.3-2.24-.48-3.37-.42-2.22-.6-3.35l4.14,3.69-1.8-.38-1.87-.37L396,66.27l-1.89-.37c-.63-.12-1.26-.25-1.89-.36s-1.26-.25-1.89-.36l-3.8-.71-1.9-.34c-.64-.12-1.27-.24-1.91-.33l-1.92-.33c-.64-.08-1.28-.18-1.93-.29s-1.28-.17-1.93-.27-1.31-.18-2-.24l-1-.11c-.33,0-.66-.09-1-.1l-2-.18c.59-.34,1.19-.68,1.81-1s1.26-.56,1.9-.83a18.44,18.44,0,0,1,2-.71c.65-.22,1.32-.44,2-.61l2-.51c.68-.14,1.35-.29,2-.42s1.35-.23,2-.34,1.36-.21,2-.28l2.05-.23,2-.15c.68-.05,1.36-.07,2-.11s1.36,0,2-.05c1.36,0,2.72,0,4.08,0l2.05.09c.69,0,1.35.09,2.1.16l3.05.27L407.28,61c.2.63.4,1.27.59,1.91s.39,1.27.53,1.92l.47,2c.16.65.26,1.3.39,2,.27,1.31.4,2.63.58,4,.08.67.12,1.33.18,2s.11,1.33.12,2l.05,2c0,.67,0,1.33,0,2s0,1.33-.09,2-.08,1.32-.14,2c-.15,1.32-.28,2.63-.51,3.93s-.47,2.59-.75,3.88l-.47,1.91c-.16.63-.35,1.26-.53,1.89-.37,1.25-.79,2.49-1.24,3.71s-.95,2.43-1.47,3.62c-.27.59-.55,1.17-.83,1.76l-.87,1.73c-.62,1.14-1.25,2.26-1.93,3.36l-1.05,1.63c-.36.53-.73,1.06-1.11,1.58s-.77,1-1.18,1.54-.8,1-1.23,1.49A26.25,26.25,0,0,1,394,119.42Z"/><path class="cls-4" d="M281.25,0a65.92,65.92,0,0,1,5.66,4.78c1.82,1.69,3.54,3.48,5.21,5.33A76.14,76.14,0,0,1,301,22.27a64.3,64.3,0,0,1,3.44,6.84A54,54,0,0,1,307,36.47a42.49,42.49,0,0,1-3.56,31.19,51,51,0,0,1-4.27,6.79c-.77,1.09-1.61,2.11-2.45,3.13s-1.74,2-2.66,2.93c-1.81,1.92-3.75,3.67-5.71,5.38s-4,3.27-6.14,4.75l-3,2.13-1.5,1.07c-.48.35-1,.71-1.45,1.06L273.49,97c-.91.7-1.8,1.48-2.7,2.22a101.34,101.34,0,0,0-10,9.65,76.11,76.11,0,0,0-8.16,11,58.19,58.19,0,0,0-5.7,12.12,48.39,48.39,0,0,0-2.51,12.94A47.2,47.2,0,0,0,245.56,158a54.46,54.46,0,0,0,4.66,12.57,67.77,67.77,0,0,0,7.53,11.51,101.07,101.07,0,0,0,9.63,10.26l-5.13.35c.11-.1.31-.32.47-.5s.34-.4.51-.6c.35-.39.69-.82,1-1.25s.66-.87,1-1.32.66-.88,1-1.35c.62-.93,1.25-1.85,1.83-2.81l.89-1.43.83-1.48.82-1.47.77-1.52.76-1.52c.26-.51.47-1,.71-1.55l.7-1.56.35-.78c.12-.26.21-.53.32-.79l1.25-3.2c.39-1.08.74-2.17,1.11-3.26.18-.54.37-1.09.54-1.64l.46-1.66c.32-1.11.65-2.22.94-3.34l.76-3.39.4-1.7c.1-.57.19-1.15.29-1.72l.61-3.45a17.35,17.35,0,0,0,.25-1.74l.21-1.74c.13-1.17.29-2.33.44-3.51.08,1.17.17,2.35.24,3.53l.1,1.77c0,.59.07,1.19.06,1.78,0,1.18,0,2.37,0,3.55,0,.6,0,1.19,0,1.79l-.12,1.78-.26,3.56c-.13,1.19-.31,2.37-.46,3.56l-.25,1.78c-.1.59-.22,1.18-.33,1.77-.24,1.17-.45,2.36-.71,3.53l-.9,3.51c-.08.29-.15.58-.23.87l-.27.87-.54,1.73c-.19.58-.35,1.16-.56,1.73l-.64,1.71-.64,1.7-.72,1.68-.73,1.69-.79,1.65c-.52,1.12-1.12,2.19-1.71,3.28-.29.54-.62,1.07-.93,1.6s-.64,1.07-1,1.59-.68,1.06-1.06,1.58c-.19.27-.35.52-.56.79s-.38.52-.66.86l-2.21,2.64L262.62,198a99.57,99.57,0,0,1-11.34-10.34l-2.57-2.91-2.41-3.06a64.68,64.68,0,0,1-4.35-6.55,60.06,60.06,0,0,1-6.22-14.66,55,55,0,0,1-1.92-16,58.16,58.16,0,0,1,2.75-15.9,68.23,68.23,0,0,1,6.67-14.48,85.86,85.86,0,0,1,9.45-12.55l2.68-2.82c.91-.93,1.87-1.79,2.8-2.69s1.92-1.73,2.89-2.58l1.46-1.27c.49-.41,1-.8,1.5-1.2,1-.8,2-1.61,3-2.39l3.17-2.29c.54-.4,1-.7,1.55-1l1.54-1,3.07-2c2-1.26,3.81-2.64,5.66-4s3.59-2.88,5.22-4.45c.85-.77,1.61-1.6,2.41-2.4s1.54-1.65,2.24-2.53a41.54,41.54,0,0,0,6.88-11.32,34.62,34.62,0,0,0,1.87-6.33,36,36,0,0,0,.69-6.65,41.89,41.89,0,0,0-.49-6.78A49.08,49.08,0,0,0,299.33,31a60.62,60.62,0,0,0-2.4-6.64c-.93-2.18-2-4.33-3.13-6.44s-2.37-4.19-3.71-6.22A96.89,96.89,0,0,0,281.25,0Z"/><path class="cls-4" d="M213,196.15c-2,.77-4,1.66-5.89,2.57s-3.83,1.9-5.7,2.93c-.94.51-1.86,1-2.79,1.56s-1.84,1.08-2.74,1.63-1.81,1.12-2.7,1.71-1.76,1.18-2.64,1.77-1.73,1.22-2.58,1.85-1.69,1.28-2.53,1.92-1.66,1.3-2.46,2-1.62,1.35-2.41,2-1.57,1.41-2.34,2.12-1.52,1.44-2.25,2.19-1.47,1.49-2.19,2.25-1.4,1.54-2.11,2.31l-.24-3.7c.33.24.76.53,1.16.8s.81.54,1.23.8c.83.53,1.67,1,2.53,1.54,1.71,1,3.45,1.94,5.23,2.83a106.26,106.26,0,0,0,10.93,4.68,98.33,98.33,0,0,0,11.35,3.35,94,94,0,0,0,11.62,2,91.67,91.67,0,0,0,23.35-.5,95.43,95.43,0,0,0,22.45-6.25A116.51,116.51,0,0,0,282,219.42l2.07-1.63,2.23-1.84c1.49-1.28,3-2.57,4.4-3.91,2.86-2.66,5.58-5.47,8.16-8.39A98.7,98.7,0,0,0,306,194.5a86.44,86.44,0,0,0,6-9.88,77.25,77.25,0,0,0,4.55-10.5l.47-1.35.41-1.36c.3-.91.52-1.83.78-2.74.45-1.84.88-3.68,1.18-5.54a63.33,63.33,0,0,0,.94-11.24,60,60,0,0,0-1.15-11.18,64.06,64.06,0,0,0-8.3-21,78.2,78.2,0,0,0-6.69-9.39,95.51,95.51,0,0,0-8-8.47,111.69,111.69,0,0,0-9-7.59c-.8-.58-1.57-1.19-2.39-1.76l-2.49-1.76c-.83-.61-1.64-1.18-2.5-1.82s-1.74-1.32-2.58-2A75.51,75.51,0,0,1,267.79,78a60.63,60.63,0,0,1-4.07-5.1,52.59,52.59,0,0,1-3.45-5.6l-.39-.72-.36-.75c-.23-.5-.48-1-.7-1.49-.43-1-.86-2-1.22-3.08a42,42,0,0,1-2.42-12.92,44.18,44.18,0,0,1,.35-6.51,49.1,49.1,0,0,1,3.31-12.38,63.14,63.14,0,0,1,5.89-11.12,82.08,82.08,0,0,1,7.6-9.84c1.39-1.53,2.82-3,4.3-4.45A59.61,59.61,0,0,1,281.25,0a87.26,87.26,0,0,0-7.75,9.47,85.1,85.1,0,0,0-6.38,10.3,66.83,66.83,0,0,0-4.58,11,47.72,47.72,0,0,0-2.07,11.5,37.06,37.06,0,0,0,1.15,11.34A35.63,35.63,0,0,0,263.48,59a38.68,38.68,0,0,0,2.63,5,46.58,46.58,0,0,0,3.28,4.66,53.42,53.42,0,0,0,3.85,4.26,70.3,70.3,0,0,0,8.86,7.51c.78.56,1.57,1.09,2.36,1.64s1.7,1.11,2.55,1.66l2.59,1.67c.9.57,1.76,1.19,2.63,1.78A117.92,117.92,0,0,1,302.32,95a91.92,91.92,0,0,1,17.05,19.37A76,76,0,0,1,325.52,126a69.45,69.45,0,0,1,5.56,25.77,72,72,0,0,1-.93,13.21c-.34,2.18-.83,4.32-1.35,6.46-.29,1.06-.55,2.13-.88,3.17l-.48,1.57-.52,1.56a87.47,87.47,0,0,1-5.15,12A99,99,0,0,1,315,200.79a110.36,110.36,0,0,1-8,10.1,119.42,119.42,0,0,1-9.06,9.08c-1.58,1.44-3.2,2.82-4.84,4.18l-2.53,2-1.22.93-.6.47-.31.23-.08.06-.42.3-.17.11A124.43,124.43,0,0,1,265,239.83,102.93,102.93,0,0,1,240,245.89a96.21,96.21,0,0,1-25.6-.58q-3.17-.5-6.28-1.19c-2.08-.46-4.14-1-6.17-1.59A103.72,103.72,0,0,1,190,238.21a102.05,102.05,0,0,1-11.28-5.73q-2.73-1.6-5.35-3.39c-.87-.6-1.73-1.22-2.58-1.85-.43-.32-.85-.65-1.27-1s-.82-.65-1.29-1l-2.2-1.87,2-1.84c.8-.75,1.58-1.53,2.4-2.26s1.64-1.48,2.48-2.18,1.69-1.4,2.55-2.09,1.73-1.34,2.61-2,1.77-1.29,2.67-1.9,1.82-1.22,2.73-1.82,1.84-1.16,2.78-1.71,1.88-1.1,2.83-1.63,1.9-1,2.87-1.54,1.93-1,2.9-1.46c1.95-.94,3.92-1.85,5.93-2.66s4-1.58,6.06-2.28S210.93,196.65,213,196.15Z"/><path class="cls-4" d="M283,225.64c.94-.94,1.92-1.84,2.93-2.71s2-1.73,3.06-2.56c2.09-1.66,4.24-3.25,6.46-4.75s4.49-2.92,6.81-4.28,4.72-2.6,7.14-3.79,4.93-2.25,7.46-3.25,5.12-1.86,7.74-2.65,5.3-1.42,8-2a80.58,80.58,0,0,1,8.22-1.21q4.15-.37,8.36-.35a74,74,0,0,1,8.4.61c1.4.16,2.79.41,4.19.64s2.77.57,4.13.93,2.73.75,4.09,1.15,2.7.87,4,1.4,2.63,1.06,3.93,1.62c.64.29,1.28.6,1.92.91l1,.45.94.5a80.7,80.7,0,0,1,7.31,4.28c1.14.81,2.33,1.58,3.44,2.44l1.68,1.27,1.63,1.32c2.18,1.76,4.25,3.64,6.26,5.57l4.54,4.39-4.92,3.82-.5.39-.44.33-.86.63c-.57.4-1.14.8-1.71,1.18-1.15.77-2.3,1.5-3.46,2.2-.58.36-1.17.69-1.76,1s-1.17.69-1.77,1l-1.78,1-1.81.91c-1.2.61-2.45,1.14-3.66,1.72s-2.48,1.06-3.73,1.57-2.51,1-3.78,1.42l-1.92.65-.95.32-1,.29c-2.58.8-5.18,1.48-7.81,2.08-1.32.27-2.63.57-4,.79s-2.65.43-4,.63l-4,.46c-1.34.13-2.69.19-4,.27l-1,.06-1,0-2,0-2,0-2-.08-2-.08-1-.05-1-.1-4-.41c-2.64-.41-5.29-.73-7.88-1.37l-1.94-.43-1-.22-1-.26-3.82-1.09c-.64-.17-1.26-.4-1.89-.61l-1.87-.66c-1.24-.45-2.5-.84-3.7-1.39l-3.63-1.54c-.61-.24-1.2-.53-1.79-.83l-1.76-.88-1.75-.88c-.59-.29-1.17-.58-1.73-.92l-3.38-2c-.56-.34-1.13-.65-1.68-1l-1.62-1.08-3.23-2.17c-.54-.36-1-.76-1.56-1.16L286.08,228c-1-.79-2-1.59-3-2.39,2.36,1.07,4.62,2.27,7,3.3l3.52,1.51,1.75.76c.59.24,1.19.46,1.78.68l3.55,1.35c.59.24,1.19.43,1.79.62l1.8.58,1.8.58c.59.2,1.19.4,1.8.55l3.63,1c1.2.35,2.43.59,3.65.86l1.82.39c.61.14,1.21.28,1.83.36,1.23.19,2.45.39,3.67.6l.92.15.92.1,1.84.2,1.84.21c.61.08,1.23.07,1.85.12,1.23.08,2.45.17,3.68.23l3.68,0H338l.91,0,1.84-.07,1.83-.06,1.83-.16,1.82-.15c.3,0,.61,0,.91-.09l.91-.12c1.21-.18,2.42-.3,3.62-.49l3.6-.62,3.57-.78c.59-.12,1.18-.3,1.77-.45l1.76-.45q3.52-1,7-2.17c2.29-.81,4.55-1.71,6.79-2.65,1.11-.48,2.21-1,3.31-1.5s2.2-1.05,3.26-1.63c2.15-1.11,4.26-2.3,6.31-3.56,1-.63,2-1.28,3-1.95.49-.33,1-.67,1.44-1l.69-.51.32-.25.26-.2-.37,8.21c-.92-.84-1.8-1.72-2.72-2.55s-1.84-1.66-2.8-2.43l-1.43-1.18L386,221.82c-1-.77-2-1.44-3-2.16-2-1.37-4.09-2.71-6.24-3.87l-.8-.45-.82-.41-1.63-.83c-1.11-.5-2.21-1-3.34-1.5s-2.26-.91-3.4-1.35-2.31-.81-3.49-1.13a69.21,69.21,0,0,0-14.46-2.7c-2.46-.2-4.95-.28-7.44-.24s-5,.2-7.51.46-5,.65-7.5,1.1-5,1-7.47,1.68-4.94,1.37-7.39,2.18A143.71,143.71,0,0,0,297,218.31c-2.37,1.1-4.73,2.24-7.06,3.46S285.31,224.27,283,225.64Z"/></g></g></svg>